<?xml version="1.0" standalone="no"?>
<!DOCTYPE svg PUBLIC "-//W3C//DTD SVG 20010904//EN"
 "http://www.w3.org/TR/2001/REC-SVG-20010904/DTD/svg10.dtd">
<svg version="1.0" xmlns="http://www.w3.org/2000/svg"
 width="826.000000pt" height="826.000000pt" viewBox="0 0 826.000000 826.000000"
 preserveAspectRatio="xMidYMid meet">
<metadata>
Created by potrace 1.16, written by Peter Selinger 2001-2019
</metadata>
<g transform="translate(0.000000,826.000000) scale(0.100000,-0.100000)"
fill="#000000" stroke="none">
<path d="M1071 7319 c-122 -21 -278 -143 -339 -265 -47 -93 -68 -211 -54 -304
17 -108 76 -221 156 -298 109 -105 224 -148 371 -139 221 14 389 134 465 332
31 83 39 221 15 300 -44 153 -137 265 -278 335 -78 39 -90 42 -183 45 -54 2
-123 0 -153 -6z m260 -191 c0 -2 3 -29 5 -60 l5 -58 -50 0 -51 0 0 -35 c0 -35
0 -35 44 -35 25 0 46 -3 49 -7 2 -5 1 -34 -1 -65 l-4 -58 -44 0 -44 0 0 -155
0 -156 -27 5 c-16 2 -45 5 -65 5 l-38 1 0 155 0 155 -35 0 -35 0 0 55 c0 54 0
55 30 55 30 0 30 1 30 55 0 107 40 144 158 145 39 0 72 -1 73 -2z"/>
<path d="M2550 7320 c-139 -24 -296 -153 -359 -295 -44 -98 -53 -245 -21 -346
37 -121 109 -220 209 -286 201 -134 467 -104 647 73 203 201 201 512 -5 714
-75 73 -140 112 -226 135 -62 16 -169 18 -245 5z m225 -219 c86 -40 119 -95
118 -196 0 -96 -28 -156 -90 -196 -53 -33 -102 -37 -147 -14 -15 8 -30 15 -32
15 -2 0 -6 -17 -10 -37 -15 -78 -68 -173 -86 -155 -15 15 -10 130 9 213 9 41
17 107 17 147 1 68 3 76 29 98 36 31 61 30 86 -2 23 -29 22 -42 -5 -129 l-18
-57 22 -18 c23 -19 54 -17 81 4 27 21 51 90 51 150 0 53 -3 61 -34 92 -31 31
-39 34 -91 34 -40 0 -69 -6 -96 -22 -65 -36 -100 -137 -64 -184 18 -24 18 -35
2 -58 -11 -15 -17 -17 -35 -7 -62 33 -71 166 -16 243 43 62 118 98 203 98 43
0 80 -7 106 -19z"/>
<path d="M4022 7320 c-170 -31 -337 -195 -381 -375 -32 -131 -18 -246 44 -364
116 -221 365 -321 610 -245 140 43 271 168 326 312 30 80 37 219 14 298 -43
149 -141 266 -279 335 -77 38 -90 41 -182 44 -54 2 -123 0 -152 -5z m308 -242
c77 -40 85 -64 85 -268 0 -165 -1 -177 -22 -206 -36 -51 -77 -64 -220 -70
-171 -8 -229 4 -277 56 -44 49 -49 79 -44 254 5 160 16 192 78 233 31 22 43
23 194 23 148 0 166 -2 206 -22z"/>
<path d="M4006 7043 c-83 -13 -101 -62 -92 -243 11 -199 14 -202 233 -198 152
3 153 3 180 31 28 27 28 29 32 181 l3 153 -29 33 c-27 30 -36 33 -114 41 -89
8 -165 9 -213 2z m209 -102 c67 -37 90 -148 44 -211 -58 -78 -169 -80 -239 -5
-36 38 -36 134 -1 184 43 60 122 73 196 32z"/>
<path d="M4124 6902 c-69 -11 -91 -116 -31 -152 44 -28 74 -25 108 9 36 36 37
70 4 109 -26 31 -46 40 -81 34z"/>
<path d="M5500 7320 c-106 -18 -242 -110 -309 -208 -56 -82 -83 -168 -89 -277
-4 -78 -1 -100 22 -168 61 -180 196 -306 375 -347 67 -16 207 -8 275 16 102
35 187 97 247 178 53 71 73 116 94 206 26 114 14 201 -46 329 -35 75 -137 181
-215 223 -97 53 -226 70 -354 48z m-14 -232 l7 -33 10 33 c8 24 16 32 33 32
29 0 30 -11 4 -85 -11 -32 -20 -80 -20 -107 0 -41 -3 -48 -20 -48 -17 0 -20 7
-20 48 0 42 -16 102 -45 175 -6 13 -2 17 18 17 20 0 27 -6 33 -32z m148 -44
c19 -19 22 -134 4 -152 -7 -7 -24 -12 -38 -12 -40 0 -50 18 -50 86 0 66 15 94
50 94 10 0 26 -7 34 -16z m77 -60 l5 -69 2 73 c2 70 3 72 27 72 l25 0 -2 -90
-3 -90 -45 3 -45 2 -3 87 c-2 78 -1 86 15 84 15 -2 19 -16 24 -72z m135 -155
c23 -21 24 -28 24 -144 0 -168 12 -159 -234 -163 -105 -2 -205 -1 -222 3 -47
8 -57 38 -57 162 0 113 9 149 44 161 10 4 109 7 220 6 194 -2 201 -3 225 -25z"/>
<path d="M6971 7319 c-81 -14 -167 -64 -246 -144 -82 -82 -117 -147 -141 -267
-14 -69 -15 -95 -6 -158 23 -152 131 -310 258 -377 97 -51 165 -66 269 -60
218 13 390 138 466 337 30 78 37 218 14 295 -44 153 -137 265 -278 335 -78 39
-90 42 -183 45 -54 2 -123 0 -153 -6z m274 -309 c39 -20 40 -20 77 -1 21 10
38 17 38 15 0 -1 -5 -15 -10 -29 -9 -24 -8 -26 11 -20 18 6 19 4 11 -12 -6
-10 -22 -29 -36 -42 -18 -17 -26 -35 -26 -57 0 -91 -87 -216 -183 -266 -80
-40 -258 -31 -297 17 -11 13 -7 15 31 15 24 1 59 9 78 19 l33 18 -31 13 c-47
19 -79 70 -45 70 10 0 6 8 -14 25 -17 14 -35 39 -41 56 -10 29 -9 31 9 26 11
-3 20 -1 20 4 0 5 -4 9 -9 9 -15 0 -32 66 -25 96 10 44 11 44 51 6 69 -64 203
-110 189 -64 -9 26 32 84 74 104 44 22 47 22 95 -2z"/>
<path d="M1064 5670 c-98 -21 -218 -101 -288 -194 -51 -68 -71 -114 -92 -216
-22 -110 -10 -200 43 -309 155 -324 570 -389 825 -130 103 104 148 212 148
354 0 204 -133 396 -330 476 -61 24 -231 35 -306 19z m150 -367 l72 -76 139
46 c77 26 144 47 149 47 5 0 -20 -30 -55 -67 -35 -38 -109 -119 -164 -181
l-100 -113 -74 77 -75 78 -145 -50 c-79 -27 -149 -51 -155 -53 -6 -2 0 10 14
26 31 39 314 343 318 343 2 0 36 -34 76 -77z"/>
<path d="M2540 5670 c-124 -26 -277 -146 -334 -262 -144 -294 1 -632 313 -728
81 -25 167 -25 267 0 194 50 335 194 378 387 20 90 20 139 0 217 -39 152 -144
280 -288 351 -70 35 -82 38 -183 41 -59 2 -128 -1 -153 -6z m220 -217 c70 -23
150 -96 180 -165 52 -118 19 -266 -75 -344 -162 -132 -393 -82 -479 105 -28
62 -29 179 -2 236 74 154 219 219 376 168z"/>
<path d="M2503 5289 c-18 -5 -33 -15 -33 -22 0 -9 36 -12 137 -12 132 0 141
-1 196 -29 44 -21 62 -25 70 -17 41 41 -92 91 -238 90 -55 -1 -115 -5 -132
-10z"/>
<path d="M4015 5670 c-163 -34 -323 -186 -368 -350 -39 -143 -30 -247 34 -377
127 -257 435 -356 692 -221 76 39 187 148 222 217 101 200 61 441 -100 597
-66 63 -158 115 -235 133 -52 12 -187 12 -245 1z m266 -232 c15 -9 34 -33 43
-53 36 -76 -24 -208 -107 -234 -18 -5 -59 -12 -92 -13 l-60 -4 -13 -70 c-7
-38 -15 -79 -17 -90 -4 -17 -14 -23 -47 -26 -24 -2 -53 -2 -65 0 -29 5 -29 20
-3 188 35 230 51 308 63 317 7 4 71 6 142 5 102 -2 137 -7 156 -20z m95 -183
c9 -36 -3 -104 -26 -140 -25 -40 -54 -57 -120 -70 l-55 -11 -14 -70 c-8 -38
-19 -72 -25 -76 -6 -4 -30 -8 -53 -8 -32 0 -43 4 -43 15 0 24 31 208 36 217 3
4 32 8 65 8 33 0 74 6 92 14 38 15 95 77 109 118 12 35 26 36 34 3z"/>
<path d="M5490 5670 c-174 -37 -342 -209 -379 -388 -44 -211 50 -437 225 -542
121 -73 223 -92 363 -69 288 46 484 340 412 617 -40 154 -140 276 -285 348
-70 34 -82 37 -183 40 -59 2 -128 -1 -153 -6z m80 -335 c48 -25 63 -114 24
-146 -13 -10 -12 -15 6 -31 40 -37 38 -101 -4 -143 -27 -27 -94 -38 -201 -33
l-69 3 -4 183 -4 182 112 0 c78 0 119 -4 140 -15z m295 -105 c25 -24 45 -75
45 -117 0 -22 -3 -23 -95 -23 -53 0 -95 -4 -95 -9 0 -14 41 -41 61 -41 9 0 22
7 29 15 7 9 29 15 51 15 49 0 52 -23 9 -65 -23 -22 -41 -29 -82 -32 -32 -2
-63 1 -78 9 -95 50 -93 220 3 264 46 21 121 13 152 -16z"/>
<path d="M6962 5670 c-61 -13 -173 -75 -225 -124 -124 -119 -185 -298 -157
-458 42 -237 260 -428 490 -428 147 0 276 55 383 163 158 159 192 379 89 582
-53 105 -157 199 -272 246 -62 24 -231 35 -308 19z m219 -186 c209 -62 298
-309 180 -496 -86 -136 -272 -185 -417 -112 -125 63 -191 179 -182 318 14 215
211 351 419 290z"/>
<path d="M7070 5369 c24 -35 45 -66 46 -68 8 -9 64 23 93 53 l31 32 -37 18
c-21 10 -69 21 -107 24 l-69 5 43 -64z"/>
<path d="M6918 5370 c-33 -27 -86 -115 -76 -125 6 -6 178 14 194 23 10 6 3 22
-28 70 -22 34 -43 62 -47 62 -4 0 -23 -13 -43 -30z"/>
<path d="M6980 5184 c-41 -7 -94 -13 -116 -13 l-41 -1 8 -45 c5 -25 14 -55 20
-68 25 -48 30 -49 58 -9 32 43 78 80 139 111 43 22 56 42 25 40 -10 -1 -52 -7
-93 -15z"/>
<path d="M7058 5082 c-26 -15 -65 -48 -87 -74 l-41 -46 45 -22 c52 -25 139
-36 177 -22 23 10 25 14 19 44 -17 72 -45 148 -55 148 -6 0 -32 -13 -58 -28z"/>
<path d="M1076 4019 c-122 -20 -281 -141 -341 -258 -63 -125 -77 -282 -36
-401 91 -262 337 -397 611 -334 105 24 230 110 308 213 69 91 102 288 67 407
-27 95 -72 169 -146 238 -131 124 -277 167 -463 135z m228 -187 c3 -5 -1 -20
-9 -35 -8 -15 -10 -27 -4 -27 5 0 23 -19 40 -42 23 -33 29 -50 26 -74 -7 -40
5 -61 23 -39 15 18 44 20 57 3 6 -7 13 -54 17 -105 5 -76 4 -94 -9 -107 -23
-22 -51 -20 -69 6 -15 22 -16 20 -16 -30 l0 -52 -36 0 c-32 0 -35 -2 -33 -27
4 -58 -1 -82 -21 -93 -36 -19 -59 3 -62 62 -2 41 -7 54 -20 56 -15 3 -18 -5
-18 -52 0 -51 -3 -58 -26 -68 -41 -19 -58 -1 -62 66 l-3 56 -34 0 c-34 0 -35
1 -35 42 0 33 -3 39 -12 30 -18 -18 -56 -14 -68 7 -14 28 -13 194 2 209 16 16
43 15 61 -3 13 -13 16 -12 22 3 5 9 7 28 6 42 -2 26 28 73 61 98 16 12 17 16
3 43 -17 32 -4 40 17 11 11 -14 27 -18 87 -17 67 1 75 3 82 23 8 22 24 29 33
14z"/>
<path d="M2551 4019 c-75 -13 -182 -72 -249 -138 -196 -194 -202 -513 -13
-715 53 -57 146 -114 224 -138 58 -17 86 -20 171 -15 60 3 117 12 141 22 77
32 124 56 135 71 7 7 16 14 21 14 23 0 120 121 152 191 23 50 47 155 47 209 0
121 -64 266 -159 360 -129 127 -277 171 -470 139z m345 -267 c21 -14 34 -51
34 -95 0 -49 -104 -367 -123 -379 -19 -12 -35 11 -66 98 -17 47 -37 98 -45
112 l-14 27 -12 -45 c-56 -212 -87 -247 -127 -142 -34 92 -111 305 -118 330
-4 13 -14 22 -25 22 -19 0 -36 17 -27 27 3 2 45 5 94 6 76 2 88 0 91 -15 2
-11 -3 -18 -12 -18 -22 0 -20 -13 18 -127 49 -146 48 -145 75 -62 22 70 23 73
6 126 -13 40 -24 57 -42 64 -14 5 -23 15 -20 22 2 8 31 12 93 12 77 0 89 -2
92 -17 2 -13 -3 -18 -18 -18 -17 0 -21 -4 -15 -17 4 -10 20 -56 35 -103 15
-47 33 -98 40 -115 l12 -30 18 50 c25 69 25 142 0 180 -11 17 -20 42 -20 57 0
44 43 72 76 50z"/>
<path d="M4032 4020 c-166 -24 -342 -190 -387 -364 -24 -94 -27 -157 -11 -234
50 -238 253 -412 483 -412 92 0 163 15 238 51 66 31 164 111 208 169 74 101
108 293 72 416 -27 95 -72 169 -146 238 -130 124 -266 164 -457 136z m45 -265
c25 -18 39 -57 48 -139 9 -82 33 -156 50 -156 23 0 78 89 79 129 1 36 1 36
-41 35 l-42 -1 15 36 c8 20 33 53 56 75 41 36 46 38 97 34 70 -6 91 -30 91
-102 0 -62 -22 -112 -91 -212 -66 -94 -158 -180 -204 -188 -68 -13 -94 24
-141 199 -25 94 -48 155 -60 155 -2 0 -15 -7 -28 -15 -21 -14 -24 -13 -40 4
-10 11 -16 24 -15 30 2 5 37 37 77 70 77 65 109 74 149 46z"/>
<path d="M5501 4019 c-75 -13 -186 -74 -251 -139 -167 -167 -198 -432 -74
-633 138 -223 420 -299 669 -182 29 14 58 32 65 40 7 8 16 15 20 15 10 0 80
70 80 79 0 5 10 16 21 27 45 40 98 202 99 299 0 116 -65 263 -158 354 -130
128 -278 172 -471 140z m115 -213 c112 -7 202 -64 250 -157 25 -51 47 -172 48
-275 1 -52 -3 -66 -28 -98 -38 -50 -85 -69 -150 -62 -214 23 -232 27 -286 61
-81 52 -124 129 -126 230 -1 39 -7 88 -13 110 -19 73 11 144 79 184 29 18 46
21 95 16 33 -2 92 -6 131 -9z"/>
<path d="M5525 3702 c-44 -21 -65 -55 -65 -105 0 -61 28 -81 168 -117 58 -15
78 -53 42 -81 -41 -31 -88 -25 -131 17 -38 37 -63 40 -75 9 -17 -44 63 -95
148 -95 92 0 148 46 148 121 0 44 -35 70 -132 99 -74 23 -83 29 -86 51 -7 56
73 70 133 24 45 -34 70 -30 70 10 0 26 -7 33 -48 54 -65 32 -122 36 -172 13z"/>
<path d="M6978 4020 c-168 -29 -345 -198 -386 -370 -21 -90 -24 -154 -9 -225
62 -296 326 -466 620 -401 132 30 288 148 341 260 103 218 64 441 -107 602
-129 122 -276 165 -459 134z m376 -291 c46 -23 58 -71 54 -229 -4 -179 -14
-194 -143 -205 -84 -7 -352 -6 -395 1 -85 16 -103 55 -101 223 2 182 9 201 87
220 62 16 463 8 498 -10z"/>
<path d="M1110 2379 c-145 -17 -302 -124 -373 -256 -108 -201 -72 -450 87
-608 115 -114 244 -161 401 -145 139 13 234 57 330 154 66 66 103 130 126 218
62 237 -41 470 -260 587 -53 28 -186 63 -226 59 -5 0 -44 -4 -85 -9z m47 -299
c18 -12 30 -11 90 9 60 21 73 22 112 11 49 -13 91 -52 123 -113 24 -48 18
-119 -15 -165 -21 -29 -261 -222 -277 -222 -3 0 -44 28 -91 61 -186 136 -219
175 -219 259 0 56 20 99 64 138 34 29 48 36 101 45 29 4 87 -7 112 -23z"/>
<path d="M2588 2379 c-199 -23 -380 -188 -424 -387 -66 -297 125 -577 426
-626 48 -8 193 10 249 31 119 44 228 140 286 254 26 49 55 176 55 236 0 54
-36 179 -67 233 -75 130 -223 238 -349 255 -27 3 -60 8 -74 9 -14 2 -60 0
-102 -5z m12 -329 c67 -46 65 -46 153 16 26 19 54 34 63 34 9 0 50 -21 90 -47
61 -38 72 -49 62 -61 -7 -8 -19 -17 -28 -21 -24 -10 -109 -65 -110 -71 0 -3
31 -23 70 -45 38 -22 70 -43 70 -47 0 -4 -10 -14 -22 -23 -45 -32 -130 -85
-136 -85 -4 0 -38 20 -75 45 -38 25 -73 45 -78 45 -4 0 -40 -21 -79 -46 -39
-25 -74 -44 -78 -42 -26 11 -152 94 -152 100 0 5 32 29 72 54 l71 46 -69 43
c-38 24 -69 48 -69 54 0 6 29 31 65 56 78 54 95 53 180 -5z m145 -323 c38 -24
70 -47 72 -52 3 -10 -138 -105 -157 -105 -11 0 -72 38 -128 79 l-33 24 73 48
c40 26 80 48 88 48 9 1 47 -18 85 -42z"/>
<path d="M2587 1946 l-68 -43 65 -42 c36 -22 69 -41 74 -41 5 0 39 20 76 43
l68 44 -67 41 c-36 23 -69 42 -73 42 -4 0 -38 -20 -75 -44z"/>
<path d="M4060 2379 c-145 -17 -302 -124 -373 -256 -108 -201 -72 -448 88
-608 113 -113 243 -160 403 -145 138 13 233 59 332 160 197 200 184 531 -27
719 -122 109 -253 149 -423 130z m-30 -314 c17 -36 30 -70 30 -76 0 -6 -11
-25 -25 -43 l-25 -33 28 -39 c31 -42 77 -81 131 -109 l35 -17 33 36 c18 20 38
36 43 36 13 0 98 -43 123 -62 17 -12 17 -19 8 -55 -12 -45 -36 -65 -95 -82
-32 -8 -51 -6 -115 14 -95 30 -152 68 -229 149 -121 130 -145 241 -69 324 14
15 32 22 59 22 37 0 39 -1 68 -65z"/>
<path d="M5538 2379 c-197 -23 -375 -183 -423 -381 -22 -89 -16 -220 13 -297
59 -152 181 -269 327 -314 82 -25 120 -28 211 -17 226 28 404 188 448 403 20
96 20 134 0 211 -43 165 -150 295 -300 362 -45 20 -71 25 -174 38 -14 2 -60 0
-102 -5z m282 -398 c50 -35 59 -87 52 -293 l-2 -48 -59 0 -59 0 -1 106 c-1 58
-6 114 -11 124 -16 29 -49 32 -76 5 -22 -22 -24 -32 -24 -125 l0 -100 -50 0
-50 0 -1 48 c0 26 -3 102 -5 170 -4 95 -2 122 8 123 37 3 94 -4 105 -12 7 -7
13 -6 18 0 9 16 66 29 100 24 17 -3 41 -13 55 -22z m-340 -167 l0 -175 -57 3
-58 3 -3 172 -2 172 52 3 c29 2 56 2 61 0 4 -2 7 -82 7 -178z"/>
<path d="M7015 2379 c-192 -20 -372 -175 -419 -361 -36 -141 -27 -245 32 -368
67 -140 200 -244 349 -275 80 -17 217 -5 293 25 357 141 443 594 163 850 -116
106 -248 147 -418 129z m165 -228 c56 -28 80 -73 80 -148 0 -63 0 -63 28 -61
60 4 71 -33 17 -59 -19 -9 -35 -23 -35 -31 0 -24 45 -76 84 -97 47 -25 46 -41
-4 -56 -27 -8 -40 -18 -40 -30 0 -14 -7 -16 -39 -12 -32 4 -50 -1 -94 -26 -68
-39 -92 -39 -172 0 -50 24 -71 29 -98 24 -28 -6 -36 -4 -39 10 -1 10 -19 23
-38 29 -45 14 -46 41 -1 64 42 21 94 83 86 103 -3 8 -19 20 -35 26 -20 8 -30
18 -30 32 0 21 7 25 47 21 21 -1 23 2 22 54 -4 146 125 224 261 157z"/>
<path d="M4450 582 c0 -5 -22 -7 -50 -4 -44 4 -52 2 -80 -26 -20 -20 -30 -40
-30 -60 0 -26 5 -31 30 -37 44 -10 126 4 152 25 l22 17 -21 36 c-14 23 -18 37
-10 40 8 2 8 5 -1 11 -7 4 -12 3 -12 -2z"/>
</g>
</svg>
