<?xml version="1.0" standalone="no"?>
<!DOCTYPE svg PUBLIC "-//W3C//DTD SVG 20010904//EN"
 "http://www.w3.org/TR/2001/REC-SVG-20010904/DTD/svg10.dtd">
<svg version="1.0" xmlns="http://www.w3.org/2000/svg"
 width="826.000000pt" height="826.000000pt" viewBox="0 0 826.000000 826.000000"
 preserveAspectRatio="xMidYMid meet">
<metadata>
Created by potrace 1.16, written by Peter Selinger 2001-2019
</metadata>
<g transform="translate(0.000000,826.000000) scale(0.100000,-0.100000)"
fill="#000000" stroke="none">
<path d="M800 8215 c-194 -104 -441 -341 -581 -560 -85 -132 -177 -323 -193
-401 -6 -27 -1 -37 39 -82 59 -66 112 -87 197 -78 176 17 313 18 374 2 142
-37 311 -13 470 67 167 84 261 172 321 302 23 52 28 76 31 176 9 245 -52 462
-160 571 -34 34 -43 38 -90 38 l-53 0 44 -22 c76 -37 130 -139 116 -217 -28
-152 -277 -395 -540 -527 -87 -43 -142 -63 -260 -91 -128 -31 -169 -46 -283
-105 -138 -71 -159 -78 -168 -53 -21 55 159 391 313 582 151 187 359 344 543
409 l65 24 -60 -1 c-49 0 -72 -6 -125 -34z m586 -277 c15 -57 19 -110 19 -243
0 -164 -1 -172 -27 -228 -75 -159 -309 -308 -532 -337 -77 -11 -99 -10 -208
11 -112 21 -128 21 -222 10 -186 -24 -214 -25 -261 -7 -67 26 -73 40 -22 56
23 7 53 20 67 30 79 55 193 100 338 131 165 36 284 92 462 218 164 116 308
280 342 389 7 23 16 42 19 42 4 0 15 -33 25 -72z"/>
<path d="M1999 8203 c-142 -74 -161 -127 -78 -218 22 -24 44 -56 48 -73 16
-56 51 -466 51 -599 0 -28 3 -58 6 -67 13 -34 222 -81 584 -132 288 -40 276
-41 488 23 155 46 598 211 624 233 21 16 21 20 10 99 -6 45 -23 135 -38 199
-34 151 -30 219 17 317 39 82 43 146 16 218 -14 34 -24 47 -39 47 -15 0 -18
-4 -13 -17 24 -58 35 -112 29 -145 -10 -63 -27 -74 -154 -98 -63 -12 -119 -26
-125 -31 -17 -16 47 -10 148 15 61 14 93 19 87 11 -5 -6 -29 -17 -52 -25 -24
-7 -52 -19 -63 -27 -19 -14 -18 -15 11 -10 18 4 43 9 58 13 37 9 33 -12 -6
-36 -34 -21 -32 -28 3 -10 18 10 19 7 19 -60 0 -40 11 -119 24 -178 30 -132
49 -263 39 -273 -5 -4 -100 -38 -213 -77 -113 -38 -281 -97 -374 -130 -93 -34
-181 -64 -197 -67 l-29 -7 0 129 c0 70 -3 253 -7 406 l-6 277 45 43 c48 44 78
93 78 125 0 36 -41 72 -141 122 -87 43 -109 50 -157 49 l-57 -1 65 -19 c82
-24 198 -80 234 -114 37 -34 29 -67 -28 -120 -23 -22 -48 -51 -55 -63 -10 -18
-12 -117 -9 -412 2 -214 0 -391 -4 -395 -21 -21 -733 98 -772 129 -10 8 -17
73 -25 258 -12 256 -25 388 -43 423 -6 11 -30 41 -54 67 -56 60 -58 94 -11
134 41 34 122 71 212 94 l70 19 -62 0 c-55 1 -72 -4 -154 -46z"/>
<path d="M4432 8234 c-29 -20 -52 -66 -46 -90 4 -14 -2 -24 -21 -34 -57 -31
-69 -114 -20 -146 l22 -15 -33 -33 c-20 -20 -37 -51 -45 -80 -8 -33 -19 -51
-38 -60 -14 -8 -25 -16 -23 -18 2 -1 -1 -16 -7 -31 -22 -57 -7 -120 31 -138
20 -8 23 -16 20 -52 -5 -54 26 -97 69 -97 23 0 31 -6 43 -34 8 -18 19 -37 25
-40 17 -11 -16 -53 -51 -65 -65 -23 -158 1 -158 40 0 17 -5 18 -39 13 -31 -5
-43 -2 -60 15 -25 25 -27 68 -5 100 16 22 16 25 0 51 -21 37 -20 46 9 76 l25
25 -20 26 c-27 35 -25 59 9 94 22 21 39 29 68 30 30 0 34 2 17 9 -55 22 -124
-28 -124 -89 0 -20 4 -42 9 -49 5 -8 1 -27 -10 -49 -16 -31 -17 -40 -5 -67 11
-27 11 -35 0 -51 -37 -50 -6 -124 63 -150 26 -10 62 -27 78 -37 20 -12 50 -18
92 -18 52 0 66 4 92 26 17 14 31 32 31 40 0 10 13 14 46 14 58 0 109 24 131
61 16 27 21 29 60 23 56 -8 97 9 124 52 16 26 27 34 50 34 28 0 62 24 70 49 6
17 55 -3 239 -93 85 -42 164 -87 175 -100 46 -54 99 -60 144 -15 25 25 31 39
31 74 0 56 -20 77 -100 105 -79 27 -185 83 -297 155 -78 52 -83 57 -83 90 0
29 -5 39 -30 53 -22 13 -30 24 -30 45 0 30 -47 87 -72 87 -23 0 -10 91 17 120
31 32 40 72 24 102 -15 30 -28 38 -59 38 -15 0 -31 5 -38 12 -17 17 -26 3 -13
-21 9 -16 18 -19 45 -14 47 7 63 -21 41 -74 -24 -58 -33 -65 -56 -42 -25 25
-55 24 -76 -1 -10 -11 -28 -20 -40 -20 -13 0 -28 -9 -35 -19 -12 -19 -12 -19
-41 1 -39 28 -108 29 -145 1 -21 -15 -54 -62 -57 -80 -1 -1 -19 -5 -42 -9 -34
-5 -45 -2 -62 15 -30 30 -27 68 10 102 17 16 40 29 50 29 23 0 24 7 5 26 -32
32 19 94 87 105 l42 6 -45 2 c-27 0 -55 -5 -68 -15z m396 -152 c15 -10 32 -66
32 -104 0 -18 5 -28 14 -28 22 0 56 -49 56 -82 0 -21 6 -31 25 -38 22 -8 49
-48 40 -58 -2 -2 -23 9 -47 25 -62 43 -72 48 -64 35 12 -20 209 -159 303 -214
74 -45 144 -74 221 -94 9 -3 7 -12 -8 -36 -11 -18 -22 -52 -26 -75 -3 -24 -8
-43 -10 -43 -2 0 -24 15 -48 34 -93 71 -337 182 -436 200 -31 5 -33 4 -14 -7
24 -14 21 -32 -8 -48 -15 -8 -24 -7 -39 7 -22 20 -21 21 -40 -31 -11 -29 -24
-45 -51 -58 -35 -17 -39 -17 -73 -1 -20 9 -37 15 -38 13 -1 -2 -9 -17 -17 -33
-34 -67 -123 -95 -172 -56 -19 15 -28 31 -28 51 0 27 -2 29 -41 27 -63 -2 -79
28 -55 107 5 16 -1 23 -26 35 -46 21 -56 57 -32 106 10 21 30 44 44 51 20 10
24 18 22 43 -7 64 70 137 134 127 32 -5 34 -4 34 24 0 20 10 40 29 59 50 50
104 52 159 5 31 -26 31 -26 34 -4 5 35 33 47 57 25 19 -18 26 -15 22 8 -6 30
20 45 47 28z"/>
<path d="M7909 8223 c-6 -16 -8 -42 -6 -60 4 -23 0 -36 -15 -50 -31 -28 -48
-68 -48 -114 l0 -42 -22 20 c-52 48 -109 67 -200 67 -53 1 -91 -3 -99 -11 -8
-8 6 -37 60 -119 39 -59 71 -110 71 -114 0 -4 -41 -5 -90 -2 -68 4 -107 0
-155 -13 -70 -18 -81 -27 -68 -49 23 -42 165 -194 257 -276 l104 -93 4 -121
c3 -99 8 -128 25 -161 30 -57 99 -121 163 -153 47 -22 68 -26 145 -27 81 0 97
3 158 32 57 27 67 36 67 57 0 29 -11 33 -30 11 -22 -26 -122 -57 -190 -58
-124 -2 -226 55 -277 157 -22 43 -27 68 -31 165 l-5 115 -176 173 c-107 106
-172 176 -166 181 15 13 98 32 142 32 117 0 294 -93 378 -199 17 -21 50 -81
74 -134 24 -53 48 -97 53 -97 6 0 35 22 65 50 29 27 78 64 108 82 40 24 55 39
55 56 0 22 -2 21 -57 -14 -32 -20 -80 -55 -107 -78 -27 -22 -51 -36 -53 -30
-2 5 -24 46 -48 89 -49 85 -49 86 -36 83 5 -2 10 2 12 7 2 6 -15 19 -37 30
-45 22 -134 97 -134 112 0 6 9 22 21 37 18 23 19 28 6 47 -19 26 -9 67 28 115
20 26 25 41 20 63 -8 39 15 93 49 110 18 10 25 20 20 30 -14 31 -16 79 -5 100
10 17 9 21 -4 21 -8 0 -20 -12 -26 -27z m-168 -240 c66 -36 75 -47 60 -79
l-11 -26 -46 47 c-25 26 -48 44 -51 41 -3 -3 12 -29 34 -58 45 -59 67 -97 60
-104 -3 -3 -14 10 -26 29 -20 34 -110 123 -166 165 l-30 23 64 -5 c41 -4 80
-15 112 -33z"/>
<path d="M684 8012 c-150 -52 -264 -213 -264 -373 0 -87 2 -89 79 -89 106 0
185 31 318 122 85 59 168 144 189 194 15 35 12 87 -4 81 -4 -1 -21 10 -37 25
-16 16 -44 35 -61 43 -43 20 -156 19 -220 -3z m222 -51 c34 -16 65 -34 68 -40
25 -40 -171 -219 -320 -294 -51 -26 -156 -57 -192 -57 -28 0 -32 29 -16 106
22 107 83 196 174 254 104 67 191 76 286 31z"/>
<path d="M6655 7975 c-80 -16 -104 -27 -143 -64 l-33 -32 19 -24 c14 -18 21
-49 27 -116 8 -105 18 -120 111 -164 160 -76 338 -69 436 17 24 21 27 32 36
128 5 58 12 113 16 123 6 11 4 17 -6 17 -7 0 -22 15 -32 34 -12 23 -38 45 -76
65 -56 30 -62 31 -176 30 -66 -1 -146 -7 -179 -14z m323 -15 c46 -21 56 -36
18 -26 -14 3 -28 2 -31 -4 -4 -6 8 -11 27 -12 18 0 39 -2 47 -2 8 -1 23 -13
33 -27 74 -98 -194 -144 -430 -74 -68 21 -126 69 -112 95 20 38 150 67 300 69
84 0 114 -3 148 -19z m-432 -110 c51 -44 149 -71 285 -77 144 -7 211 7 253 51
20 21 27 25 21 11 -4 -11 -10 -62 -13 -113 -4 -92 -5 -93 -41 -123 -69 -57
-177 -73 -299 -44 -78 18 -177 68 -196 98 -7 12 -16 59 -19 105 -4 60 -10 89
-23 103 -26 29 -6 23 32 -11z"/>
<path d="M6755 7943 c-78 -18 -97 -48 -48 -80 20 -13 47 -18 101 -18 66 0 76
2 94 25 l20 24 -27 23 c-14 13 -38 23 -53 23 -15 0 -36 2 -47 4 -11 2 -29 2
-40 -1z"/>
<path d="M6015 7910 c-187 -11 -309 -41 -344 -86 -10 -13 -24 -24 -29 -24 -23
0 -23 -23 -1 -46 18 -19 24 -42 32 -121 5 -54 13 -108 18 -121 13 -33 86 -75
196 -113 93 -31 105 -33 243 -34 128 0 151 3 200 23 30 12 73 37 95 56 l40 34
5 120 c3 76 10 126 18 134 18 18 15 28 -8 28 -12 0 -24 9 -29 23 -21 52 -122
110 -222 127 -35 5 -68 9 -74 8 -5 -1 -68 -5 -140 -8z m283 -34 c48 -21 57
-41 13 -31 -17 3 -32 2 -36 -4 -6 -11 -3 -12 75 -16 25 -2 48 -3 51 -4 4 -1
14 -13 24 -27 41 -62 -13 -103 -166 -125 -157 -23 -430 18 -529 79 -82 50 -53
94 80 123 109 23 157 27 300 25 114 -2 154 -6 188 -20z m-551 -155 c93 -46
205 -65 393 -65 193 -1 262 13 299 60 26 33 31 30 20 -8 -5 -18 -12 -75 -16
-128 -7 -102 -6 -99 -76 -146 -120 -79 -383 -67 -568 27 -84 42 -99 59 -99
117 0 83 -18 166 -39 183 -11 9 -17 19 -14 23 4 3 18 -5 32 -18 14 -13 45 -33
68 -45z"/>
<path d="M5953 7851 c-67 -17 -83 -57 -36 -88 22 -15 49 -18 139 -18 98 0 115
3 134 20 22 20 22 20 19 0 -3 -17 2 -20 40 -23 49 -4 73 10 53 30 -7 7 -30 12
-51 12 -30 -1 -40 3 -44 16 -3 10 -18 25 -35 34 -35 18 -173 29 -219 17z m6
-23 c-3 -27 2 -36 29 -46 68 -26 148 -23 159 6 8 20 -23 42 -58 42 -46 0 -43
-19 3 -22 24 -2 43 -7 43 -13 0 -15 -84 -18 -127 -5 -56 16 -49 37 17 45 68 9
116 0 147 -25 22 -19 22 -20 4 -35 -56 -43 -271 -24 -271 25 0 8 11 20 25 27
31 16 31 16 29 1z"/>
<path d="M4925 7179 c-58 -54 -94 -127 -101 -210 -12 -124 33 -212 153 -301
63 -46 91 -98 100 -183 7 -65 23 -63 23 3 0 31 -8 63 -24 93 -26 49 -66 190
-66 234 0 14 7 39 15 55 9 17 20 41 25 56 16 41 -9 18 -30 -28 -10 -24 -20
-35 -25 -29 -4 7 -9 73 -12 148 -6 143 -20 155 -25 21 l-2 -71 -43 49 -43 48
24 40 c13 23 37 51 54 64 l29 22 42 -42 c24 -23 55 -65 69 -93 24 -45 27 -60
26 -145 -1 -75 -7 -111 -28 -169 -29 -83 -28 -104 2 -44 59 115 71 264 29 357
-25 54 -94 138 -129 157 -14 8 -27 1 -63 -32z m1 -205 c27 -26 35 -45 48 -116
9 -47 25 -111 36 -143 11 -32 20 -60 20 -62 0 -12 -67 38 -102 75 -72 79 -98
176 -74 287 l8 40 16 -25 c9 -14 31 -39 48 -56z"/>
<path d="M2152 7053 c-35 -30 -38 -68 -8 -97 30 -31 69 -33 96 -6 60 60 -24
157 -88 103z"/>
<path d="M6223 7042 c-92 -33 -163 -104 -163 -163 0 -15 11 -36 26 -50 21 -20
36 -24 81 -23 l55 0 -5 -39 c-3 -22 -15 -53 -27 -70 -28 -37 -23 -41 91 -62
100 -18 155 -11 219 30 l40 25 -30 60 c-16 33 -30 62 -30 65 0 3 21 5 48 5
111 0 135 62 57 143 -61 62 -127 90 -225 94 -64 3 -98 -1 -137 -15z m252 -23
c92 -34 156 -113 128 -158 -21 -34 -143 -31 -157 4 -13 35 30 66 70 51 13 -5
14 -9 4 -21 -14 -17 -2 -20 20 -5 13 9 11 13 -9 31 -29 24 -67 19 -93 -13 -24
-27 -23 -40 7 -68 14 -13 25 -32 25 -42 0 -10 9 -36 20 -58 l20 -39 -26 -20
c-54 -42 -128 -48 -237 -20 -31 8 -37 14 -32 27 20 50 23 77 12 128 -13 62
-34 82 -67 64 -27 -15 -25 -19 7 -17 22 2 29 -3 31 -20 3 -20 -1 -23 -31 -23
-43 0 -87 33 -87 65 0 14 14 40 31 59 86 99 225 127 364 75z"/>
<path d="M7682 6924 c-31 -21 -28 -39 20 -140 40 -82 41 -88 24 -98 -35 -21
-76 -58 -88 -80 -6 -11 -14 -69 -18 -128 l-6 -106 -80 -119 c-97 -142 -124
-214 -124 -323 0 -66 4 -86 31 -138 45 -90 126 -147 251 -177 86 -20 134 -19
213 6 93 28 153 88 186 185 48 141 20 281 -92 450 -50 77 -65 109 -80 176 -27
117 -65 203 -105 236 -31 26 -33 32 -47 139 -8 61 -18 116 -22 122 -9 16 -37
14 -63 -5z m78 -265 c0 -6 -4 -19 -10 -29 -28 -53 -40 -133 -29 -200 11 -65
10 -70 -29 -186 -64 -190 -65 -299 -2 -424 47 -94 103 -137 195 -150 l50 -7
-30 -13 c-43 -20 -188 -18 -250 4 -158 56 -237 168 -222 316 9 83 36 147 103
245 98 142 104 158 104 252 0 48 6 98 14 116 21 53 106 113 106 76z m88 -61
c11 -29 29 -97 41 -152 24 -110 24 -109 91 -213 110 -167 131 -326 62 -459
-41 -80 -168 -100 -247 -39 -125 95 -158 281 -84 480 32 86 33 95 31 214 -3
122 5 172 34 219 21 33 48 14 72 -50z"/>
<path d="M3705 6875 c-198 -31 -442 -123 -534 -201 -28 -24 -32 -32 -28 -61 8
-45 89 -165 140 -207 93 -74 202 -106 367 -106 135 0 228 18 319 60 93 44 123
70 168 147 51 85 74 151 80 228 7 80 -14 107 -104 135 -77 24 -275 26 -408 5z
m322 -5 c111 -14 184 -60 167 -105 -9 -24 -79 -60 -169 -88 -105 -33 -415 -84
-415 -69 1 23 28 34 121 48 200 29 400 96 407 136 10 56 -193 70 -411 30 -153
-29 -302 -78 -447 -146 -63 -30 -117 -53 -119 -50 -8 7 40 52 67 62 15 6 45
14 67 18 35 6 37 8 16 13 l-24 6 27 13 c15 6 40 12 56 12 18 0 29 5 28 12 -2
6 36 24 87 40 198 64 388 88 542 68z m71 -59 c29 -15 23 -23 -35 -51 -122 -57
-402 -105 -675 -116 -165 -6 -165 -3 10 66 206 81 401 121 567 117 63 -2 120
-9 133 -16z m82 -147 c-11 -32 -42 -96 -67 -140 -44 -77 -51 -84 -112 -114
-104 -52 -166 -69 -286 -82 -192 -20 -321 12 -421 104 -49 45 -124 134 -124
148 0 4 17 4 38 -1 50 -11 229 -11 377 1 243 20 502 78 580 129 16 11 31 19
32 17 2 -1 -6 -29 -17 -62z"/>
<path d="M2530 6798 c-67 -66 -117 -134 -221 -300 -151 -243 -173 -262 -294
-252 -136 11 -194 -31 -125 -89 17 -14 30 -28 30 -31 0 -3 -32 -4 -71 -3 -66
2 -72 0 -95 -26 -31 -36 -30 -52 1 -73 20 -13 40 -15 85 -11 48 4 60 2 60 -9
0 -14 -25 -28 -97 -54 -18 -7 -52 -34 -77 -60 -89 -95 -102 -260 -21 -260 31
0 53 23 81 85 45 101 72 114 53 26 -8 -40 -8 -55 1 -66 34 -41 67 7 81 117 10
80 31 138 49 138 6 0 10 -17 10 -39 0 -59 18 -100 48 -108 34 -8 66 29 57 66
-6 24 -6 25 13 8 29 -26 70 -22 84 8 10 21 8 34 -9 74 l-20 49 33 -14 c39 -16
79 -6 88 24 11 33 -13 74 -69 125 l-55 48 92 112 c50 62 172 192 271 289 l180
177 -13 32 c-13 29 -61 69 -86 69 -6 0 -35 -23 -64 -52z m93 12 c52 -41 50
-46 -136 -231 -104 -104 -207 -218 -256 -284 -70 -93 -120 -145 -141 -145 -3
0 -5 17 -5 39 0 36 2 40 46 59 53 25 101 83 209 252 120 190 226 330 248 330
5 0 21 -9 35 -20z m-560 -595 c12 -12 13 -22 4 -52 -14 -51 -21 -58 -65 -71
-21 -7 -47 -21 -57 -32 -23 -25 -19 -25 30 0 21 11 40 18 43 16 2 -2 -9 -23
-24 -45 -38 -58 -23 -63 16 -5 l33 47 13 -29 14 -29 -4 41 c-4 48 -3 51 43 83
27 19 35 21 42 10 4 -8 29 -35 54 -60 55 -57 62 -99 17 -99 -15 0 -43 11 -62
25 -55 41 -64 19 -25 -60 29 -58 31 -81 10 -89 -15 -6 -33 15 -56 67 -12 27
-42 36 -54 17 -4 -6 1 -36 10 -66 11 -39 13 -60 6 -67 -19 -19 -41 12 -41 58
0 26 -7 51 -18 65 -40 49 -83 -21 -98 -157 -4 -35 -13 -71 -20 -80 -13 -17
-13 -17 -13 2 0 11 3 36 8 56 9 39 -1 69 -23 69 -20 0 -51 -39 -85 -107 -35
-71 -47 -81 -68 -60 -22 22 -19 85 6 142 35 80 61 101 178 146 29 11 55 52 47
74 -6 15 -16 17 -80 12 -57 -4 -76 -2 -85 9 -10 12 -8 19 10 37 19 19 31 22
89 20 37 -2 73 1 80 5 18 12 6 35 -28 56 -61 36 -27 64 77 65 42 1 66 -4 76
-14z"/>
<path d="M885 6574 c-321 -30 -305 -27 -430 -88 -139 -67 -425 -223 -444 -242
-30 -28 -3 -22 63 17 38 22 167 89 287 150 l219 111 127 9 c71 5 180 14 243
19 218 19 360 23 360 13 0 -24 -252 -236 -393 -332 -40 -26 -120 -76 -179
-110 l-106 -62 -160 -10 c-88 -6 -230 -9 -316 -7 -155 3 -199 -4 -109 -18 52
-8 522 2 566 12 24 6 29 2 42 -30 8 -19 15 -39 15 -44 0 -5 -42 -12 -92 -16
-493 -35 -538 -37 -558 -26 -17 9 -20 8 -20 -10 0 -26 19 -26 405 1 253 18
304 24 326 40 15 10 92 50 173 89 152 73 326 193 429 295 52 52 53 51 88 -8
14 -24 9 -28 -43 -34 -52 -7 -58 -15 -58 -73 0 -25 -4 -50 -8 -57 -4 -6 -29
-14 -57 -18 -60 -9 -85 -28 -85 -66 0 -37 -20 -47 -122 -61 -100 -14 -138 -42
-138 -103 0 -20 -6 -38 -13 -41 -7 -2 -43 0 -81 5 -91 13 -131 0 -168 -56 -39
-58 -58 -61 -129 -24 -33 17 -68 31 -78 31 -10 0 -39 -18 -64 -40 -69 -61
-112 -50 -131 33 -11 46 -49 37 -93 -23 -40 -54 -66 -63 -84 -27 -14 28 -50
67 -61 67 -4 0 -8 -7 -8 -15 0 -8 4 -15 8 -15 4 0 16 -13 25 -30 l18 -30 -25
0 c-30 0 -35 -15 -8 -23 11 -2 21 -17 25 -34 3 -16 15 -40 27 -54 l20 -24 -20
54 c-11 30 -17 57 -15 60 10 9 45 -33 45 -54 0 -13 9 -33 20 -46 24 -29 24
-25 4 35 -18 52 -18 53 10 58 14 2 22 -6 30 -32 13 -42 33 -77 39 -70 5 5 -7
44 -28 94 -7 16 -5 17 15 11 12 -4 129 -2 259 5 208 11 246 10 326 -4 50 -9
92 -16 95 -16 3 0 14 16 24 35 16 28 59 60 219 158 109 67 237 152 283 189
115 92 118 93 131 57 11 -27 8 -32 -40 -80 -56 -55 -47 -56 19 -3 37 30 43 32
49 16 4 -11 -1 -22 -17 -34 -355 -261 -600 -428 -625 -428 -7 0 -13 4 -13 8 0
5 -7 17 -16 28 -15 18 -15 17 -10 -12 l5 -31 -107 -6 c-59 -3 -172 -11 -252
-17 -140 -11 -344 -7 -464 9 -49 7 -56 6 -56 -10 0 -12 12 -19 48 -24 66 -11
544 -7 675 5 60 6 124 8 142 4 53 -10 147 47 505 307 102 74 197 141 210 150
l25 16 -24 67 -23 66 23 18 22 19 -74 61 c-85 70 -121 113 -125 153 -7 56 -54
157 -77 163 -40 11 -200 4 -442 -20z m391 -126 c-36 -39 -64 -74 -61 -76 8 -8
69 45 100 87 28 38 45 51 45 34 0 -5 -25 -37 -55 -72 -30 -36 -52 -67 -50 -70
8 -7 63 49 87 88 18 29 22 31 31 16 17 -31 -35 -87 -204 -220 -97 -77 -183
-129 -289 -176 -41 -18 -97 -46 -123 -61 -26 -15 -51 -28 -56 -28 -6 0 -41 63
-41 74 0 2 41 26 91 55 174 99 415 279 529 396 81 82 77 42 -4 -47z m236 -189
l39 -32 -50 -27 c-28 -15 -74 -48 -103 -73 -57 -48 -186 -133 -365 -241 -62
-37 -127 -84 -146 -106 l-34 -40 -94 14 c-52 8 -97 12 -101 9 -14 -8 -8 11 12
44 35 58 53 63 154 45 85 -15 89 -15 102 3 8 10 14 35 14 55 0 52 22 67 120
80 46 6 92 16 102 21 22 12 38 41 38 69 0 23 34 40 79 40 47 0 65 22 71 87 l5
58 40 3 c22 2 44 8 50 13 14 14 24 11 67 -22z"/>
<path d="M6660 6514 c-79 -17 -168 -61 -191 -94 -17 -23 -17 -52 -9 -405 l9
-380 42 -38 c58 -52 151 -94 236 -108 129 -21 280 17 356 89 24 23 27 33 27
93 l0 67 58 28 c69 35 96 77 112 177 21 119 -8 279 -57 317 -26 21 -46 22 -85
5 -16 -6 -18 0 -18 57 0 77 -24 120 -85 155 -89 50 -261 66 -395 37z m283 -20
c85 -22 134 -49 157 -87 38 -62 19 -94 -31 -53 -76 64 -263 73 -444 21 -142
-41 -143 -41 -151 -10 -12 49 67 104 195 135 61 14 209 11 274 -6z m74 -134
c79 -34 84 -46 31 -70 -66 -29 -207 -43 -309 -31 -84 11 -204 45 -214 61 -3 5
16 15 42 24 152 50 356 57 450 16z m-429 -90 c188 -58 376 -48 525 28 4 2 7
-15 7 -37 l0 -41 39 21 c51 26 73 15 98 -48 14 -37 18 -75 18 -163 0 -104 -3
-120 -25 -165 -25 -48 -35 -56 -120 -95 -11 -5 -16 -27 -18 -78 -3 -69 -4 -72
-40 -102 -78 -64 -223 -94 -344 -71 -78 16 -174 60 -209 98 l-26 28 -7 250
c-3 138 -9 293 -12 345 l-7 94 28 -22 c15 -12 57 -31 93 -42z"/>
<path d="M7143 6178 c-21 -10 -23 -19 -24 -97 -3 -140 2 -235 12 -246 17 -18
63 18 89 70 20 41 25 65 25 135 0 128 -33 172 -102 138z m74 -94 c3 -33 0 -85
-6 -116 -12 -58 -43 -109 -57 -95 -4 4 -10 68 -12 142 -5 134 -4 135 19 144
35 13 50 -7 56 -75z"/>
<path d="M475 6449 c-119 -66 -328 -199 -322 -205 2 -2 87 44 188 102 101 58
199 112 218 120 22 9 72 14 152 14 66 0 119 4 119 9 0 7 -137 21 -214 21 -20
0 -73 -23 -141 -61z"/>
<path d="M5650 6448 c-28 -46 -26 -135 4 -218 13 -36 40 -109 60 -163 22 -61
36 -116 36 -145 l0 -47 -21 43 c-12 25 -58 76 -110 123 -108 99 -134 145 -132
239 1 36 9 87 17 115 8 27 14 51 12 52 -8 8 -61 -66 -84 -116 -60 -131 5 -270
201 -429 37 -30 73 -64 78 -74 13 -25 -1 -41 -102 -119 -126 -95 -179 -170
-179 -248 0 -120 117 -231 243 -231 79 0 151 24 183 63 67 80 85 191 45 282
-12 27 -47 84 -79 128 -31 44 -56 82 -55 85 1 3 23 12 49 20 80 23 124 66 124
122 0 12 10 54 21 92 25 82 22 171 -9 241 l-20 42 -16 -37 c-19 -44 -20 -106
-5 -215 l11 -78 -52 -48 c-28 -26 -60 -52 -70 -57 -17 -9 -16 -4 7 46 21 46
25 67 21 123 -3 58 -12 83 -71 201 -54 108 -68 145 -70 187 -1 29 -5 53 -10
53 -4 0 -16 -15 -27 -32z m90 -228 c65 -136 79 -196 60 -254 -7 -21 -14 -35
-16 -33 -2 2 -11 30 -19 62 -9 32 -33 103 -55 159 -48 124 -64 196 -54 244 l7
37 8 -45 c5 -24 36 -101 69 -170z m-270 119 c-32 -112 1 -192 129 -309 82 -75
142 -153 127 -167 -6 -6 -176 138 -211 178 -55 66 -79 129 -79 204 0 48 5 80
18 103 22 41 29 37 16 -9z m249 -605 c-6 -16 -14 -112 -18 -214 -6 -149 -11
-192 -26 -222 -21 -43 -49 -49 -84 -20 -36 28 -49 132 -28 217 24 95 82 210
125 245 20 16 37 28 39 26 2 -2 -1 -16 -8 -32z m65 -12 c28 -47 28 -47 23
-177 -7 -178 -35 -263 -93 -279 l-21 -6 18 52 c15 43 18 85 19 224 0 166 6
234 19 234 3 0 19 -22 35 -48z m-216 -128 c-27 -59 -32 -84 -37 -174 l-6 -105
-32 44 c-64 86 -54 147 39 247 34 35 62 63 64 61 3 -2 -10 -35 -28 -73z m286
21 c9 -14 23 -52 32 -85 14 -55 14 -65 -2 -121 -11 -39 -29 -73 -49 -95 -41
-43 -61 -45 -40 -3 28 53 47 177 39 257 -3 39 -4 72 -1 72 2 0 12 -11 21 -25z"/>
<path d="M2710 6101 c-227 -73 -335 -205 -376 -459 -19 -124 -41 -167 -115
-232 -81 -71 -104 -115 -103 -208 l0 -73 77 -77 77 -77 103 1 c115 2 208 23
343 78 200 82 353 245 421 451 22 67 26 99 27 195 1 112 0 118 -33 184 -45 93
-148 197 -215 219 -63 22 -136 21 -206 -2z m191 -12 c121 -37 186 -174 177
-370 -5 -92 -8 -106 -46 -182 -125 -250 -384 -426 -655 -444 -106 -7 -196 2
-223 21 -12 10 -19 31 -22 75 -7 91 15 138 95 208 81 71 100 109 124 243 31
174 62 243 147 322 47 44 135 95 212 124 44 16 141 17 191 3z m219 -236 c48
-130 34 -289 -42 -442 -35 -71 -59 -103 -137 -181 -104 -104 -170 -144 -324
-195 -93 -31 -264 -60 -300 -51 -30 7 -116 86 -94 86 8 0 34 -16 57 -35 23
-19 47 -35 53 -35 7 0 -4 14 -23 30 -27 23 -31 30 -17 30 11 0 30 -9 44 -20
33 -26 55 -25 24 1 -33 28 -17 37 19 11 37 -27 49 -28 25 -2 -18 19 -17 20 2
20 10 0 28 -7 39 -15 28 -21 40 -18 19 5 -18 19 -17 20 6 20 14 0 31 -6 38
-12 10 -11 11 -10 6 3 -4 12 4 19 35 28 23 7 87 35 143 64 87 44 117 66 198
147 61 60 112 122 139 168 30 51 46 70 53 63 22 -22 30 -10 9 12 -24 25 -21
39 6 30 12 -3 13 -2 4 4 -15 11 -5 73 11 73 8 0 7 4 0 11 -7 7 -10 24 -7 38 6
28 -10 164 -22 196 -5 12 -4 16 4 11 6 -3 20 -32 32 -63z"/>
<path d="M2645 5885 c-59 -22 -112 -70 -141 -128 -22 -42 -25 -61 -22 -109 4
-50 9 -63 38 -93 19 -20 52 -40 73 -46 123 -33 297 102 297 231 0 49 -17 84
-59 124 -26 25 -41 30 -88 33 -34 1 -75 -4 -98 -12z m145 -20 c62 -32 92 -104
71 -168 -16 -46 -73 -112 -124 -141 -63 -36 -109 -41 -161 -17 -67 29 -95 97
-72 174 19 65 50 103 109 137 59 34 129 40 177 15z"/>
<path d="M2745 5516 c-82 -35 -88 -146 -9 -146 93 0 172 102 112 144 -27 19
-63 20 -103 2z m95 -21 c42 -51 -86 -147 -133 -100 -25 24 -21 53 12 86 23 22
39 29 69 29 23 0 45 -6 52 -15z"/>
<path d="M4175 5940 c-137 -27 -264 -97 -372 -205 -67 -66 -90 -98 -124 -168
-27 -56 -39 -93 -34 -106 8 -27 113 -77 195 -92 85 -17 365 -16 510 0 224 25
417 93 478 167 18 21 32 46 32 54 0 32 -77 145 -140 204 -77 72 -162 120 -251
141 -68 16 -226 18 -294 5z m153 -198 c4 -154 3 -169 -15 -191 -24 -29 -36
-23 -65 32 -23 46 -37 205 -24 291 7 43 8 45 44 48 20 2 41 0 47 -5 5 -4 11
-83 13 -175z m153 163 c26 -6 26 -7 32 -139 7 -173 27 -226 81 -212 36 9 57
74 59 177 l1 87 26 -18 c14 -10 41 -36 61 -57 87 -92 105 -136 74 -177 -14
-19 -15 -18 -15 9 0 37 -17 21 -22 -20 -2 -23 -12 -35 -46 -54 l-44 -23 7 48
c7 55 -8 43 -20 -16 -8 -36 -20 -50 -44 -50 -10 0 -12 10 -7 42 9 52 0 46 -17
-13 -9 -31 -19 -45 -33 -47 -18 -3 -20 2 -16 34 3 25 1 35 -7 30 -6 -4 -11
-20 -11 -36 0 -19 -7 -33 -19 -40 -30 -16 -33 -13 -27 28 4 20 2 44 -4 52 -7
11 -10 3 -10 -31 0 -42 -13 -69 -32 -69 -4 0 -9 24 -10 53 l-2 52 -3 -52 c-5
-62 9 -57 -221 -74 -136 -10 -196 -10 -279 -1 -111 12 -122 18 -124 62 0 14
-5 34 -10 45 -7 15 -8 6 -6 -33 4 -49 3 -52 -17 -46 -31 9 -31 10 -31 79 0 35
-3 61 -7 58 -5 -2 -8 -29 -8 -59 0 -59 -13 -69 -45 -34 -18 20 -17 22 20 96
43 84 182 242 171 194 -15 -65 -17 -129 -6 -170 14 -55 35 -80 66 -80 28 0 29
4 42 150 7 73 17 122 34 160 27 61 44 72 139 94 l58 14 -6 -122 c-7 -140 5
-211 44 -257 27 -32 63 -38 83 -14 28 34 33 322 6 386 -6 13 2 14 56 8 35 -4
75 -10 89 -14z m147 -174 c-2 -81 -8 -114 -21 -134 -10 -15 -22 -27 -28 -27
-24 0 -42 77 -47 198 l-5 124 53 -27 52 -26 -4 -108z m-640 72 c-14 -32 -24
-87 -31 -165 -9 -100 -13 -118 -28 -118 -39 0 -63 143 -39 232 8 28 22 44 58
67 26 16 50 30 54 30 4 1 -3 -20 -14 -46z"/>
<path d="M7830 5400 c-56 -14 -83 -67 -57 -116 13 -26 11 -33 -38 -138 -68
-145 -98 -228 -196 -536 -166 -525 -171 -549 -123 -597 23 -23 31 -25 77 -20
31 3 100 26 167 55 196 86 586 301 597 328 13 35 -12 27 -127 -41 -151 -90
-402 -219 -525 -270 -137 -56 -181 -51 -178 23 2 66 222 766 329 1047 21 55
39 102 41 104 1 2 13 -4 27 -12 13 -9 64 -38 113 -63 117 -63 189 -112 262
-180 56 -51 61 -54 61 -32 0 44 -143 158 -301 239 -55 28 -114 63 -130 76 -51
43 -33 103 31 103 l21 0 -22 -29 c-11 -16 -19 -37 -17 -47 4 -17 6 -16 15 6 6
14 22 36 36 49 l26 23 76 -17 c43 -9 119 -38 171 -64 88 -44 94 -46 94 -26 0
17 -18 30 -87 63 -133 63 -267 91 -343 72z"/>
<path d="M691 5307 c-14 -9 -41 -12 -70 -10 -58 6 -165 -19 -233 -53 -29 -15
-78 -53 -109 -85 -32 -31 -70 -64 -87 -73 -41 -21 -91 -81 -118 -141 -15 -31
-34 -56 -49 -63 -14 -6 -25 -16 -25 -22 0 -7 6 -8 19 0 11 5 21 10 23 10 2 0
2 -31 0 -68 -3 -49 2 -84 17 -126 l20 -57 -32 -19 c-18 -11 -35 -20 -39 -20
-5 0 -8 -7 -8 -16 0 -12 8 -11 48 10 32 17 62 24 94 24 28 -1 57 6 73 16 20
13 29 14 47 5 46 -25 195 10 278 65 35 23 38 23 54 8 12 -12 33 -17 75 -16 75
1 166 43 240 110 51 46 58 49 100 46 37 -2 60 4 116 32 39 20 76 36 84 36 22
0 85 40 109 71 23 28 23 30 6 64 -34 72 -141 135 -231 135 -25 0 -52 13 -97
45 -120 85 -249 124 -305 92z m207 -62 c55 -27 97 -59 152 -114 80 -80 110
-129 110 -180 0 -42 -61 -83 -134 -89 l-52 -4 -63 68 c-88 97 -144 204 -175
338 l-7 29 46 -5 c26 -3 81 -23 123 -43z m-265 3 c-64 -66 -102 -194 -103
-339 0 -49 13 -108 34 -161 16 -36 -150 -118 -246 -120 -88 -2 -117 58 -119
252 -1 146 17 196 95 268 92 84 203 130 315 131 l55 1 -31 -32z m87 3 c0 -28
37 -128 77 -211 24 -48 57 -94 92 -129 l55 -54 -61 -57 c-68 -65 -146 -100
-218 -100 -71 0 -97 48 -111 200 -11 133 30 265 106 339 43 41 60 45 60 12z
m487 -138 c18 -8 52 -32 75 -52 l41 -37 -19 -28 c-19 -31 -90 -86 -108 -86 -6
0 -11 20 -12 49 0 51 -32 118 -73 155 -12 11 -21 22 -21 26 0 10 76 -7 117
-27z m-1017 -103 c-12 -34 -19 -83 -20 -128 0 -75 25 -207 41 -217 42 -26 -50
-66 -98 -43 -36 17 -56 96 -49 188 7 78 60 195 107 235 18 14 33 24 35 23 1
-2 -6 -28 -16 -58z"/>
<path d="M6551 5010 c-248 -169 -446 -318 -560 -422 l-43 -41 22 -86 c32 -123
99 -308 117 -322 20 -17 167 -14 284 6 112 19 244 52 394 99 103 31 110 35
111 60 2 40 12 43 38 12 22 -28 24 -29 68 -18 82 21 273 100 276 115 2 8 -10
66 -26 128 -16 63 -42 168 -58 234 l-28 120 -57 57 c-39 37 -86 70 -141 97
-77 38 -179 71 -218 71 -9 0 -90 -49 -179 -110z m352 37 c84 -41 207 -134 207
-156 0 -8 -221 -80 -610 -200 -197 -60 -374 -106 -490 -125 l-35 -6 40 35 c58
50 279 210 510 369 234 161 222 159 378 83z m237 -184 c0 -30 35 -210 62 -315
17 -71 30 -129 27 -131 -14 -11 -251 -97 -267 -97 -10 0 -28 11 -40 25 -34 39
-84 28 -96 -20 -9 -36 -35 -49 -176 -89 -215 -62 -441 -97 -523 -82 -33 6 -37
11 -62 79 -32 86 -105 298 -105 307 0 4 43 12 96 19 53 7 155 28 227 46 151
38 680 201 777 238 72 28 80 30 80 20z"/>
<path d="M6898 4730 c-28 -29 -30 -35 -26 -87 4 -48 10 -61 37 -85 17 -15 42
-28 55 -28 54 0 105 77 91 140 -8 37 -68 90 -101 90 -15 0 -38 -12 -56 -30z"/>
<path d="M6287 4530 c-33 -26 -43 -77 -27 -137 35 -123 143 -149 187 -45 29
70 -5 160 -73 188 -44 19 -57 18 -87 -6z m102 -36 c38 -32 55 -89 40 -133 -12
-34 -20 -37 -50 -20 -26 14 -69 104 -69 147 0 27 4 32 24 32 14 0 38 -12 55
-26z"/>
<path d="M7826 5096 c-51 -31 -86 -89 -86 -144 0 -34 6 -49 34 -79 30 -33 39
-37 92 -40 71 -5 112 16 137 70 22 46 21 89 -3 136 -41 81 -102 101 -174 57z
m54 -19 c-14 -13 -32 -31 -40 -42 -16 -22 -16 -21 57 31 13 9 30 14 38 10 12
-4 7 -13 -22 -40 -44 -41 -30 -49 17 -10 17 15 32 25 34 23 42 -49 31 -133
-22 -176 -20 -16 -93 -17 -127 -1 -28 12 -55 55 -55 84 0 57 75 144 125 144
19 -1 18 -2 -5 -23z"/>
<path d="M1734 4926 c-61 -52 -98 -128 -99 -201 0 -47 -5 -67 -22 -89 -18 -22
-23 -42 -23 -85 l0 -56 -45 3 c-103 9 -146 -76 -125 -244 24 -191 119 -336
230 -351 35 -5 45 -2 68 21 l28 26 39 -20 c56 -28 103 -26 137 7 15 15 28 33
28 40 0 17 15 17 29 -1 20 -23 59 -28 96 -10 68 32 102 161 75 288 -18 89 -85
213 -151 279 -58 58 -82 67 -121 46 -17 -9 -27 -4 -69 31 -52 44 -110 72 -137
68 -12 -2 -18 5 -20 26 -4 34 4 85 18 106 8 13 12 12 25 -8 34 -48 138 -80
203 -63 39 11 41 13 30 36 -6 13 -29 37 -51 52 -35 24 -50 28 -109 28 -37 0
-68 1 -68 3 0 1 19 23 41 47 51 55 47 67 -7 21z m98 -365 c16 -21 19 -21 40
-7 37 26 57 19 117 -42 119 -122 179 -319 136 -443 -32 -89 -92 -115 -147 -63
l-27 27 -12 -29 c-34 -78 -81 -93 -157 -48 l-45 26 -24 -31 c-39 -49 -95 -38
-159 31 -69 74 -109 176 -120 307 -8 92 7 152 43 180 28 23 82 28 114 11 15
-8 19 -7 19 3 0 21 38 66 74 89 42 26 122 20 148 -11z"/>
<path d="M5302 4907 c-38 -48 -25 -113 38 -181 33 -38 53 -71 64 -109 21 -71
21 -70 -16 -47 -44 27 -128 27 -151 2 -16 -17 -16 -20 6 -39 35 -33 100 -49
144 -35 20 6 39 9 42 7 2 -3 7 -45 9 -93 l4 -87 -29 28 c-16 15 -43 31 -59 35
-77 22 -110 -29 -54 -83 26 -25 39 -30 81 -30 l50 0 -6 -32 c-3 -17 -13 -55
-21 -84 l-16 -52 -20 34 c-22 36 -39 50 -76 61 -18 5 -25 1 -35 -19 -15 -34
16 -92 61 -115 19 -9 36 -18 38 -21 6 -6 -84 -127 -95 -127 -4 0 -11 20 -13
45 -7 57 -50 117 -81 113 -45 -6 -33 -100 19 -158 l35 -39 -70 -57 c-39 -32
-69 -60 -66 -62 2 -2 38 20 80 48 41 29 77 51 79 49 2 -2 9 -14 15 -27 7 -13
27 -32 44 -42 34 -21 102 -27 112 -9 22 35 -51 109 -107 109 -16 0 -28 3 -28
6 0 4 17 25 38 48 20 22 44 52 52 65 l16 23 34 -21 c46 -28 92 -27 126 2 52
45 -2 96 -87 82 -41 -7 -42 -7 -35 16 10 34 33 119 40 150 5 25 8 26 56 21 60
-5 101 10 135 50 20 24 23 33 14 44 -25 30 -121 11 -172 -34 -9 -8 -19 -13
-21 -11 -3 2 -6 47 -7 99 l-2 95 45 6 c72 11 110 39 123 91 6 23 3 28 -18 33
-37 10 -108 -13 -137 -45 l-27 -29 -24 57 c-17 42 -23 71 -20 113 2 42 -3 67
-18 98 -24 46 -73 78 -89 58z"/>
<path d="M4679 4883 c-9 -10 -15 -50 -17 -110 l-4 -94 -44 7 c-40 6 -46 4 -72
-24 -38 -41 -55 -116 -49 -221 6 -97 20 -119 84 -128 35 -5 42 -2 65 25 l26
31 9 -32 c8 -28 13 -32 43 -32 31 0 35 3 33 25 -12 171 -14 369 -4 449 9 70 9
97 0 107 -16 19 -54 18 -70 -3z"/>
<path d="M3715 4870 c-27 -11 -59 -19 -71 -20 -50 -1 -125 -31 -136 -55 -15
-32 6 -59 39 -50 22 5 23 3 23 -59 0 -55 -3 -66 -22 -80 -22 -15 -22 -16 -5
-30 15 -11 19 -31 21 -100 3 -88 12 -111 51 -126 11 -4 29 -3 39 2 17 9 18 19
13 119 l-7 109 48 0 c28 0 57 6 68 15 19 15 18 16 -9 40 -19 17 -40 25 -63 25
l-35 0 3 57 3 57 72 17 c87 22 116 36 107 52 -29 52 -58 57 -139 27z"/>
<path d="M2831 4855 c-37 -32 -53 -78 -50 -147 1 -51 -28 -158 -43 -158 -4 0
-12 9 -18 20 -6 11 -24 27 -40 35 -32 17 -116 20 -125 5 -3 -5 1 -24 8 -43 15
-34 65 -67 104 -67 57 -1 59 -4 55 -103 -2 -51 -6 -93 -7 -95 -1 -2 -19 8 -40
22 -42 29 -93 41 -130 32 -33 -9 -32 -36 4 -70 34 -33 88 -47 135 -36 40 9 46
5 46 -26 0 -13 11 -57 24 -99 23 -72 23 -75 5 -70 -39 13 -100 7 -119 -10 -27
-24 -25 -40 6 -64 34 -27 87 -27 129 -1 l33 20 20 -32 c11 -18 34 -46 51 -62
17 -17 31 -33 31 -37 0 -4 -17 -10 -37 -14 -39 -7 -103 -62 -103 -89 0 -8 10
-20 21 -27 34 -18 92 5 131 51 l33 38 45 -32 c57 -40 120 -79 120 -73 0 2 -38
35 -85 73 -92 75 -96 85 -71 157 14 39 42 77 58 77 11 0 10 -63 -3 -97 -6 -15
-20 -38 -31 -50 -12 -13 -16 -23 -10 -23 26 0 65 71 70 126 5 59 -9 75 -46 55
-25 -13 -62 -88 -62 -124 0 -41 -16 -33 -66 35 l-46 63 30 12 c45 18 84 70 80
107 -6 60 -80 41 -116 -30 l-19 -36 -16 58 c-8 33 -18 73 -21 89 -7 30 -6 30
36 27 51 -3 103 25 118 64 14 35 -3 54 -47 54 -38 0 -66 -12 -102 -44 l-24
-21 7 89 c3 50 8 92 10 94 3 2 13 -1 24 -7 31 -16 82 -13 128 8 55 25 63 40
34 63 -30 24 -95 23 -143 -2 l-37 -20 6 27 c13 58 46 119 85 159 45 46 59 98
40 147 -13 34 -31 34 -70 2z"/>
<path d="M4221 4681 c-27 -27 -41 -83 -41 -161 1 -85 13 -136 41 -166 18 -19
32 -24 75 -24 63 0 75 10 104 87 24 64 24 163 0 215 -28 60 -138 90 -179 49z
m109 -93 c11 -24 20 -59 20 -78 0 -39 -33 -120 -49 -120 -38 0 -57 172 -25
218 22 32 32 28 54 -20z"/>
<path d="M3923 4656 c-38 -32 -58 -98 -50 -170 10 -102 50 -140 138 -134 37 3
46 8 62 36 11 19 21 55 22 82 2 26 6 58 10 69 9 29 -10 83 -40 111 -14 13 -41
24 -67 27 -37 4 -49 1 -75 -21z"/>
<path d="M616 4555 c-143 -50 -312 -284 -381 -532 -3 -8 -13 -8 -42 2 -60 21
-193 -4 -193 -36 0 -17 3 -17 39 -4 55 19 126 28 157 21 25 -7 26 -8 19 -69
-8 -67 -20 -91 -43 -82 -8 3 -50 8 -93 10 -66 5 -79 3 -79 -10 0 -8 7 -15 17
-15 15 0 15 -1 0 -18 -10 -10 -17 -29 -17 -42 l0 -24 27 26 c37 34 66 48 98
48 38 0 115 -43 160 -89 46 -48 58 -50 74 -15 14 32 89 130 123 161 31 30 90
53 131 53 111 0 187 -163 187 -400 0 -118 -10 -172 -37 -209 -28 -36 -43 -38
-43 -4 -1 104 -97 344 -160 397 -39 32 -89 35 -115 6 -18 -20 -18 -20 14 -9
44 16 72 -1 105 -61 31 -57 34 -124 11 -270 -18 -118 -38 -187 -80 -270 -18
-36 -36 -89 -40 -117 -4 -29 -10 -53 -14 -53 -4 0 -17 13 -29 30 -13 16 -29
30 -36 30 -15 0 -92 142 -125 231 -20 53 -48 167 -76 313 l-13 68 41 46 42 45
-30 -7 c-77 -17 -215 -226 -215 -323 l1 -48 23 55 c35 83 83 175 98 188 12 9
17 -7 32 -101 32 -200 133 -463 192 -502 15 -10 39 -31 52 -46 43 -52 85 -32
97 48 3 26 24 89 44 138 54 126 62 155 81 280 l16 110 22 -75 c44 -148 61
-165 121 -115 50 43 64 105 59 265 l-4 137 33 -13 c45 -19 80 -17 92 4 16 30
-8 108 -52 175 -75 110 -182 177 -263 164 l-32 -5 19 71 c11 40 38 127 60 194
44 138 48 188 19 225 -25 33 -49 38 -94 23z m68 -41 c24 -24 20 -50 -33 -216
-27 -85 -59 -195 -71 -245 -20 -85 -24 -92 -53 -104 -46 -19 -103 -74 -150
-144 -22 -33 -41 -61 -42 -63 -2 -2 -28 21 -59 50 l-56 54 29 114 c50 196 119
335 222 445 102 108 176 146 213 109z m46 -514 c58 -29 128 -108 165 -184 19
-39 30 -75 26 -79 -5 -5 -30 -2 -55 5 -45 13 -49 17 -72 73 -41 101 -82 143
-152 152 -30 4 -42 10 -42 22 0 44 55 48 130 11z"/>
<path d="M7672 4520 c-62 -38 -90 -144 -56 -216 29 -60 104 -96 168 -80 38 9
93 62 106 102 21 61 5 122 -45 171 -38 39 -47 43 -91 43 -31 0 -61 -7 -82 -20z
m165 -53 c66 -96 14 -217 -91 -217 -72 0 -126 59 -126 138 0 50 18 66 99 86
36 9 67 19 70 21 11 12 28 2 48 -28z"/>
<path d="M3295 4248 c-6 -18 -21 -275 -17 -288 7 -20 80 -11 108 13 23 20 28
34 32 84 4 59 4 60 -25 71 -19 6 -36 6 -47 0 -16 -9 -17 -4 -15 59 2 57 0 69
-14 71 -10 2 -19 -2 -22 -10z"/>
<path d="M4936 4244 c-3 -9 -6 -33 -6 -55 0 -37 -2 -39 -31 -39 -25 0 -32 -6
-45 -35 -16 -40 -19 -118 -4 -146 12 -22 50 -25 69 -6 10 10 14 9 22 -5 6 -10
16 -18 24 -18 11 0 13 31 13 160 -1 146 -2 160 -18 160 -10 0 -21 -7 -24 -16z"/>
<path d="M3801 4143 c-7 -54 -14 -110 -16 -124 -8 -51 42 -69 52 -19 l6 31 15
-23 c21 -30 32 -38 61 -38 23 0 23 0 -8 35 -17 20 -31 39 -31 42 0 4 12 20 27
35 38 40 18 59 -25 24 -16 -14 -32 -26 -34 -26 -2 0 -1 30 3 67 8 76 4 93 -21
93 -15 0 -19 -15 -29 -97z"/>
<path d="M4306 4144 c-16 -16 -21 -50 -16 -114 3 -54 16 -70 55 -70 28 0 37 6
50 30 24 47 20 116 -10 145 -28 29 -57 32 -79 9z"/>
<path d="M3476 4122 c-22 -43 -21 -114 2 -135 25 -23 48 -21 66 5 9 12 16 17
16 11 0 -15 37 -36 50 -28 5 3 3 19 -5 38 -7 17 -16 53 -20 80 -4 27 -12 47
-20 47 -7 0 -26 3 -43 6 -27 5 -32 2 -46 -24z"/>
<path d="M4046 4141 c-3 -4 -17 -6 -31 -3 -21 4 -27 -1 -41 -34 -24 -57 -10
-106 34 -119 33 -10 42 -34 22 -65 -8 -13 -13 -13 -31 -2 -28 18 -47 1 -24
-22 24 -23 58 -20 86 10 21 23 24 36 27 120 3 64 0 99 -8 109 -14 17 -26 19
-34 6z"/>
<path d="M4469 4114 c-21 -56 -23 -113 -5 -133 25 -28 54 -32 69 -11 13 19 14
19 30 0 32 -38 39 -25 32 62 -3 45 -8 85 -11 90 -8 13 -34 9 -34 -5 0 -27 -31
-117 -40 -117 -13 0 -13 45 -1 88 8 27 7 34 -10 42 -16 9 -21 7 -30 -16z"/>
<path d="M4648 4063 c-4 -85 -3 -90 27 -95 14 -2 25 8 41 42 l23 45 -1 -38
c-1 -42 11 -61 37 -55 14 2 17 17 18 83 l2 80 -30 0 c-25 0 -33 -7 -53 -45
l-23 -45 3 50 c3 45 1 50 -19 53 -20 3 -22 -1 -25 -75z"/>
<path d="M6480 3809 c-151 -25 -294 -134 -325 -247 -9 -31 -22 -72 -30 -90
-21 -46 -19 -69 9 -87 13 -9 29 -29 36 -45 18 -44 80 -95 146 -121 79 -31 284
-39 367 -15 103 30 196 141 213 256 4 25 16 59 26 75 21 34 24 85 6 103 -7 7
-23 12 -36 12 -15 0 -44 20 -80 54 -82 77 -126 97 -247 110 -16 2 -55 0 -85
-5z m152 -33 c84 -18 119 -37 182 -96 28 -26 60 -49 70 -51 38 -8 40 -31 6
-119 -71 -189 -100 -228 -195 -272 -43 -19 -67 -22 -165 -22 -177 0 -283 40
-334 126 -14 24 -34 49 -46 56 -27 16 -26 27 14 122 56 131 111 188 225 231
106 40 150 44 243 25z"/>
<path d="M1650 3641 c-147 -50 -329 -121 -450 -178 -97 -45 -240 -129 -240
-141 0 -17 45 -79 89 -121 125 -122 326 -156 478 -81 84 41 179 134 216 211
41 82 62 198 51 278 -5 35 -13 66 -19 68 -5 1 -62 -15 -125 -36z m108 -65 c6
-136 -39 -253 -132 -347 -72 -73 -152 -112 -231 -114 -33 0 -65 -4 -72 -8 -6
-4 -14 -3 -18 3 -4 6 -10 8 -15 5 -5 -3 -11 -1 -14 4 -4 5 -17 8 -31 6 -14 -1
-28 2 -31 7 -3 4 -10 6 -15 3 -5 -4 -9 -2 -9 4 0 5 -16 15 -35 21 -36 12 -175
138 -175 159 0 23 23 9 71 -44 30 -32 73 -65 107 -82 50 -25 68 -28 152 -28
89 0 100 3 173 37 53 25 96 55 136 95 77 77 101 140 101 264 0 81 2 90 18 87
14 -3 18 -16 20 -72z m-70 -34 c-3 -71 -10 -100 -32 -145 -15 -31 -32 -57 -38
-57 -6 0 -52 41 -101 91 -49 49 -91 88 -93 86 -3 -2 37 -48 89 -101 l93 -98
-35 -29 c-20 -17 -63 -43 -96 -60 -60 -29 -179 -58 -191 -46 -4 3 6 77 22 163
l29 157 170 63 c94 35 174 63 179 63 5 1 7 -39 4 -87z m-368 -54 c0 -16 -61
-292 -65 -296 -9 -10 -90 19 -138 50 -55 35 -102 91 -91 109 13 22 294 152
294 137z"/>
<path d="M7860 3653 c-151 -17 -422 -78 -598 -134 -86 -28 -93 -32 -88 -52 29
-103 56 -213 56 -231 0 -12 -31 -63 -70 -114 l-70 -93 25 -92 c14 -51 41 -150
60 -222 65 -239 113 -509 130 -740 12 -162 8 -153 89 -190 129 -59 430 -153
562 -176 91 -16 174 -7 227 24 74 43 81 57 73 136 -7 77 -13 101 -28 101 -9 0
-4 -78 7 -136 5 -25 -52 -86 -59 -63 -2 8 -18 90 -36 182 l-32 169 76 70 c64
58 76 75 76 101 0 31 0 31 -80 -48 -53 -53 -81 -74 -84 -64 -2 8 -20 88 -40
179 l-35 165 41 35 c164 140 198 173 198 191 0 12 -3 19 -8 17 -4 -1 -56 -43
-116 -93 -59 -49 -113 -90 -118 -90 -10 0 -126 409 -127 445 -1 10 14 21 37
29 51 19 158 91 231 157 69 63 60 69 85 -61 13 -68 14 -68 15 -24 0 25 -5 67
-13 92 -8 26 -12 56 -9 66 4 15 -4 24 -29 36 -18 10 -61 37 -95 61 -61 43 -62
45 -68 101 -4 32 -17 105 -29 163 l-22 105 -49 1 c-28 1 -66 -1 -85 -3z m139
-160 c13 -73 22 -135 20 -138 -15 -14 -545 -94 -648 -97 l-114 -3 -29 109
c-23 87 -26 111 -16 117 27 17 35 7 51 -63 31 -130 49 -132 22 -3 -18 82 -18
85 -6 85 4 0 14 -28 22 -62 10 -46 14 -56 17 -36 2 15 -1 43 -6 62 -16 57 2
52 20 -6 l18 -53 -6 53 c-4 48 -3 53 19 61 76 29 529 112 586 108 23 -2 26 -9
50 -134z m2 -232 c-10 -34 -41 -113 -68 -176 l-48 -114 -40 -6 c-48 -8 -414
11 -505 25 -102 16 -220 42 -220 49 0 3 27 39 60 80 34 40 65 81 70 91 7 14
30 18 127 24 147 9 344 35 471 62 23 5 23 5 -5 -33 l-28 -38 47 43 c52 46 69
54 44 20 -9 -13 -23 -36 -31 -53 l-16 -30 26 30 c15 17 38 43 51 59 37 44 40
24 4 -29 -35 -51 -84 -155 -72 -155 4 0 27 35 51 78 49 85 91 146 97 139 2 -2
-4 -32 -15 -66z m53 44 c3 -8 37 -38 76 -66 39 -29 67 -55 63 -59 -92 -81
-268 -210 -285 -210 -4 0 13 42 37 93 25 51 55 130 67 175 23 82 31 95 42 67z
m-879 -300 c123 -38 270 -57 483 -62 206 -6 212 -6 217 -27 2 -12 27 -115 53
-231 27 -115 47 -213 43 -217 -21 -23 -689 56 -718 85 -4 4 -63 203 -63 214 0
1 15 -3 32 -8 39 -11 105 -11 133 0 13 5 -12 10 -70 13 -69 5 -92 10 -102 24
-7 10 -11 19 -9 21 2 2 34 -1 71 -8 72 -12 156 -7 206 14 26 10 15 12 -83 9
-128 -3 -211 12 -216 40 -3 15 1 17 30 10 52 -11 226 -8 239 5 8 8 -18 11 -98
12 -122 2 -168 8 -181 25 -5 6 -16 30 -24 54 -19 48 -17 49 57 27z m185 -509
c114 -26 341 -56 477 -63 72 -3 137 -9 143 -13 18 -11 90 -370 75 -370 -66 0
-718 149 -737 168 -4 4 -17 59 -28 123 -11 63 -23 130 -26 148 -6 30 -5 33 12
27 10 -3 48 -12 84 -20z m185 -375 c170 -46 335 -83 480 -108 l50 -8 37 -180
c20 -99 34 -183 32 -187 -10 -15 -144 -8 -231 12 -124 29 -296 80 -310 92 -7
6 -13 23 -13 39 0 16 -5 29 -11 29 -7 0 -8 -11 -4 -30 6 -26 4 -30 -14 -30
-23 0 -33 13 -36 49 -1 14 -3 34 -3 44 -1 9 -7 17 -13 17 -7 0 -10 -17 -7 -45
2 -30 -1 -45 -9 -45 -15 0 -27 18 -28 45 -1 11 -2 35 -3 53 -1 17 -7 32 -13
32 -8 0 -10 -18 -7 -55 5 -62 -12 -72 -24 -14 -4 19 -16 70 -25 114 -18 80
-18 80 -21 33 -2 -25 4 -72 12 -104 8 -32 13 -60 11 -63 -3 -2 -15 1 -28 6
-22 10 -24 18 -30 125 -4 62 -10 142 -14 177 -6 60 -5 64 13 59 10 -3 105 -29
209 -57z"/>
<path d="M7356 2374 c3 -31 12 -77 19 -102 l13 -47 1 55 c1 46 3 52 13 35 24
-45 68 -54 68 -14 0 41 17 16 34 -51 13 -48 23 -70 34 -70 12 0 14 10 8 55 -6
51 -35 142 -55 174 -15 24 -41 5 -41 -31 0 -60 -14 -61 -43 -3 -16 32 -33 55
-43 55 -13 0 -14 -9 -8 -56z"/>
<path d="M7807 2321 c-5 -41 7 -178 16 -188 13 -13 37 8 37 33 l0 26 40 -36
c22 -20 44 -36 48 -36 33 0 15 42 -36 86 l-35 30 21 57 c17 44 19 57 8 57 -7
0 -21 -18 -31 -40 -10 -22 -21 -40 -25 -40 -4 0 -11 20 -14 45 -9 55 -22 58
-29 6z"/>
<path d="M250 3562 c0 -110 43 -340 77 -406 16 -32 52 -76 63 -76 3 0 -11 51
-31 113 -20 61 -49 171 -64 242 -27 124 -45 176 -45 127z"/>
<path d="M4343 3480 c-31 -13 -55 -54 -51 -87 3 -26 6 -28 58 -31 33 -2 71 3
97 13 37 14 43 20 38 38 -17 58 -85 90 -142 67z"/>
<path d="M6049 3100 c-45 -24 -104 -89 -124 -136 -12 -29 -55 -239 -55 -268 0
-3 -21 -17 -47 -30 -99 -50 -137 -119 -154 -277 -17 -154 -38 -185 -139 -199
-74 -10 -90 -22 -90 -65 0 -83 111 -160 230 -160 231 0 474 311 429 548 -11
59 -28 89 -77 135 l-35 32 6 83 c8 99 27 168 73 261 49 100 47 110 -17 76z
m-69 -460 c64 -32 84 -72 89 -167 5 -130 -38 -235 -141 -341 -50 -52 -127
-104 -181 -121 -119 -39 -277 26 -277 114 0 19 39 35 84 35 74 0 136 76 136
168 0 72 19 191 36 223 17 34 90 97 118 102 51 10 100 6 136 -13z"/>
<path d="M2657 3009 c-87 -12 -267 -70 -335 -109 -67 -39 -78 -62 -58 -119 13
-40 13 -48 -10 -124 -32 -106 -31 -150 2 -183 20 -21 31 -25 57 -20 l32 6 33
-117 c19 -65 51 -175 73 -245 l41 -126 70 -12 c77 -13 157 -8 252 16 123 32
219 101 269 193 l28 50 -70 188 c-38 103 -81 218 -95 255 l-26 67 29 -5 c44
-9 71 10 71 50 0 47 -46 86 -102 86 -31 0 -41 4 -45 20 -3 10 -13 22 -23 25
-10 3 -23 24 -30 51 -7 24 -16 46 -19 48 -17 11 -83 13 -144 5z m131 -24 c20
-20 -176 -113 -293 -139 -28 -6 -29 -5 -11 9 28 21 12 19 -37 -7 -42 -21 -114
-32 -151 -21 -15 4 -16 7 -5 14 8 5 19 9 24 9 6 0 3 -5 -5 -10 -8 -5 -10 -10
-5 -10 6 0 16 4 23 9 11 7 11 9 -2 14 -9 4 -24 4 -33 1 -39 -12 23 29 92 61
86 40 158 62 250 74 63 8 143 6 153 -4z m22 -49 c0 -8 2 -21 6 -29 8 -21 -94
-85 -196 -123 -110 -41 -238 -63 -251 -43 -7 12 -9 12 -9 -1 0 -13 -1 -13 -10
0 -5 8 -12 11 -16 7 -5 -4 -14 3 -21 15 -11 21 -12 21 -13 3 0 -23 -15 -10
-24 22 -6 20 -4 21 32 16 78 -10 302 50 427 115 69 36 75 37 75 18z m40 -65
c0 -65 -307 -181 -476 -181 -52 0 -75 4 -84 15 -18 21 -6 29 21 15 30 -17 152
-6 249 21 86 24 217 89 250 124 28 30 40 32 40 6z m105 -35 c42 -18 64 -58 45
-81 -17 -21 -59 -19 -99 6 -18 11 -36 17 -39 14 -3 -3 -5 -24 -3 -46 1 -23 -3
-47 -10 -55 -17 -20 -65 -17 -136 8 -59 20 -64 21 -81 4 -12 -10 -22 -36 -25
-68 -4 -28 -8 -53 -11 -55 -9 -9 -42 16 -56 41 -7 14 -22 26 -32 26 -11 0 -57
-36 -103 -80 -85 -81 -110 -93 -139 -64 -20 19 -21 92 -2 154 12 41 16 45 42
42 38 -5 41 -9 24 -35 -29 -46 -41 -78 -37 -95 4 -18 2 -21 29 43 l12 30 4
-32 c6 -55 24 -38 20 19 l-3 52 88 13 c48 7 92 15 97 18 6 4 10 -9 10 -29 0
-20 4 -36 8 -36 4 0 6 15 4 33 -4 34 -4 34 72 61 79 28 84 27 126 -8 21 -18
22 -18 10 -2 -14 18 -13 19 13 12 37 -9 27 7 -13 24 l-31 13 53 29 c29 16 60
35 68 43 18 19 51 19 95 1z m-11 -229 c20 -64 59 -176 86 -249 28 -72 50 -142
50 -154 0 -33 -90 -126 -157 -161 -82 -44 -172 -65 -280 -65 -96 0 -133 7
-133 23 0 6 22 7 59 3 39 -4 61 -3 65 5 5 8 -13 11 -58 11 -36 0 -68 5 -71 11
-5 7 5 8 32 3 26 -4 35 -3 28 4 -5 6 -23 12 -39 14 -45 5 -43 24 1 22 l38 -3
-42 11 c-25 6 -43 17 -43 25 0 8 5 11 10 8 6 -3 16 -3 23 2 8 5 2 9 -17 13
-36 6 -47 30 -14 31 l23 0 -25 10 c-42 17 -53 48 -17 50 l22 2 -23 4 c-27 5
-41 32 -22 43 9 6 7 11 -9 19 -24 13 -28 41 -6 41 8 0 15 5 15 10 0 6 -9 10
-19 10 -26 0 -37 18 -15 27 15 6 15 7 -4 14 -28 11 -28 26 1 32 20 4 19 4 -4
6 -15 0 -29 7 -32 15 -4 10 8 15 49 18 30 3 60 10 67 17 10 11 8 12 -8 8 -11
-3 -42 -8 -70 -12 l-50 -7 19 21 c11 12 29 21 42 21 13 0 26 5 30 11 4 8 -1 9
-17 4 l-24 -8 26 34 c15 19 38 40 51 48 24 14 27 13 61 -23 51 -54 68 -44 84
49 8 48 9 50 38 48 17 0 55 -8 85 -17 94 -27 144 5 125 82 -6 27 -6 27 13 7
11 -11 36 -73 56 -138z"/>
<path d="M2800 2551 c-66 -35 -215 -82 -278 -88 -34 -3 -64 -9 -67 -12 -10
-18 66 -284 89 -308 6 -6 39 -17 74 -24 50 -11 76 -11 135 -1 73 13 167 50
199 79 25 22 23 45 -16 159 -55 163 -77 214 -89 214 -7 -1 -28 -9 -47 -19z
m106 -163 c56 -164 56 -161 -8 -194 -105 -55 -274 -78 -327 -45 -10 7 -101
258 -101 279 0 5 38 13 84 20 92 13 166 36 241 75 28 14 52 23 55 20 3 -2 28
-72 56 -155z"/>
<path d="M1465 2864 c-134 -22 -251 -76 -344 -160 -108 -99 -128 -160 -67
-211 46 -38 50 -49 80 -198 33 -166 69 -291 94 -324 46 -63 194 -114 332 -114
98 0 172 19 273 69 88 45 146 99 186 174 36 68 38 39 -20 340 -29 145 -30 156
-15 188 9 18 16 41 16 52 0 46 -119 128 -240 164 -55 17 -237 29 -295 20z
m256 -38 c83 -18 186 -65 222 -102 22 -22 27 -34 22 -54 -18 -66 -15 -126 14
-298 17 -101 31 -195 31 -208 0 -86 -163 -219 -317 -259 -119 -31 -283 -13
-385 42 -61 33 -77 67 -123 253 -72 290 -65 271 -109 311 -37 35 -39 39 -28
64 18 40 99 121 164 165 61 41 145 76 213 90 65 13 225 11 296 -4z"/>
<path d="M1405 2775 c-138 -25 -243 -81 -292 -154 -31 -46 -29 -77 6 -109 17
-15 37 -43 45 -62 12 -30 91 -311 110 -394 12 -51 54 -81 131 -96 221 -42 484
26 556 144 26 43 24 107 -6 207 -51 170 -57 214 -40 281 21 85 19 103 -15 132
-55 46 -145 66 -294 65 -72 0 -162 -7 -201 -14z m424 -40 c69 -31 81 -53 62
-115 -20 -68 -13 -148 25 -270 54 -177 49 -225 -30 -285 -74 -57 -268 -103
-381 -91 -93 9 -163 27 -180 46 -9 10 -34 85 -56 166 -61 229 -86 297 -119
329 -35 33 -37 59 -11 99 65 98 268 159 507 152 107 -3 129 -7 183 -31z"/>
<path d="M3880 2848 c-59 -30 -72 -57 -67 -138 7 -114 97 -258 236 -377 97
-84 131 -101 167 -84 23 10 28 9 42 -10 20 -28 88 -59 133 -59 21 0 47 8 61
20 l25 19 23 -24 c13 -14 34 -25 47 -25 18 0 23 -5 23 -26 0 -14 5 -34 11 -45
16 -31 99 -79 136 -79 92 0 220 87 267 182 44 88 31 154 -44 221 -42 39 -64
43 -111 23 -13 -6 -15 -1 -11 22 3 21 -5 40 -30 72 -47 62 -57 66 -111 48 -44
-14 -48 -14 -64 4 -34 38 -81 60 -102 49 -11 -6 -22 -11 -26 -11 -3 0 -42 34
-86 75 -124 117 -241 165 -399 165 -59 0 -86 -5 -120 -22z m241 -12 c80 -17
146 -49 218 -107 l54 -43 -51 -12 c-67 -15 -123 -52 -162 -109 -52 -76 -70
-124 -70 -195 l0 -65 -98 100 c-62 64 -109 123 -131 163 -18 35 -31 65 -29 67
2 3 24 -23 48 -57 41 -56 117 -128 135 -128 4 0 -16 25 -44 56 -66 72 -138
173 -152 213 -36 103 94 156 282 117z m302 -196 l25 -20 -72 -72 c-74 -76
-113 -141 -123 -205 -6 -42 -38 -83 -63 -83 -47 0 -74 100 -51 185 24 89 98
172 178 201 53 18 76 17 106 -6z m127 -30 c23 -18 23 -20 5 -20 -34 0 -121
-57 -159 -103 -54 -66 -79 -131 -80 -204 0 -35 -2 -63 -5 -63 -2 0 -13 7 -23
17 -26 24 -24 105 6 168 27 58 102 144 166 191 53 39 57 40 90 14z m55 -40 c4
-6 -6 -21 -22 -33 -15 -12 -38 -32 -51 -44 l-23 -23 -6 30 c-3 17 -9 30 -14
30 -11 0 -11 -41 0 -59 12 -18 -37 -130 -69 -158 -14 -12 -20 -23 -13 -23 7 0
17 8 22 18 9 14 10 13 11 -11 0 -16 5 -37 10 -47 9 -16 5 -22 -21 -36 -61 -31
-97 10 -87 101 11 93 84 196 170 239 55 28 83 32 93 16z m181 -65 c24 -37 8
-65 -66 -115 -67 -45 -110 -98 -136 -166 -20 -54 -46 -58 -70 -12 -44 85 42
245 159 299 59 26 93 25 113 -6z m143 -120 c63 -32 67 -131 9 -212 -47 -66
-147 -133 -200 -133 -93 0 -130 106 -69 201 34 54 100 110 162 138 53 25 62
25 98 6z"/>
<path d="M488 2400 c-16 -17 -28 -36 -26 -43 3 -6 27 -15 54 -18 27 -3 37 -7
23 -7 -33 -2 -75 -35 -65 -50 4 -7 30 -12 57 -12 54 0 54 0 63 -71 l5 -46 -40
-12 c-21 -7 -54 -25 -72 -40 -30 -27 -34 -28 -52 -14 -14 10 -33 13 -63 9 -39
-5 -46 -3 -69 24 -45 54 -129 35 -159 -36 -28 -67 -12 -141 46 -207 66 -75
181 -105 331 -87 207 25 324 150 323 346 -1 103 -30 159 -105 199 -31 17 -73
45 -93 63 -30 26 -45 32 -82 32 -37 0 -51 -5 -76 -30z m262 -98 c67 -48 86
-194 40 -300 -32 -75 -111 -144 -187 -165 -162 -44 -318 -23 -390 55 -82 87
-64 228 30 228 40 0 76 -57 47 -75 -16 -10 -32 -86 -25 -114 6 -23 10 -18 25
39 21 73 46 100 95 100 42 0 79 -36 94 -93 7 -23 21 -53 31 -67 18 -23 20 -23
20 -5 0 11 -10 48 -21 81 -12 34 -19 69 -16 77 9 24 52 48 96 54 37 5 41 3 64
-33 26 -42 54 -70 63 -62 9 10 -16 58 -52 97 -32 36 -37 49 -41 105 -5 56 -3
66 17 86 25 25 68 22 110 -8z"/>
<path d="M6612 2367 c-21 -16 -52 -26 -91 -30 -222 -24 -374 -195 -358 -405
13 -178 139 -309 327 -344 152 -29 348 63 418 196 23 45 27 63 27 146 0 82 -4
103 -27 152 -22 48 -24 59 -12 69 39 32 -2 89 -65 89 -19 0 -56 10 -82 23 -44
20 -48 25 -42 47 3 14 7 36 7 50 1 22 -4 25 -34 28 -25 2 -45 -4 -68 -21z m88
-7 c0 -11 -7 -37 -16 -58 -9 -20 -25 -62 -35 -92 l-19 -55 4 75 c3 41 7 86 11
100 6 23 5 23 -10 -4 -20 -34 -36 -173 -23 -198 11 -23 6 -22 -41 2 -60 30
-102 70 -122 117 -14 32 -22 41 -36 38 -10 -3 -3 2 16 11 19 8 56 18 83 21
l48 6 0 -52 c0 -29 7 -66 16 -82 21 -42 28 -31 9 14 -29 70 -11 132 47 160 45
23 68 22 68 -3z m-323 -98 c-25 -27 -21 -76 8 -110 31 -37 89 -61 155 -63 27
-1 50 -3 50 -5 0 -1 -20 -14 -45 -28 -55 -33 -85 -86 -85 -153 0 -59 18 -97
49 -101 45 -7 62 23 91 169 6 31 17 65 25 75 14 18 14 18 15 -4 0 -56 65 -163
110 -182 36 -15 67 0 76 37 11 42 -15 74 -93 117 -66 35 -92 60 -78 74 3 3 47
11 97 18 66 9 96 10 105 2 18 -15 53 -132 53 -177 0 -151 -131 -282 -312 -313
-165 -29 -340 77 -395 237 -48 143 11 317 134 396 54 34 62 36 40 11z"/>
<path d="M3700 1934 c-8 -3 -45 -19 -81 -36 l-66 -31 -69 28 c-56 23 -79 27
-129 23 -100 -9 -196 -71 -253 -166 -16 -27 -34 -39 -83 -56 -145 -51 -267
-163 -299 -277 -8 -25 -6 -39 6 -57 15 -23 21 -24 73 -19 31 3 88 19 126 36
72 31 115 39 115 20 0 -6 -17 -31 -39 -57 -51 -61 -71 -103 -71 -146 0 -39 20
-56 67 -56 40 0 135 48 255 128 175 117 235 141 418 167 131 18 213 51 291
116 52 44 104 134 93 163 -8 22 -48 42 -99 50 -63 11 -69 17 -54 59 17 47 3
78 -44 100 -33 16 -122 22 -157 11z m159 -41 c21 -14 23 -20 17 -65 -9 -63 0
-74 72 -89 31 -7 63 -17 70 -24 23 -21 2 -67 -57 -126 -67 -67 -142 -104 -236
-119 -250 -39 -298 -57 -490 -185 -77 -52 -159 -101 -182 -110 -121 -48 -138
32 -32 159 78 95 36 118 -110 62 -138 -55 -193 -45 -168 28 34 100 149 205
278 256 l51 20 -7 -29 c-19 -87 4 -134 87 -175 62 -31 141 -34 233 -10 81 20
138 56 213 130 50 50 62 68 62 94 0 38 -19 77 -54 109 -14 14 -26 28 -26 32 0
9 88 47 137 58 47 11 110 4 142 -16z m-371 -22 c53 -27 109 -76 128 -112 13
-26 13 -32 -6 -69 -84 -164 -359 -249 -494 -152 -39 27 -41 31 -39 76 3 102
93 225 194 265 68 27 155 23 217 -8z"/>
<path d="M4774 1815 c-18 -48 -55 -85 -84 -85 -32 0 -70 -39 -70 -71 0 -67 51
-104 132 -97 66 7 126 49 157 111 21 43 22 53 12 87 -13 45 -71 100 -106 100
-19 0 -27 -9 -41 -45z m101 -17 c18 -21 25 -41 25 -70 0 -34 -6 -47 -43 -83
-72 -72 -173 -81 -214 -19 -14 22 -14 26 0 48 10 14 30 26 51 30 33 6 96 56
96 76 0 5 4 20 9 34 13 31 41 25 76 -16z"/>
<path d="M5066 1797 c-12 -13 -26 -41 -29 -64 -7 -41 -18 -53 -107 -121 -61
-47 -23 -122 62 -122 69 0 162 67 189 137 26 68 -4 163 -57 183 -33 13 -31 13
-58 -13z m79 -27 c28 -31 31 -99 6 -148 -56 -110 -220 -149 -229 -56 -3 28 1
33 35 49 57 26 82 54 98 107 8 27 17 53 20 58 10 17 51 11 70 -10z"/>
<path d="M1263 1685 c-32 -22 -58 -100 -57 -170 1 -104 62 -208 163 -276 43
-29 51 -39 51 -66 0 -40 -32 -78 -113 -136 -74 -53 -133 -116 -153 -163 -36
-86 -3 -226 71 -300 56 -56 117 -74 249 -74 83 0 107 -4 134 -20 18 -11 35
-27 38 -35 9 -22 24 -18 24 5 0 47 29 88 96 136 105 77 151 121 179 177 55
111 16 245 -94 321 -63 44 -136 66 -255 77 -71 7 -120 16 -136 27 l-25 16 32
7 c118 24 293 199 293 291 l0 38 -48 0 c-64 0 -157 -46 -211 -105 -23 -25 -43
-45 -45 -45 -2 0 -6 19 -10 42 -4 23 -20 70 -37 104 -29 62 -102 164 -117 164
-4 0 -17 -7 -29 -15z m79 -77 c74 -133 99 -232 80 -313 l-9 -40 -17 37 c-9 22
-17 68 -18 110 -1 48 -3 58 -5 31 -2 -24 -8 -43 -12 -43 -9 0 -46 128 -57 198
-4 23 -10 45 -15 48 -5 3 -7 -8 -4 -23 2 -15 7 -50 10 -77 l5 -50 -25 24 c-36
34 -31 10 8 -36 18 -21 41 -61 52 -89 10 -27 29 -72 42 -99 l25 -49 -31 22
c-130 93 -182 259 -116 379 15 28 31 52 35 52 3 0 27 -37 52 -82z m398 -105
c0 -66 -123 -199 -235 -254 -36 -17 -68 -29 -71 -26 -6 6 15 33 85 109 34 37
51 48 74 48 28 0 29 1 13 13 -17 13 -16 16 20 45 49 41 31 42 -24 2 -46 -33
-61 -38 -42 -15 8 10 9 15 2 15 -6 0 -29 -30 -51 -67 -81 -137 -96 -151 -65
-60 23 67 96 144 169 178 69 33 125 38 125 12z m-269 -347 c19 -7 75 -16 124
-19 164 -11 274 -69 326 -169 63 -122 18 -234 -137 -344 -69 -49 -124 -107
-124 -129 0 -20 -6 -19 -41 7 -26 19 -46 23 -162 28 -144 6 -169 14 -224 72
-47 49 -73 113 -73 183 0 86 37 146 133 218 86 65 137 120 137 147 0 24 -1 24
41 6z"/>
<path d="M6017 1546 c-51 -19 -101 -59 -135 -109 -147 -214 -201 -535 -121
-717 22 -50 88 -123 134 -148 40 -21 267 -28 418 -13 122 13 303 50 394 82 71
24 187 82 230 115 36 27 43 29 43 11 0 -7 5 -18 12 -25 18 -18 46 4 59 47 11
38 12 38 31 19 12 -12 30 -18 46 -16 37 4 42 51 10 98 -41 61 -41 59 -5 53 24
-3 38 0 50 12 35 34 10 79 -51 91 -45 9 -47 18 -14 56 39 44 47 72 27 92 -27
26 -60 19 -95 -20 -17 -20 -32 -35 -34 -33 -1 2 -12 20 -25 41 -54 90 -213
208 -363 270 -204 83 -509 130 -611 94z m145 -20 c47 -20 115 -96 143 -161 88
-198 33 -516 -117 -681 -84 -92 -195 -127 -281 -90 -44 19 -102 82 -126 136
-81 185 -25 516 118 698 76 96 177 133 263 98z m163 -16 c387 -80 654 -261
696 -473 14 -67 6 -131 -23 -177 -19 -32 -22 -33 -29 -15 -7 18 -8 17 -8 -7
-1 -37 -21 -47 -22 -11 -1 22 -3 20 -11 -14 -12 -55 -26 -55 -31 0 l-4 42 -1
-46 c-1 -32 -8 -52 -22 -64 -20 -18 -20 -17 -21 31 -1 31 -3 38 -6 19 -7 -58
-13 -75 -33 -85 -19 -10 -20 -8 -16 47 2 32 2 47 -1 33 -13 -72 -24 -97 -49
-109 -24 -10 -26 -10 -19 6 4 10 8 45 10 78 l4 60 -8 -55 c-9 -57 -29 -110
-42 -110 -4 0 -14 -3 -23 -6 -14 -5 -14 -3 -1 28 7 19 16 59 19 89 l6 54 -14
-60 c-21 -90 -33 -114 -61 -125 -37 -14 -37 -13 -21 18 8 15 17 46 21 67 3 22
8 51 11 65 3 18 2 21 -5 10 -5 -8 -12 -35 -15 -60 -10 -66 -37 -114 -65 -118
-20 -3 -23 -1 -16 15 19 47 35 109 34 137 0 22 -5 13 -14 -29 -17 -79 -43
-132 -69 -139 -11 -3 -22 -4 -23 -2 -2 2 6 28 18 57 24 62 49 186 47 244 0 33
-2 30 -9 -20 -14 -104 -30 -168 -59 -231 -26 -57 -30 -62 -64 -66 -20 -2 -35
-1 -34 2 2 3 22 44 45 91 51 101 73 184 72 259 l-2 55 -8 -72 c-11 -93 -40
-180 -91 -270 -37 -65 -44 -72 -77 -76 -20 -2 -38 -3 -39 -1 -2 1 9 22 26 46
77 112 119 226 126 346 l5 77 -10 -70 c-18 -137 -64 -250 -140 -352 l-40 -53
-71 0 -72 0 45 28 c147 94 249 315 249 542 0 148 -39 264 -117 350 -19 22 -33
40 -30 40 3 0 49 -9 102 -20z m799 -316 c25 -10 19 -43 -15 -81 -16 -19 -29
-42 -27 -50 2 -9 23 -23 48 -32 37 -14 45 -21 45 -41 0 -22 -5 -25 -42 -28
-50 -4 -52 -13 -18 -62 50 -72 24 -121 -36 -64 -31 29 -30 30 -45 -41 -6 -25
-15 -40 -24 -40 -25 0 -23 44 3 79 14 18 29 49 32 70 6 28 11 36 23 31 11 -4
12 -2 5 7 -6 7 -15 42 -19 78 -9 72 -9 76 1 105 7 20 6 20 -9 1 -20 -25 -21
-14 -1 24 21 41 48 56 79 44z"/>
<path d="M4575 1468 c-22 -26 -26 -39 -22 -70 11 -81 95 -148 187 -148 90 0
170 62 170 132 0 38 -42 68 -94 68 -26 0 -56 9 -81 25 -27 16 -55 24 -87 25
-40 0 -50 -4 -73 -32z m134 -11 c19 -12 64 -26 100 -32 l66 -10 3 -36 c3 -30
-2 -41 -28 -62 -63 -53 -153 -55 -223 -5 -53 38 -75 119 -39 150 36 32 62 31
121 -5z"/>
<path d="M2261 1473 c-53 -19 -129 -91 -162 -154 -19 -35 -23 -60 -24 -122 0
-76 1 -79 33 -108 44 -40 94 -39 149 1 51 37 55 31 52 -88 -1 -49 3 -88 9 -94
17 -17 102 -21 151 -8 24 6 57 25 74 41 37 38 33 69 -23 153 l-39 60 38 16
c55 25 91 73 91 121 0 49 -29 108 -70 142 -63 53 -190 71 -279 40z m224 -33
c25 -12 54 -35 66 -51 23 -33 35 -94 25 -133 -10 -39 -83 -77 -158 -83 -91 -6
-100 -9 -156 -47 -68 -47 -92 -52 -125 -26 -48 38 -53 127 -11 216 23 49 108
121 163 139 59 19 139 13 196 -15z m14 -361 c22 -39 41 -80 41 -90 0 -43 -113
-83 -185 -65 -31 8 -25 26 8 20 17 -3 16 -1 -6 8 -34 15 -30 31 9 38 20 4 25
8 16 14 -7 4 -20 5 -28 2 -10 -4 -14 -1 -12 6 3 7 20 15 39 18 22 3 30 8 21
13 -7 5 -26 6 -42 2 -22 -5 -30 -3 -30 7 0 7 -3 30 -6 50 -6 37 -6 37 32 40
22 2 53 4 70 6 29 2 34 -3 73 -69z"/>
<path d="M5120 1469 c-43 -18 -81 -62 -111 -127 -16 -35 -38 -75 -49 -89 -28
-36 -25 -57 15 -92 45 -39 98 -41 170 -7 74 34 145 128 145 191 0 35 -23 86
-48 108 -25 22 -88 31 -122 16z m118 -44 c26 -31 30 -100 8 -144 -19 -35 -87
-97 -130 -118 -43 -20 -99 -11 -132 22 l-23 23 51 99 c59 116 64 122 103 140
42 19 95 9 123 -22z"/>
<path d="M1 1217 c-1 -45 4 -65 22 -88 l22 -31 -22 -18 c-13 -10 -23 -25 -23
-34 0 -13 4 -14 24 -5 23 11 31 5 118 -84 l94 -95 -17 -49 c-28 -79 -22 -203
11 -203 4 0 14 17 20 38 20 60 72 152 87 152 7 0 44 -16 82 -35 l69 -34 -5
-99 c-7 -123 -1 -155 30 -150 15 2 26 16 39 49 20 55 38 149 28 149 -10 0 -36
-59 -50 -117 -8 -29 -18 -53 -23 -53 -10 0 -6 195 5 205 3 3 54 -11 114 -31
182 -60 243 -98 269 -169 32 -82 0 -147 -94 -194 -31 -16 -76 -34 -100 -41
-63 -17 -186 -14 -261 5 -113 29 -284 126 -389 221 l-51 46 0 -36 c0 -34 6
-40 88 -101 100 -75 260 -158 347 -180 114 -29 249 -18 376 31 46 17 47 17 82
-5 26 -16 40 -34 48 -62 17 -54 51 -89 87 -89 40 0 54 21 52 72 -4 69 -3 70
30 63 36 -8 74 13 83 45 6 23 -11 43 -55 66 l-29 15 33 22 c43 29 47 58 12 86
-28 22 -78 28 -89 11 -7 -12 -75 -13 -92 -2 -7 5 -25 33 -40 63 -41 79 -99
115 -290 179 -349 116 -485 216 -588 432 l-54 113 0 -58z m1136 -773 c2 -6
-12 -21 -32 -32 -48 -29 -46 -56 5 -82 57 -29 52 -48 -12 -52 l-53 -3 0 -67
c0 -36 -3 -69 -7 -73 -14 -14 -49 18 -74 67 l-26 51 36 36 c38 39 66 96 66
135 0 13 6 27 13 30 21 9 80 2 84 -10z"/>
<path d="M4610 1198 c-11 -18 -20 -41 -20 -51 0 -57 67 -134 135 -157 103 -34
215 37 215 137 0 33 -5 46 -26 62 -30 24 -52 26 -122 9 -45 -10 -54 -9 -91 10
-56 29 -68 28 -91 -10z m97 -19 c34 -21 35 -21 93 -4 72 22 105 15 118 -24 8
-23 6 -37 -9 -69 -49 -99 -200 -100 -266 -2 -36 52 -27 120 15 120 8 0 30 -10
49 -21z"/>
<path d="M3235 1096 c-60 -91 -73 -236 -30 -340 l24 -59 -25 -20 c-47 -37 -83
-81 -109 -135 -23 -46 -30 -53 -48 -48 -84 24 -129 28 -189 16 -135 -26 -250
-117 -314 -245 -45 -92 -82 -265 -56 -265 4 0 13 36 20 80 14 97 71 227 128
290 101 111 240 146 385 97 176 -60 291 -178 334 -344 8 -31 15 -72 15 -90 0
-24 5 -33 16 -33 15 0 16 9 10 66 -8 83 -35 159 -74 217 -39 55 -133 142 -183
167 -21 11 -40 24 -44 30 -10 16 42 103 93 155 26 26 72 60 102 74 50 24 66
26 175 26 118 0 121 -1 197 -38 133 -65 219 -174 254 -323 25 -107 3 -242 -56
-341 -14 -23 -16 -33 -7 -33 15 0 40 48 68 129 56 159 20 338 -92 465 -128
145 -335 202 -512 142 -50 -17 -70 -20 -77 -11 -9 11 -40 117 -35 123 1 1 21
-5 45 -13 71 -25 156 10 206 85 25 37 26 42 12 57 -42 42 -165 21 -234 -39
-19 -17 -34 -25 -34 -20 0 26 24 120 41 159 20 48 18 56 -6 19z"/>
<path d="M7604 1096 c-135 -64 -265 -251 -299 -430 -28 -144 -12 -320 41 -452
l27 -65 -24 -17 c-65 -46 -76 -84 -25 -90 22 -3 27 -8 23 -23 -8 -28 18 -24
31 6 6 14 16 25 21 25 5 0 12 -11 15 -25 6 -23 11 -25 62 -25 34 0 53 4 49 10
-3 6 -21 10 -39 10 -27 0 -33 5 -41 33 -11 34 -27 39 -90 22 l-30 -7 36 37
c34 35 36 39 23 64 -54 109 -79 361 -49 496 38 172 159 346 278 401 233 106
506 -152 458 -433 -7 -41 -30 -106 -58 -163 -80 -166 -227 -289 -417 -351 -55
-17 -66 -24 -55 -33 11 -8 13 -22 8 -49 -5 -32 -3 -37 13 -37 14 0 18 8 18 38
0 37 0 37 68 60 221 77 388 259 447 487 51 199 -43 407 -227 501 -78 40 -193
45 -264 10z"/>
<path d="M5355 812 c-75 -26 -134 -64 -197 -127 -52 -53 -63 -70 -83 -130 -6
-19 -7 -18 -22 6 -81 133 -287 14 -257 -149 10 -52 49 -126 80 -151 60 -47
174 -48 250 0 47 28 111 105 119 140 14 62 -60 149 -127 149 -28 0 -28 1 -14
28 27 53 99 123 167 163 72 43 88 45 70 11 -30 -56 5 -186 53 -198 34 -8 44 0
57 48 13 50 5 99 -26 155 l-23 42 46 6 c26 3 63 10 82 15 29 6 20 8 -45 9 -52
0 -98 -6 -130 -17z m-324 -251 c31 -30 48 -39 84 -44 51 -5 90 -34 99 -73 10
-38 -18 -89 -74 -133 -61 -48 -116 -65 -179 -56 -86 13 -151 116 -138 217 7
51 33 87 78 110 54 28 86 23 130 -21z"/>
<path d="M2860 420 c-8 -5 -28 -10 -45 -10 -83 -1 -202 -99 -238 -196 -23 -59
-36 -214 -18 -214 6 0 11 17 11 39 l0 39 75 -5 c53 -4 75 -3 75 6 0 7 -25 11
-75 11 -85 0 -83 -2 -59 81 39 134 127 211 259 227 114 14 188 8 240 -18 109
-53 194 -177 217 -314 12 -70 28 -89 28 -33 0 138 -104 303 -233 367 -52 26
-71 30 -141 30 -45 0 -88 -5 -96 -10z"/>
</g>
</svg>
