<?xml version="1.0" standalone="no"?>
<!DOCTYPE svg PUBLIC "-//W3C//DTD SVG 20010904//EN"
 "http://www.w3.org/TR/2001/REC-SVG-20010904/DTD/svg10.dtd">
<svg version="1.0" xmlns="http://www.w3.org/2000/svg"
 width="626.000000pt" height="626.000000pt" viewBox="0 0 626.000000 626.000000"
 preserveAspectRatio="xMidYMid meet">
<metadata>
Created by potrace 1.16, written by Peter Selinger 2001-2019
</metadata>
<g transform="translate(0.000000,626.000000) scale(0.100000,-0.100000)"
fill="#000000" stroke="none">
<path d="M4334 6081 c-45 -15 -99 -38 -120 -51 -181 -109 -302 -281 -247 -349
41 -51 183 -28 248 39 37 38 25 39 -23 1 -74 -60 -174 -63 -188 -6 -9 34 34
120 93 185 69 77 211 167 291 185 45 9 90 -2 97 -26 13 -41 -61 -169 -279
-484 -51 -74 -76 -119 -76 -138 0 -23 4 -28 16 -23 9 3 17 6 18 6 2 0 61 70
132 156 85 104 161 183 223 235 52 44 98 79 103 79 4 0 -5 -26 -20 -57 -103
-206 -123 -338 -55 -364 124 -47 355 130 465 356 34 69 39 88 36 138 -3 51 -1
57 17 57 25 0 52 17 42 26 -4 4 -13 2 -19 -4 -19 -19 -46 -14 -64 14 -11 16
-24 24 -38 22 -34 -5 -31 -35 5 -53 29 -16 31 -19 25 -58 -3 -23 -29 -89 -57
-146 -45 -91 -63 -115 -152 -205 -106 -107 -151 -136 -210 -136 -87 0 -88 69
-4 243 30 64 76 145 101 180 25 36 46 67 46 71 0 3 -13 6 -29 6 -40 0 -115
-63 -328 -277 l-173 -173 84 113 c300 404 312 533 40 438z"/>
<path d="M1497 5880 c3 -11 0 -20 -6 -20 -6 0 -10 -5 -8 -12 1 -7 -9 -13 -24
-13 -17 -1 -40 -16 -67 -44 -42 -45 -69 -50 -64 -13 3 23 -12 30 -24 10 -5 -7
-2 -8 7 -3 8 5 10 4 6 0 -14 -16 -37 -14 -37 3 0 9 -13 -2 -31 -26 -17 -24
-33 -41 -36 -38 -7 6 25 55 61 93 l30 33 -39 -20 c-22 -11 -49 -29 -62 -40
-13 -11 -27 -20 -33 -20 -17 0 -33 -41 -20 -54 6 -6 11 -6 10 -1 -5 25 1 26
20 5 25 -29 25 -33 1 -25 -10 3 -24 -1 -31 -10 -7 -8 -17 -15 -22 -15 -6 0 -4
8 3 17 13 15 11 15 -13 -1 -15 -10 -29 -13 -32 -8 -3 6 5 17 19 26 14 9 24 20
24 24 -4 21 4 33 29 46 15 8 21 15 14 16 -7 0 -24 -11 -38 -25 -31 -31 -52
-32 -65 -2 l-10 22 5 -22 c2 -13 0 -23 -5 -23 -6 0 -4 -6 3 -14 9 -10 17 -11
26 -4 7 6 16 8 19 4 10 -10 -19 -27 -36 -21 -7 3 -20 0 -28 -7 -11 -9 -17 -9
-25 3 -8 12 -9 11 -5 -2 6 -20 -11 -39 -34 -39 -18 0 -20 15 -5 39 5 8 -12 0
-37 -18 -26 -18 -47 -34 -47 -37 0 -3 20 -2 44 1 31 5 52 2 75 -9 38 -20 41
-20 68 6 12 11 27 17 33 13 6 -4 23 3 36 16 21 20 27 21 34 9 6 -10 3 -21 -9
-35 -10 -11 -16 -26 -13 -34 3 -10 0 -12 -11 -8 -9 3 -23 -3 -34 -15 -10 -12
-12 -18 -5 -14 14 8 40 -14 35 -30 -2 -6 8 -11 24 -10 19 1 31 8 38 24 5 12
13 22 18 22 4 0 5 -4 2 -10 -3 -5 2 -10 13 -10 27 0 100 -51 123 -86 17 -26
19 -27 19 -7 0 25 -62 93 -85 93 -8 0 -15 5 -15 10 0 13 17 13 26 -1 4 -7 18
3 36 25 34 42 44 44 52 14 4 -18 8 -20 18 -10 18 18 34 15 34 -7 0 -11 -4 -17
-9 -14 -4 3 -17 -3 -27 -12 -19 -17 -46 -12 -35 6 4 5 1 9 -4 9 -15 0 -14 -15
3 -29 15 -12 46 -5 46 11 0 6 6 6 14 -1 12 -10 17 -8 25 7 6 11 7 22 4 26 -3
3 2 16 13 28 10 12 13 18 7 14 -24 -14 -13 13 11 29 17 12 24 25 24 45 -1 16
-5 27 -10 24 -11 -7 -10 0 4 31 13 28 28 33 28 8 0 -9 3 -14 6 -10 3 3 3 15
-1 26 -5 17 -10 19 -26 11 -22 -12 -25 -1 -6 20 6 8 -1 4 -18 -10 -45 -38 -53
-49 -48 -70 3 -12 -1 -22 -11 -26 -9 -3 -16 -14 -16 -25 0 -10 -10 -25 -22
-33 -30 -21 -44 -20 -27 1 13 16 12 16 -14 0 l-28 -18 15 24 c15 22 15 24 -1
24 -10 0 -21 -5 -25 -11 -4 -6 -10 -7 -15 -3 -4 4 16 30 45 58 29 27 52 47 52
43 0 -3 8 0 17 7 15 12 16 12 10 -3 -3 -10 14 3 38 29 43 45 56 75 36 87 -5 4
-7 -3 -4 -14z"/>
<path d="M5478 5779 c-29 -23 -83 -71 -120 -108 -82 -79 -88 -64 -18 43 28 43
48 81 45 87 -13 20 -34 6 -85 -58 -110 -138 -183 -203 -243 -218 -22 -6 -27
-3 -32 18 -8 31 8 63 79 157 31 40 56 77 56 82 0 4 -11 8 -25 8 -35 0 -70 -40
-111 -125 -50 -103 -44 -155 18 -155 42 0 85 26 157 94 35 34 61 52 56 41 -36
-92 -39 -125 -10 -125 7 0 34 26 60 58 64 76 177 192 188 192 5 0 -1 -15 -13
-32 -44 -67 -71 -137 -68 -175 3 -34 6 -38 32 -41 20 -3 42 6 72 28 33 23 44
27 44 16 0 -9 9 -25 20 -36 26 -26 81 -26 137 1 44 21 180 145 170 155 -3 3
-34 -23 -69 -58 -78 -76 -143 -114 -181 -104 -54 13 -46 99 9 104 41 3 125 46
156 79 36 38 43 67 22 88 -48 48 -186 -43 -248 -163 -17 -33 -89 -92 -113 -92
-21 0 -16 60 8 100 12 19 41 60 65 91 24 30 44 63 44 72 0 30 -46 19 -102 -24z"/>
<path d="M458 5768 c21 -21 13 -27 -15 -13 -15 8 -31 12 -35 9 -13 -9 15 -47
46 -62 14 -7 26 -17 26 -22 0 -5 14 -15 30 -24 23 -11 30 -12 30 -2 0 7 10 21
21 32 21 19 22 19 15 -3 -9 -28 5 -30 22 -3 7 11 17 20 23 20 5 0 -5 -21 -22
-47 -18 -27 -26 -43 -18 -37 19 16 35 -3 32 -38 -1 -16 2 -28 7 -28 5 0 37
-25 71 -55 61 -54 134 -95 170 -95 9 0 24 7 33 15 8 9 22 12 32 8 16 -6 16 -7
-2 -13 -13 -5 1 -10 41 -15 69 -8 212 -48 258 -71 18 -9 70 -40 117 -70 47
-29 110 -60 140 -68 30 -8 72 -20 93 -26 66 -19 65 -4 -1 20 -40 15 -76 37
-98 59 -33 36 -45 59 -22 45 6 -4 31 -8 55 -9 38 -1 51 -8 101 -56 51 -48 52
-49 12 -6 -31 33 -39 47 -27 47 20 0 102 -31 177 -67 30 -15 57 -27 60 -27 3
-1 32 -13 65 -28 120 -53 140 -61 147 -60 4 1 20 -3 35 -10 15 -6 33 -12 38
-14 101 -26 159 -36 255 -46 146 -14 184 -14 243 -1 26 6 47 6 47 2 0 -19 19
-8 22 14 3 19 5 18 15 -10 l12 -33 -77 7 c-42 3 -75 3 -72 1 3 -3 77 -11 165
-18 110 -8 165 -16 175 -26 12 -12 12 -14 -3 -14 -12 0 -16 4 -11 13 5 8 3 8
-9 -2 -9 -7 -29 -11 -43 -8 -15 2 -40 1 -55 -3 -21 -6 -29 -5 -29 4 0 16 -39
22 -235 36 -136 10 -423 36 -497 45 -51 6 -88 16 -88 24 0 4 -8 7 -17 7 -10 1
-35 9 -55 18 -21 9 -38 14 -38 11 0 -2 17 -14 38 -25 l37 -21 -80 6 c-185 13
-220 14 -185 6 33 -7 31 -8 -23 -12 -58 -4 -98 5 -67 15 8 2 22 7 30 9 8 3 -3
6 -25 6 -57 2 -85 11 -85 29 0 13 -2 12 -14 -3 -12 -16 -18 -17 -57 -7 -121
31 -286 46 -249 22 11 -7 6 -10 -20 -11 -19 0 -50 -1 -68 -2 -48 -3 -39 11 11
16 23 3 -3 2 -58 0 -144 -7 -247 -5 -212 4 9 2 15 9 12 14 -4 5 3 9 14 9 40 0
66 98 34 128 -10 10 -17 4 -33 -28 -18 -36 -50 -55 -50 -30 0 6 5 10 10 10 12
0 50 84 49 108 0 9 -7 -4 -16 -30 -20 -59 -44 -73 -37 -22 2 20 9 44 15 56 6
11 8 22 5 25 -3 4 -11 -8 -17 -26 -10 -28 -15 -31 -39 -26 -22 5 -30 1 -44
-19 -19 -30 -20 -37 -3 -31 16 7 50 -56 41 -78 -8 -21 4 -21 30 -2 10 8 23 12
27 9 5 -2 15 9 24 27 9 17 19 29 22 26 2 -3 0 -14 -6 -25 -6 -12 -11 -29 -11
-40 0 -24 -30 -38 -42 -20 -5 10 -8 8 -8 -5 0 -10 -4 -15 -10 -12 -5 3 -7 0
-4 -9 4 -10 -5 -17 -30 -24 -40 -11 -92 -1 -88 17 1 6 -2 11 -8 11 -5 0 -10
10 -10 23 0 12 -4 28 -9 36 -7 11 -10 10 -18 -4 -7 -12 -12 -14 -17 -6 -4 7 0
24 10 39 l17 27 -28 -25 c-21 -19 -27 -21 -22 -7 10 28 -1 19 -19 -15 -16 -30
-16 -32 -1 -19 15 12 17 10 17 -13 0 -15 7 -34 15 -43 9 -8 13 -18 10 -22 -4
-3 -18 7 -31 22 -13 15 -24 25 -24 21 0 -4 7 -16 17 -26 9 -10 13 -21 9 -26
-7 -7 -26 12 -53 54 -12 18 -12 18 -6 -1 3 -11 11 -26 16 -33 15 -19 6 -22
-71 -25 -101 -4 -98 -13 6 -16 48 -1 89 -6 90 -12 2 -5 8 -7 13 -3 5 3 14 2
20 -2 8 -5 8 -8 0 -13 -7 -5 1 -16 20 -30 18 -13 29 -19 25 -12 -13 20 27 12
53 -11 14 -13 19 -15 12 -5 -12 15 -11 17 5 17 10 0 28 -10 41 -22 18 -17 22
-18 18 -6 -5 14 -2 16 15 13 13 -2 30 -11 40 -20 9 -8 19 -13 22 -10 3 3 26
-4 52 -15 57 -24 78 -26 70 -5 -4 8 -18 15 -33 15 -61 0 -92 22 -50 35 11 4
18 9 16 12 -3 2 -18 -2 -34 -11 -27 -13 -32 -13 -61 6 -38 23 -41 38 -9 39 21
0 21 1 -3 11 l-25 10 30 10 c17 5 53 11 80 13 l50 4 -32 -14 c-17 -8 -34 -19
-38 -25 -9 -15 -2 -13 50 17 27 15 45 21 41 15 -7 -11 7 -17 29 -12 6 1 30 4
55 6 l45 4 -40 -24 c-51 -33 -37 -34 18 -2 23 13 62 29 87 36 25 6 55 16 67
22 14 7 37 7 70 1 53 -11 48 -15 -44 -34 -34 -7 -61 -18 -60 -23 1 -6 -32 -27
-73 -47 -41 -20 -76 -42 -78 -49 -3 -7 45 13 105 45 70 36 119 55 134 53 19
-3 5 -13 -63 -45 -49 -23 -88 -44 -88 -47 0 -3 49 18 109 46 71 33 108 55 105
63 -8 21 14 27 46 13 41 -18 37 -42 -13 -76 -23 -16 -67 -55 -97 -86 l-55 -56
-70 24 c-121 41 -145 39 -50 -3 173 -76 360 -152 385 -156 14 -2 38 -8 53 -14
19 -7 26 -8 22 -1 -10 16 41 2 114 -31 57 -26 67 -28 102 -18 31 10 42 9 62
-4 13 -8 34 -17 48 -19 36 -5 31 -34 -6 -31 -27 2 -28 2 -7 -7 29 -12 28 -39
-1 -65 -24 -20 -42 -75 -26 -75 5 0 9 6 9 14 0 8 5 18 11 21 7 5 9 -8 7 -37
-2 -28 -7 -42 -15 -40 -9 1 -13 -11 -13 -38 0 -22 -4 -40 -9 -40 -12 0 -23 39
-22 75 2 23 0 27 -8 15 -9 -13 -11 -13 -11 1 0 8 -7 24 -16 35 -15 19 -15 19
-10 -1 27 -106 60 -157 82 -127 10 14 12 13 19 -7 3 -12 4 -41 0 -64 -5 -29
-4 -39 3 -32 10 9 11 27 10 166 0 43 6 65 24 93 30 46 47 47 19 0 -28 -46 -27
-49 9 -24 17 12 30 26 30 32 0 6 -7 5 -17 -3 -15 -13 -15 -12 -3 10 11 21 14
22 22 8 6 -11 5 -25 -3 -39 -6 -13 -8 -20 -4 -16 4 4 17 -4 30 -18 27 -29 34
-30 32 -4 -1 15 -6 18 -22 14 -17 -6 -18 -5 -6 10 20 23 51 21 46 -4 -2 -11 0
-20 5 -20 5 0 11 -9 15 -20 6 -19 8 -19 47 7 51 32 108 56 108 46 0 -5 -23
-21 -51 -36 -28 -16 -48 -31 -46 -34 3 -2 27 10 55 27 69 42 107 54 129 41 16
-9 15 -11 -7 -12 l-25 -1 25 -7 c23 -7 22 -9 -25 -30 -96 -44 -117 -52 -110
-42 11 18 -11 12 -29 -8 -10 -11 -31 -25 -47 -31 -16 -7 -28 -14 -26 -16 2 -3
21 3 42 11 20 9 38 15 40 13 2 -2 0 -24 -4 -50 -7 -42 -6 -47 13 -52 18 -5 19
-8 6 -16 -12 -8 -11 -10 8 -10 12 0 22 -4 22 -8 0 -16 91 -125 158 -191 37
-36 61 -59 55 -51 -16 18 -17 33 -1 24 18 -11 -30 55 -71 99 -19 20 -40 37
-45 37 -6 0 9 -19 32 -43 23 -23 42 -47 42 -52 0 -14 -86 73 -117 118 -26 38
-27 40 -8 53 26 19 40 18 24 -3 -8 -9 12 1 44 22 68 45 75 57 12 22 -25 -14
-45 -24 -45 -22 0 2 12 16 28 31 20 20 14 18 -24 -9 -56 -40 -89 -50 -61 -19
10 10 14 22 10 27 -5 4 -2 5 5 1 23 -13 38 11 34 54 -3 31 -8 40 -21 38 -12
-3 -15 -12 -13 -43 2 -22 0 -36 -4 -32 -5 5 -10 25 -11 46 -1 32 3 40 23 50
22 10 26 8 34 -15 6 -14 10 -37 10 -51 0 -25 1 -25 18 -10 10 10 22 14 25 10
4 -3 7 -1 7 5 0 6 7 9 15 6 9 -4 15 0 15 9 0 9 18 21 45 29 37 13 45 13 49 1
4 -9 19 -13 43 -12 21 1 48 -1 60 -5 19 -6 22 -4 16 10 -5 14 -3 16 11 11 10
-4 15 -3 11 3 -9 14 -35 13 -35 -2 0 -22 -11 0 -17 32 -4 26 2 40 27 71 17 22
25 38 18 37 -7 -2 -18 -10 -25 -18 -8 -10 -12 -11 -13 -3 0 9 -8 9 -31 1 -22
-7 -27 -13 -18 -19 7 -4 21 -3 31 2 11 6 18 6 18 0 0 -17 -31 -21 -58 -7 l-26
14 32 16 c34 17 44 30 15 19 -11 -4 -14 -3 -9 5 9 15 168 13 178 -1 4 -8 14
-8 30 0 26 12 98 3 139 -17 23 -10 32 -9 65 6 31 15 59 19 132 17 62 -2 91 1
86 8 -4 6 -43 10 -98 9 -147 -3 -174 -1 -153 11 9 5 17 17 17 26 0 9 6 24 14
32 7 9 16 30 20 46 6 24 5 28 -5 18 -17 -17 -32 -17 -23 0 4 6 -16 -13 -44
-43 -51 -55 -51 -55 -27 -63 14 -5 25 -12 25 -16 0 -6 -115 17 -129 26 -2 1
29 37 68 79 39 42 69 79 66 82 -3 3 3 14 12 24 16 18 16 18 0 12 -26 -10 -20
2 11 22 23 15 25 15 13 1 -18 -22 -3 -22 21 0 15 14 21 14 31 3 10 -10 9 -11
-2 -5 -9 5 -12 4 -7 -3 4 -7 2 -10 -7 -7 -19 8 -56 -36 -86 -102 -6 -13 -15
-23 -21 -23 -5 0 -10 -5 -10 -12 0 -7 20 8 45 32 25 24 45 52 45 61 0 9 7 22
15 29 8 7 15 9 15 4 0 -4 11 3 25 16 16 15 21 26 14 30 -15 10 50 83 67 76 8
-3 11 0 7 10 -7 19 11 18 27 -1 7 -9 19 -14 27 -11 7 3 13 1 13 -5 0 -6 5 -7
10 -4 6 3 13 -1 16 -10 5 -11 10 -13 19 -5 12 10 25 4 25 -11 0 -8 -70 -53
-84 -53 -10 -1 -104 -116 -105 -128 -1 -5 6 -8 16 -8 14 0 15 -2 1 -17 -8 -10
-18 -33 -22 -51 -5 -31 -4 -33 17 -26 28 8 45 22 59 48 10 19 10 20 -5 7 -10
-7 -17 -10 -17 -5 0 5 -9 -2 -20 -16 l-20 -25 4 28 c3 16 15 39 28 51 13 12
38 43 56 69 18 27 37 45 43 42 5 -4 17 -1 26 7 12 9 15 9 9 1 -13 -23 9 -14
44 18 19 17 27 26 18 19 -9 -6 -22 -9 -28 -5 -5 3 -10 1 -10 -4 0 -6 -4 -11
-10 -11 -18 0 -11 18 9 25 11 3 18 12 15 19 -6 15 29 28 43 16 4 -4 41 -13 81
-19 39 -7 72 -16 72 -19 -1 -4 -7 -18 -15 -32 -8 -14 -14 -33 -15 -42 0 -15 4
-16 26 -8 14 6 30 8 34 5 11 -7 30 27 30 51 0 12 -6 15 -25 11 -16 -3 -24 0
-22 7 3 10 66 10 76 1 2 -2 -4 -25 -13 -51 -9 -26 -14 -50 -11 -52 2 -3 7 1 9
9 2 8 10 31 16 52 11 35 15 38 39 33 45 -11 66 -11 66 -1 0 6 4 15 8 22 9 14
67 35 67 23 0 -5 -16 -14 -34 -20 -24 -7 -33 -16 -29 -25 4 -12 7 -12 20 0 18
18 27 19 17 3 -34 -58 -82 -101 -54 -48 10 19 10 20 -9 8 -23 -14 -36 -57 -22
-71 7 -7 7 -17 0 -30 -7 -11 -7 -17 -1 -13 5 3 15 19 22 36 8 19 16 27 20 20
4 -6 12 7 18 28 7 22 20 46 29 53 15 12 16 12 10 -5 -6 -15 -4 -17 10 -11 24
9 52 16 91 21 28 4 32 2 32 -18 0 -19 -2 -20 -11 -8 -8 12 -9 10 -4 -7 3 -12
1 -24 -5 -28 -5 -3 -10 -11 -10 -16 0 -6 4 -8 9 -4 17 10 29 -27 23 -69 -5
-44 3 -47 12 -6 3 14 10 46 16 71 l11 47 42 -10 c23 -5 59 -8 80 -6 23 2 36 0
33 -7 -23 -55 -19 -61 7 -10 l15 30 -57 2 c-105 4 -138 12 -156 40 -16 23 -16
25 -1 20 9 -4 16 -2 16 3 0 6 5 10 11 10 5 0 8 -4 5 -8 -3 -5 17 -14 45 -21
40 -10 56 -11 79 -1 17 7 41 10 55 8 14 -3 30 1 36 8 8 10 35 12 107 9 73 -4
89 -2 67 5 -38 13 -125 14 -191 2 -76 -13 -174 2 -319 48 -71 22 -166 47 -210
55 -188 35 -195 37 -195 56 0 11 5 19 10 19 6 0 9 10 9 23 -1 16 -2 18 -6 5
-7 -27 -23 -21 -23 8 0 16 4 23 12 18 7 -4 8 -3 4 5 -4 6 -2 19 5 27 9 11 9
18 2 22 -6 4 -13 17 -17 29 -6 19 -3 23 26 27 18 3 44 3 58 1 14 -2 56 -4 94
-4 64 -1 67 -2 55 -18 -12 -16 -11 -16 8 0 16 14 30 17 53 12 31 -7 31 -7 13
-28 -17 -21 -16 -21 8 1 30 26 47 18 22 -12 -16 -19 -15 -19 7 1 18 16 30 19
40 13 28 -18 35 -10 10 10 -41 31 -106 40 -283 37 -102 -1 -172 2 -178 8 -7 7
-8 4 -4 -7 4 -10 13 -18 19 -18 7 0 21 -6 31 -14 16 -12 17 -16 6 -30 -12 -14
-9 -20 11 -18 6 1 -8 -50 -23 -80 -5 -11 -3 -18 6 -22 8 -3 15 -10 15 -17 0
-6 -7 -9 -15 -5 -8 3 -15 2 -15 -2 0 -4 -11 -9 -25 -10 -29 -2 -34 14 -6 23
10 3 21 16 24 28 6 20 5 20 -7 5 -15 -21 -30 -24 -21 -5 4 6 0 4 -8 -5 -8 -10
-26 -18 -41 -18 -22 0 -26 4 -25 23 5 58 2 61 -38 37 l-38 -22 51 54 c27 29
54 60 60 68 5 9 1 7 -8 -3 -10 -11 -18 -16 -18 -11 0 4 -12 -3 -27 -17 -16
-13 -5 1 22 30 l50 54 -62 -49 c-35 -27 -63 -55 -63 -61 0 -7 -4 -13 -10 -13
-21 0 -9 29 32 76 40 47 40 48 5 15 -39 -37 -43 -34 -49 24 -2 22 -8 29 -21
27 -14 -2 -37 30 -37 54 0 10 29 3 33 -8 3 -8 6 -6 6 5 1 11 -6 17 -20 17 -12
0 -38 14 -59 30 -21 17 -41 30 -45 30 -4 0 3 -8 16 -18 21 -18 22 -20 6 -43
-10 -13 -17 -28 -17 -34 1 -5 7 1 14 14 7 13 16 19 19 14 9 -14 -27 -63 -39
-55 -6 4 -19 22 -28 40 -13 25 -22 33 -37 29 -32 -8 -21 10 13 22 37 13 35 21
-3 14 -34 -6 -60 -50 -39 -63 11 -7 16 -5 18 5 4 16 32 21 32 6 0 -6 -10 -17
-22 -26 -21 -14 -24 -14 -35 2 -12 15 -14 15 -31 0 -14 -13 -21 -14 -30 -5 -8
8 -12 9 -12 1 0 -6 14 -16 30 -22 30 -10 38 -25 20 -36 -5 -3 -10 -21 -10 -38
0 -41 -66 -119 -82 -96 -7 11 -11 11 -15 2 -8 -21 -25 -15 -18 6 4 13 0 20
-16 24 -21 6 -21 8 -7 28 21 33 40 36 36 8 -3 -21 2 -24 30 -27 39 -4 42 14 5
29 -16 7 -23 13 -15 16 6 3 12 9 12 14 0 6 -4 8 -9 5 -13 -8 -21 20 -10 31 5
5 12 22 15 37 4 24 2 26 -26 24 -16 -1 -30 -6 -30 -11 0 -4 -5 -5 -12 -1 -6 4
-8 3 -5 -3 10 -16 -15 -32 -46 -29 -15 2 -27 -1 -27 -5 0 -5 -5 -9 -11 -9 -8
0 -8 4 1 15 6 8 15 13 18 12 4 -1 8 1 10 6 5 16 1 19 -13 7 -19 -16 -33 -4
-17 12 10 10 17 10 31 1 15 -10 22 -9 31 2 7 8 19 15 26 15 8 0 14 4 14 9 0 4
-11 6 -25 3 -14 -2 -31 1 -39 7 -16 14 -79 -5 -69 -22 3 -6 1 -7 -5 -3 -6 4
-25 0 -41 -9 -37 -19 -52 -40 -22 -30 31 9 26 -2 -9 -20 -18 -9 -30 -23 -30
-35 0 -23 -6 -25 -25 -6 -8 8 -10 17 -5 22 5 5 11 19 13 31 2 13 6 26 10 30 4
3 -7 13 -24 20 -18 7 -34 11 -36 9 -3 -2 5 -7 16 -11 25 -8 27 -27 6 -58 -8
-13 -15 -44 -16 -70 -2 -47 -18 -67 -20 -24 -1 21 -1 21 -9 -3 -5 -15 -8 -18
-9 -8 -1 12 -8 16 -30 13 -24 -3 -28 -1 -24 16 3 11 9 22 14 25 14 8 10 24 -6
24 -18 0 -19 12 -3 28 8 8 9 12 1 12 -6 0 -13 -5 -15 -12 -3 -9 -26 -2 -76 20
-94 42 -105 40 -19 -4 55 -28 67 -39 67 -59 0 -14 4 -25 9 -25 5 0 7 -9 4 -20
-6 -24 -30 -22 -130 10 -44 14 -73 29 -73 38 0 7 -4 11 -9 8 -5 -3 -61 21
-125 53 -64 33 -116 56 -116 52 0 -5 18 -16 40 -26 56 -25 61 -38 8 -19 -24 9
-59 17 -78 19 -38 3 -191 43 -175 45 17 3 -108 29 -140 30 -36 1 -72 24 -55
35 9 6 9 10 -1 16 -13 8 -59 -25 -59 -42 0 -4 17 -13 38 -20 20 -6 42 -16 48
-21 8 -5 14 -3 18 7 3 8 11 15 18 14 10 0 10 -2 0 -6 -15 -6 -6 -23 11 -18 7
2 25 -12 40 -30 25 -31 26 -34 8 -32 -11 0 -18 4 -15 8 2 4 -3 12 -11 19 -8 7
-15 9 -15 5 0 -4 -7 -1 -16 6 -9 7 -26 13 -39 14 -12 0 -29 6 -38 14 -10 7
-17 11 -17 7 0 -3 -25 7 -56 24 -31 16 -80 37 -110 47 -29 9 -51 20 -48 24 3
5 42 -5 87 -21 70 -26 79 -27 58 -10 -13 11 -33 20 -45 20 -11 0 -35 9 -53 19
-19 12 -40 17 -55 14 -21 -6 -22 -5 -8 12 14 18 14 18 -11 2 -32 -21 -45 -11
-22 17 18 20 18 20 -8 4 -15 -10 -40 -15 -55 -14 -16 2 -36 4 -44 5 -11 1 -9
7 9 22 23 19 23 20 6 39 -17 19 -15 50 4 50 6 0 7 -7 4 -17 -4 -11 -3 -14 5
-9 7 4 12 14 12 21 0 8 11 22 25 31 14 9 22 20 19 25 -3 5 -22 -4 -42 -21 -42
-34 -56 -38 -50 -12 5 19 -15 45 -28 34 -4 -4 -4 2 -1 13 4 11 -8 2 -25 -20
-66 -79 -76 -90 -84 -83 -4 4 -1 14 6 23 8 10 9 15 1 15 -6 0 -11 7 -11 16 0
14 -3 14 -15 4 -18 -15 -20 1 -3 18 9 9 9 12 1 12 -7 0 -15 -4 -18 -10 -3 -5
-11 -10 -17 -10 -6 0 -3 9 7 20 22 24 9 27 -17 3 -10 -9 -18 -11 -18 -5 0 6 5
14 10 17 6 3 10 11 10 17 0 6 -10 -2 -21 -17 -18 -22 -20 -29 -8 -37 11 -8 11
-9 -3 -5 -9 4 -19 -1 -22 -10 -5 -11 -2 -14 10 -9 10 4 14 1 12 -6 -7 -21 -29
-15 -50 13 -20 26 -20 26 4 63 12 19 26 36 31 36 11 0 9 -7 -14 -51 -11 -23
-18 -43 -16 -46 8 -7 48 88 42 97 -3 5 7 11 23 14 15 4 34 17 41 29 14 22 14
22 -7 4 -30 -27 -59 -15 -59 26 0 17 5 35 10 39 6 3 -20 6 -58 4 -58 -1 -70
-5 -83 -24 -8 -12 -22 -22 -31 -23 -15 0 -15 -1 0 -7 12 -5 14 -13 8 -28 l-8
-22 -48 24 c-46 24 -76 54 -53 54 6 0 13 -7 16 -15 5 -12 10 -13 20 -4 8 6 21
9 29 5 21 -8 19 7 -3 27 -22 20 -53 24 -34 5z m1244 -762 c19 -8 58 -17 87
-19 46 -3 51 -1 35 10 -15 11 -10 13 42 11 40 -1 48 -3 24 -5 l-35 -5 35 -14
35 -15 -87 -48 c-89 -50 -204 -125 -248 -162 l-25 -21 25 14 c14 8 82 52 152
96 160 103 168 107 205 94 24 -9 25 -11 6 -11 -12 -1 -23 -5 -25 -9 -1 -5 -30
-23 -63 -42 -73 -40 -184 -120 -210 -152 -14 -16 -15 -19 -3 -9 9 7 22 10 27
7 5 -4 12 -2 16 4 4 6 10 8 14 5 5 -2 19 8 32 23 13 14 16 20 7 13 -12 -9 -18
-10 -18 -2 0 14 115 88 200 128 46 22 86 33 135 36 78 6 105 11 132 25 22 12
85 3 77 -10 -4 -6 3 -5 15 1 13 7 21 8 21 2 0 -12 -35 -32 -44 -26 -3 3 -4 2
-1 -2 3 -3 -5 -18 -17 -31 -13 -14 2 -6 32 17 71 53 85 53 23 0 -26 -23 -49
-47 -51 -53 -2 -7 -1 -7 5 -1 10 13 75 47 79 42 2 -2 -54 -47 -124 -100 -71
-53 -137 -106 -148 -119 -10 -12 6 -3 36 21 30 23 99 76 153 117 53 41 97 80
97 87 0 18 60 52 93 52 15 1 27 -3 27 -8 0 -4 5 -5 12 -1 7 4 8 3 4 -5 -4 -6
-11 -9 -15 -6 -5 2 -17 -2 -27 -10 -29 -22 -39 -18 -18 7 19 22 19 22 -13 -1
-18 -12 -33 -27 -33 -33 0 -6 6 -6 15 2 12 10 15 10 15 0 0 -9 5 -8 18 3 21
19 42 23 24 5 -7 -7 -12 -17 -12 -23 0 -5 5 -3 10 5 6 10 10 11 10 3 0 -7 7
-13 16 -13 13 0 14 -3 5 -13 -15 -19 25 -16 42 3 10 12 9 12 -4 2 -14 -10 -18
-10 -22 2 -3 8 1 20 9 26 8 7 14 17 14 23 0 5 -9 2 -19 -7 -11 -10 -25 -16
-32 -14 -7 2 1 14 19 27 19 13 32 17 32 10 0 -9 4 -8 15 1 11 9 15 9 15 1 0
-7 5 -9 13 -5 8 5 8 3 -2 -9 -7 -9 -18 -14 -23 -10 -6 3 -8 0 -6 -8 3 -8 14
-12 24 -11 17 3 16 0 -6 -25 -14 -16 -8 -12 13 9 21 21 41 38 44 38 4 0 2 -5
-5 -12 -18 -18 -15 -23 19 -25 41 -3 47 -10 23 -29 -10 -8 -13 -12 -5 -8 9 4
12 3 8 -3 -4 -6 -17 -8 -30 -6 -14 3 -29 -2 -36 -11 -8 -9 -18 -16 -23 -16
-16 0 -151 -106 -201 -158 l-49 -50 -66 6 c-37 2 -69 6 -70 8 -2 1 16 20 40
41 23 21 72 65 107 98 37 35 72 60 85 60 16 0 20 5 18 23 -2 12 2 22 9 22 7 0
9 3 6 6 -7 7 -115 -84 -218 -184 -65 -63 -67 -64 -110 -58 -41 5 -40 4 16 -14
33 -11 76 -20 95 -20 43 0 79 -19 40 -21 -14 -1 9 -7 50 -13 77 -12 114 -10
104 5 -3 5 6 9 20 9 14 0 26 5 26 10 0 6 -13 10 -30 10 -33 0 -38 11 -14 30 8
8 20 23 26 34 6 12 -7 5 -31 -18 -22 -22 -43 -37 -46 -34 -3 3 10 19 30 36 29
23 36 35 30 51 -4 13 -2 21 5 21 6 0 9 -4 5 -9 -3 -5 -2 -12 3 -15 4 -2 48 27
96 65 49 39 95 68 102 65 8 -3 20 4 28 16 19 26 47 17 43 -14 -2 -12 -10 -24
-17 -26 -7 -3 -10 0 -6 7 13 21 0 11 -44 -35 -29 -29 -38 -43 -25 -38 11 3
-17 -31 -62 -76 -46 -45 -81 -86 -78 -90 3 -5 -6 -7 -21 -5 -28 3 -20 -10 11
-18 11 -3 -18 -6 -65 -7 -64 -2 -78 -4 -55 -10 18 -5 -27 -8 -117 -7 -80 1
-145 4 -142 8 2 4 -5 9 -16 12 -32 8 -23 27 13 28 31 2 31 2 4 6 -18 3 -27 9
-24 17 3 8 -5 18 -19 25 -20 9 -26 8 -30 -4 -4 -8 -11 -15 -16 -15 -6 0 -6 6
1 14 9 11 8 17 -8 28 -20 14 -20 15 17 50 20 20 47 41 60 47 12 7 20 16 16 22
-4 6 -12 5 -22 -3 -10 -6 1 8 23 32 39 42 37 41 -45 -20 -47 -35 -96 -74 -110
-86 -25 -23 -27 -24 -98 -10 -39 7 -74 11 -77 8 -3 -3 -5 0 -5 6 0 6 5 14 10
17 6 3 10 15 10 27 0 17 -3 18 -14 8 -8 -6 -13 -17 -10 -25 7 -18 -12 -28 -33
-16 -12 6 -20 5 -29 -7 -13 -17 0 -22 -229 72 -49 21 -130 51 -179 69 l-88 31
28 24 c16 12 43 33 59 44 26 18 25 15 -10 -22 -45 -49 -35 -43 74 48 44 36 85
62 98 62 24 0 31 -15 11 -23 -7 -2 -10 -7 -7 -11 4 -4 17 3 29 16 16 16 24 19
27 10 4 -10 8 -10 19 -1 8 7 17 9 20 6 3 -3 -42 -37 -100 -77 -58 -40 -106
-74 -106 -77 0 -6 13 2 132 84 84 57 115 73 143 73 19 0 35 -3 35 -7 0 -5 -26
-25 -58 -45 -76 -49 -192 -165 -162 -163 24 2 122 94 114 107 -4 5 2 8 12 6
11 -2 19 3 19 11 0 8 6 16 14 19 9 3 11 0 5 -9 -6 -11 -4 -11 10 0 11 9 20 11
24 5 4 -5 12 -10 18 -9 17 0 84 39 84 48 0 5 -11 2 -25 -7 -14 -9 -30 -14 -35
-11 -5 3 -11 1 -15 -5 -3 -5 -11 -10 -17 -10 -6 0 -4 8 5 18 10 10 14 22 11
25 -4 4 1 9 10 13 9 3 13 10 10 15 -7 12 -2 11 38 -5z m1244 -135 c-10 -11
-28 -18 -41 -16 -25 2 -95 -47 -95 -68 0 -23 -89 -83 -117 -78 -6 1 -15 -4
-19 -10 -5 -9 -2 -10 12 -5 13 5 7 -5 -16 -30 -33 -35 -33 -36 -5 -15 17 12
53 40 80 61 54 43 80 53 50 20 -17 -18 -17 -20 -2 -14 9 3 17 4 17 2 0 -2 -37
-39 -82 -83 -45 -44 -77 -73 -70 -65 10 14 5 16 -32 15 -24 0 -51 -7 -61 -15
-17 -14 -18 -13 -12 3 8 21 -5 16 -40 -16 -15 -14 -23 -16 -23 -7 0 7 55 68
123 136 67 68 116 124 109 124 -7 0 -10 5 -7 10 4 6 15 10 24 8 20 -3 51 18
51 35 0 5 -9 2 -20 -8 -11 -10 -23 -15 -27 -12 -3 4 -1 7 5 7 7 0 12 4 12 10
0 5 -8 7 -17 3 -11 -4 -15 -2 -10 3 11 11 87 15 87 4 0 -4 -32 -36 -70 -71
-140 -127 -165 -151 -153 -147 7 2 67 54 133 116 66 62 120 109 120 105 0 -5
-16 -24 -35 -43 -19 -19 -35 -37 -35 -41 0 -4 19 12 43 37 40 43 97 66 97 40
0 -6 5 -3 11 7 5 9 15 17 21 17 6 0 3 -9 -6 -19z"/>
<path d="M1559 5602 c9 -7 10 -12 2 -16 -6 -4 -11 -4 -11 1 0 4 -5 0 -11 -10
-6 -10 -8 -21 -5 -24 3 -4 6 -1 6 5 0 7 5 12 10 12 18 0 2 -52 -24 -79 -13
-14 -28 -43 -31 -63 -8 -40 -21 -50 -28 -20 -4 13 -5 12 -6 -5 0 -13 7 -27 18
-33 28 -14 30 -13 41 16 9 23 11 24 26 9 10 -9 13 -22 9 -33 -7 -16 -8 -15
-14 2 -6 16 -9 16 -13 5 -6 -16 11 -44 27 -44 6 0 30 -13 54 -30 29 -19 57
-30 82 -30 36 0 37 1 22 17 -9 10 -11 18 -5 18 6 0 14 -5 17 -10 4 -6 11 -8
16 -4 5 3 18 0 27 -6 9 -7 -3 6 -28 29 -43 41 -44 42 -16 36 15 -3 42 -9 60
-12 17 -3 40 -13 50 -22 11 -9 16 -11 13 -4 -5 7 -1 11 11 10 10 0 19 -9 19
-20 1 -12 -3 -17 -12 -13 -8 3 -17 2 -19 -3 -3 -4 0 -8 7 -8 7 0 18 -2 26 -4
8 -3 14 5 16 19 1 13 7 27 14 31 6 4 -45 16 -114 26 -69 10 -125 21 -125 25 0
10 -47 30 -71 30 -25 0 -37 33 -32 85 10 88 8 118 -7 122 -12 4 -12 3 -1 -5z"/>
<path d="M5602 5410 c-12 -5 -25 -18 -28 -27 -3 -10 -10 -26 -15 -35 -12 -23
-11 -31 1 -23 6 4 10 -12 10 -40 0 -52 -19 -54 -21 -2 -2 29 -2 30 -6 5 -2
-15 3 -40 11 -57 13 -25 16 -75 16 -299 0 -333 -3 -345 -99 -447 -137 -143
-130 -103 -143 -860 -10 -642 -4 -945 26 -1157 16 -114 45 -173 109 -220 72
-52 103 -62 202 -60 63 2 86 -1 75 -8 -25 -17 17 -12 100 11 176 48 217 120
241 429 10 136 13 978 4 1490 -3 188 -33 273 -137 386 -59 64 -78 126 -90 288
-8 100 -8 196 1 339 6 111 8 204 4 208 -5 4 -28 4 -53 -1 -59 -12 -160 -11
-185 1 -15 7 -12 8 15 4 53 -7 191 11 201 27 13 21 5 32 -32 45 -40 14 -174
16 -207 3z m313 -971 c22 -27 39 -54 38 -59 -2 -6 1 -10 6 -10 5 0 12 -7 15
-16 3 -8 2 -12 -4 -9 -6 3 -10 -1 -10 -9 0 -28 -19 -27 -47 5 -15 17 -27 35
-26 40 2 4 -6 11 -17 14 -11 4 -20 10 -20 15 0 5 -11 4 -25 -2 -14 -6 -25 -16
-25 -22 0 -6 -4 -5 -9 3 -5 7 -14 10 -21 6 -9 -6 -9 -10 1 -16 10 -6 6 -8 -11
-7 -14 2 -24 -2 -23 -8 1 -6 -11 -24 -27 -39 -48 -46 -34 -9 18 48 26 28 40
47 32 40 -8 -6 -27 -9 -42 -6 -34 6 -28 21 6 18 17 -2 23 1 20 10 -8 20 52 48
92 43 18 -2 30 0 28 4 -3 4 -2 8 3 8 4 -1 26 -23 48 -51z m23 -157 c2 -12 8
-20 13 -17 5 4 9 -34 10 -92 1 -65 4 -88 9 -68 4 18 9 -29 11 -124 3 -117 1
-155 -8 -158 -19 -8 -15 -33 5 -33 16 -1 16 -1 0 -11 -13 -7 -18 -23 -18 -59
0 -28 -4 -50 -10 -50 -5 0 -10 20 -10 44 0 45 0 45 -28 35 -15 -5 -39 -24 -54
-43 l-27 -34 24 -4 c13 -3 29 0 36 6 6 6 3 -2 -7 -18 -10 -16 -20 -24 -22 -17
-7 21 -56 12 -75 -14 l-18 -25 73 -1 c73 -1 73 -1 28 -11 -72 -16 -74 -17 -61
-31 11 -15 9 -15 -46 -18 -57 -2 -154 -84 -185 -156 -6 -15 -19 -37 -27 -47
-9 -11 -10 -16 -3 -12 15 9 17 -20 2 -29 -15 -10 -12 -55 5 -61 8 -4 12 -10 9
-15 -3 -5 2 -9 11 -9 9 0 13 -5 10 -11 -4 -6 0 -9 10 -7 24 4 30 -16 11 -35
-8 -8 -18 -27 -22 -42 -4 -18 -9 -23 -14 -14 -8 13 -7 31 5 62 6 14 3 16 -11
11 -11 -4 -16 -4 -12 1 4 4 -2 19 -12 33 -11 13 -20 33 -20 42 0 10 -6 23 -13
29 -9 6 -15 36 -16 74 -2 57 1 65 26 87 l27 25 -17 -27 c-19 -31 -24 -138 -6
-138 6 0 8 9 4 20 -13 42 5 96 48 141 59 63 110 129 100 129 -5 0 -14 -5 -21
-12 -9 -9 -12 -8 -12 7 0 15 -8 11 -40 -20 -22 -22 -52 -56 -67 -77 -14 -21
-29 -38 -34 -38 -4 0 -7 18 -7 40 0 22 4 40 9 40 5 0 9 -5 9 -10 0 -16 21 -2
74 48 25 24 51 40 57 37 10 -7 49 21 49 35 0 12 -92 11 -109 -2 -9 -7 -3 2 13
20 30 32 49 45 26 17 -10 -12 -10 -15 0 -15 15 0 50 29 50 42 0 17 -54 7 -77
-14 -19 -18 -23 -19 -23 -5 0 9 5 19 11 23 8 4 7 9 -2 15 -24 15 -39 10 -40
-13 -1 -15 -4 -11 -8 11 -3 19 -12 36 -18 39 -10 3 -13 -16 -14 -70 -1 -55 -3
-65 -9 -43 -4 17 -8 -54 -10 -170 -1 -110 -5 -251 -8 -313 -4 -61 -4 -112 0
-112 4 0 5 -7 2 -15 -4 -8 -1 -15 5 -15 6 0 11 19 12 43 l1 42 10 -38 c9 -33
8 -40 -8 -52 -10 -7 -22 -11 -26 -9 -5 3 -8 1 -8 -5 0 -10 -56 15 -65 30 -4 5
1 9 9 9 11 0 16 10 17 33 0 30 1 30 10 9 6 -15 5 -31 -2 -44 -8 -15 -8 -19 0
-14 6 4 11 1 11 -6 0 -11 2 -10 9 0 11 18 12 262 2 327 l-8 50 -2 -47 c0 -26
-5 -50 -11 -53 -7 -4 -10 63 -10 194 0 122 4 202 10 206 5 3 15 16 20 28 10
20 10 20 -3 5 -8 -10 -17 -18 -21 -18 -10 0 -7 38 5 45 6 4 8 13 6 19 -11 27
8 33 73 25 142 -18 211 -19 276 -4 36 8 72 15 80 15 17 0 18 -31 2 -49 -11
-11 -10 -13 5 -7 11 3 30 9 43 12 13 3 24 13 24 22 0 12 -3 13 -12 4 -18 -18
-38 -14 -38 8 0 22 15 27 23 8 3 -8 6 -6 6 5 1 9 6 17 11 17 6 0 10 32 10 75
0 44 4 75 10 75 6 0 6 7 -2 19 -9 15 -8 22 5 36 21 20 22 29 2 21 -8 -3 -15 0
-16 7 0 7 -3 5 -7 -4 -6 -14 -9 -15 -19 -4 -10 11 -9 15 7 20 18 6 20 15 20
86 0 46 -4 79 -10 79 -5 0 -10 9 -10 19 0 11 -5 21 -12 23 -6 2 -8 10 -4 17
11 18 30 8 34 -17z m-207 -827 c5 4 5 -5 -1 -20 -13 -34 -13 -35 5 -29 20 8
19 -10 0 -26 -9 -7 -13 -15 -10 -18 2 -3 18 10 34 29 40 46 51 30 12 -17 -17
-21 -28 -40 -26 -42 6 -7 94 87 111 118 l14 25 0 -28 c0 -16 -4 -26 -10 -22
-5 3 -10 1 -10 -6 0 -7 -19 -36 -41 -66 -23 -29 -39 -56 -37 -59 3 -3 29 25
57 61 58 73 75 84 40 26 -41 -68 -142 -191 -158 -191 -11 0 -10 5 5 23 60 67
55 80 -6 15 -21 -23 -41 -40 -45 -37 -3 4 12 33 34 65 22 32 38 61 35 63 -2 2
-5 2 -7 0 -54 -70 -96 -117 -100 -112 -7 6 22 55 40 66 7 4 13 13 13 18 0 6
10 19 23 30 12 10 17 18 10 19 -7 0 -35 -27 -63 -61 -27 -33 -50 -53 -50 -45
0 8 5 18 10 21 6 3 10 14 10 23 0 13 -5 12 -20 -8 -14 -18 -20 -21 -20 -9 0 8
11 26 25 39 23 22 30 20 25 -5 -1 -5 2 -6 7 -2 4 5 7 11 5 13 -2 3 8 14 21 24
14 11 27 30 30 42 5 18 -1 15 -29 -16 -19 -22 -34 -35 -34 -29 0 5 9 18 20 28
11 10 20 23 20 29 -1 6 -19 -9 -41 -33 -50 -56 -60 -48 -14 12 19 25 35 50 35
56 0 5 15 22 33 37 27 23 33 24 35 10 2 -9 8 -14 13 -11z m181 -227 c-6 -6 -8
-32 -5 -59 3 -32 1 -49 -6 -49 -6 0 -11 7 -11 16 0 8 -4 12 -10 9 -5 -3 -10 1
-10 10 0 9 4 14 9 11 5 -3 11 4 14 15 6 21 5 21 -19 -2 -13 -12 -24 -30 -24
-40 0 -25 -17 -33 -23 -12 -4 15 -5 14 -6 -3 -1 -18 -28 -39 -56 -42 -5 -1
-10 8 -10 21 0 16 -5 21 -20 19 -65 -8 -94 -8 -89 -1 8 14 -10 10 -34 -7 -12
-8 -22 -11 -22 -5 0 5 8 15 18 20 9 6 13 11 8 11 -15 0 16 30 31 30 13 0 13
-3 3 -15 -10 -12 -10 -15 0 -15 7 0 19 8 26 17 7 10 16 15 20 11 4 -4 1 -14
-6 -23 -19 -23 0 -18 27 7 17 15 23 17 23 7 1 -11 2 -11 10 1 5 10 22 15 44
15 40 -2 81 29 106 79 14 28 15 28 18 7 2 -13 -1 -28 -6 -33z m117 -159 c-7
-15 -8 -24 -2 -26 23 -8 -5 -70 -32 -72 -5 -1 -9 -17 -8 -36 1 -19 -3 -33 -8
-30 -5 4 -9 17 -9 31 0 20 -5 24 -32 26 -51 3 -160 -5 -233 -17 -52 -9 -115 4
-115 23 0 15 14 17 135 16 115 -2 137 1 146 15 8 13 11 13 16 2 5 -11 7 -11
14 0 5 8 9 9 9 3 0 -7 15 -9 43 -4 47 7 67 16 67 31 0 6 -4 7 -10 4 -16 -10
-12 18 6 43 20 29 30 22 13 -9z"/>
<path d="M4645 5203 c4 -10 9 -35 12 -56 3 -21 10 -40 14 -43 14 -8 10 -47 -8
-69 -15 -19 -15 -14 3 29 6 15 2 14 -18 -5 -21 -21 -22 -26 -10 -41 17 -21 52
-31 46 -13 -3 7 -1 16 4 19 5 3 12 -4 15 -15 3 -12 10 -18 16 -15 10 6 26 -11
26 -28 0 -5 7 -11 15 -13 13 -4 13 -3 0 6 -9 7 -11 11 -3 11 7 0 16 -6 20 -13
4 -7 20 -18 36 -24 30 -14 37 -47 11 -57 -9 -3 -28 -6 -44 -6 -73 0 -169 -72
-194 -147 -42 -122 0 -235 107 -290 100 -50 237 -29 301 48 25 30 26 30 53 12
39 -26 168 -25 207 0 15 10 25 21 23 24 -3 2 6 21 19 40 23 35 29 52 24 82 -3
25 11 64 20 55 14 -15 -8 -105 -35 -141 -15 -18 -21 -33 -16 -33 21 0 64 85
69 133 9 95 -42 198 -117 236 -49 26 -116 37 -125 22 -4 -6 -14 -11 -22 -11
-9 0 -12 5 -8 11 4 8 -3 9 -24 4 -28 -6 -33 -2 -56 32 -20 30 -26 52 -27 103
-1 36 -4 60 -6 53 -2 -7 -10 -10 -17 -7 -7 3 -20 -12 -31 -36 -10 -22 -22 -40
-27 -40 -11 0 -10 5 7 48 13 33 13 35 0 17 -15 -18 -25 -51 -39 -120 l-6 -30
16 28 c23 42 28 27 8 -23 -13 -33 -19 -39 -24 -26 -3 10 -10 18 -15 19 -11 2
-11 23 0 86 6 33 5 42 -4 37 -6 -4 -11 -13 -9 -19 3 -19 -13 -77 -21 -77 -7 0
-77 44 -90 56 -3 3 1 10 7 16 7 7 12 20 12 29 0 10 8 20 18 22 11 3 8 5 -9 6
-28 1 -50 27 -81 94 -17 36 -37 54 -23 20z m607 -341 c20 -15 38 -31 38 -36 0
-5 -7 -3 -15 4 -12 10 -15 9 -15 -6 0 -16 -1 -16 -12 -2 -7 8 -22 18 -33 22
-18 7 -18 5 3 -17 12 -13 20 -26 16 -29 -3 -4 2 -18 11 -32 12 -18 15 -36 11
-57 -5 -27 -4 -28 9 -15 17 16 20 66 5 66 -5 0 -10 7 -10 15 0 13 4 14 20 5
27 -14 25 -49 -4 -101 -14 -24 -22 -47 -19 -52 3 -5 0 -7 -8 -5 -8 3 -14 15
-13 27 0 18 -1 19 -15 7 -23 -20 -58 -26 -58 -10 0 7 4 11 9 8 15 -9 8 13 -8
27 -13 10 -17 10 -25 -2 -7 -12 -9 -12 -9 1 0 8 9 21 21 28 l20 13 -20 33
c-25 40 -25 40 -3 62 16 17 16 18 0 11 -21 -7 -23 3 -5 23 10 12 9 12 -8 0
-37 -27 -56 -50 -49 -61 5 -8 10 -6 16 5 5 9 14 16 20 16 7 0 7 -4 -1 -13 -7
-9 -8 -24 -1 -48 6 -18 10 -35 10 -36 0 -1 -7 0 -15 3 -8 4 -15 13 -15 21 0 8
-4 11 -10 8 -6 -4 -10 5 -10 19 0 14 -4 26 -10 26 -5 0 -10 7 -10 15 0 8 4 15
9 15 5 0 12 14 16 31 6 27 10 30 36 27 18 -3 30 1 34 10 7 19 48 8 97 -26z
m-351 -24 c21 -11 36 -24 34 -28 -3 -4 5 -16 18 -26 l22 -19 -19 23 c-11 12
-14 22 -8 22 21 0 62 -67 71 -117 13 -64 0 -115 -34 -133 -13 -7 -23 -18 -22
-23 1 -6 -2 -12 -8 -12 -24 -4 -45 -18 -45 -31 0 -9 -11 -14 -27 -14 -22 0
-25 2 -13 10 11 7 2 8 -27 4 -42 -6 -103 9 -103 27 0 4 -9 11 -20 14 -11 3
-20 10 -20 15 0 5 8 7 18 4 16 -5 16 -5 0 6 -34 21 -50 128 -23 150 9 7 14 22
13 33 -2 13 3 21 14 23 10 1 31 12 49 24 17 13 51 25 76 28 25 3 39 8 33 12
-13 8 -65 -2 -133 -25 l-42 -14 23 19 c13 11 46 22 73 26 27 4 49 10 49 15 0
13 8 11 51 -13z"/>
<path d="M330 4987 c3 -3 76 -19 163 -37 236 -47 343 -87 473 -176 80 -55 200
-164 259 -236 22 -27 44 -48 50 -48 6 0 29 -18 50 -41 62 -63 170 -132 244
-155 41 -13 66 -26 66 -35 0 -8 -6 -13 -13 -11 -8 1 -11 -2 -7 -9 5 -7 11 -7
17 -1 7 7 19 7 36 1 26 -10 26 -10 7 10 -10 12 -14 21 -9 21 5 1 -20 12 -56
26 -36 14 -111 55 -167 92 -93 61 -102 69 -98 93 5 31 -20 58 -48 54 -11 -2
-16 -1 -13 3 3 3 -2 15 -13 26 -24 26 -34 115 -11 101 5 -3 7 -11 5 -18 -4
-13 142 -143 151 -134 3 2 -9 17 -27 31 -39 33 -33 45 7 14 15 -13 33 -23 39
-23 26 0 154 -73 193 -109 24 -23 42 -34 40 -26 -2 8 3 14 10 13 6 -2 12 2 12
8 0 5 5 7 10 4 18 -11 10 10 -10 28 -23 19 -40 23 -22 5 7 -7 12 -17 12 -22
-1 -6 -9 -2 -18 9 -10 11 -24 21 -32 23 -9 2 -5 -7 10 -24 l25 -27 -24 13
c-13 6 -26 20 -28 30 -3 10 -27 27 -55 39 -42 17 -47 23 -36 35 7 7 17 11 22
8 5 -3 6 0 2 6 -3 6 -15 9 -26 7 -11 -2 -23 1 -26 7 -5 7 -2 8 7 3 12 -8 12
-6 0 8 -15 18 -26 23 -16 7 10 -16 -5 -12 -32 10 -14 11 -30 17 -35 14 -6 -4
4 -16 21 -27 18 -11 30 -22 27 -24 -3 -3 -27 8 -53 24 -40 25 -49 36 -54 66
-8 48 -19 59 -19 19 l0 -31 -30 17 c-16 9 -30 20 -30 25 0 4 -6 7 -14 7 -7 0
-31 18 -52 40 -21 22 -43 39 -49 38 -5 -2 -50 18 -100 44 -88 45 -264 113
-272 104 -2 -2 13 -10 34 -16 38 -13 126 -51 215 -93 37 -17 48 -28 49 -47 1
-17 3 -19 6 -7 5 19 12 21 30 9 13 -8 31 -102 19 -102 -3 0 -27 20 -54 45 -26
25 -50 45 -54 45 -5 0 -8 10 -9 23 0 12 -3 17 -5 10 -7 -16 -74 24 -74 44 0 8
-4 12 -10 8 -5 -3 -31 5 -58 19 -73 37 -237 92 -343 114 -100 22 -217 38 -209
29z"/>
<path d="M495 4832 c91 -46 183 -106 274 -179 19 -16 31 -21 26 -13 -5 9 -5
12 1 7 5 -5 9 -12 9 -17 0 -5 23 -32 50 -62 115 -121 336 -397 389 -486 6 -10
-14 -42 -27 -42 -2 0 -25 32 -52 70 -26 39 -50 68 -53 66 -3 -3 14 -30 37 -61
41 -54 41 -55 17 -55 -14 0 -28 5 -32 12 -5 8 -11 6 -19 -6 -11 -15 -16 -13
-44 19 -42 48 -39 62 7 29 20 -15 -9 19 -66 75 -56 57 -100 107 -97 111 3 5 0
12 -6 16 -8 5 -9 3 -4 -7 4 -8 -8 2 -28 20 -21 19 -37 40 -37 45 0 6 9 0 20
-14 11 -14 20 -20 20 -14 0 6 -9 19 -20 29 -11 10 -20 14 -20 10 0 -5 -15 4
-32 21 -27 23 -29 24 -10 3 23 -26 30 -59 12 -59 -5 0 -14 -10 -20 -22 -11
-22 -10 -22 4 -4 15 18 16 18 36 -5 11 -13 34 -43 51 -67 27 -38 70 -68 91
-64 4 1 5 -4 3 -11 -3 -6 28 -47 68 -90 l72 -78 23 21 c20 19 25 20 50 8 15
-7 27 -21 27 -29 0 -24 26 -70 59 -104 15 -16 25 -24 21 -16 -6 11 -4 13 8 8
18 -7 21 5 8 38 -5 11 -13 20 -19 20 -6 0 -22 17 -36 37 -22 33 -23 38 -9 50
13 10 19 8 40 -17 101 -121 212 -206 267 -204 14 0 7 6 -19 16 -56 23 -114 64
-168 119 -48 48 -59 68 -32 58 11 -5 15 1 15 21 0 22 4 26 19 22 10 -2 25 -1
32 4 8 4 19 3 27 -3 10 -9 14 -6 19 10 3 12 8 22 12 22 4 0 32 -18 61 -40 30
-22 83 -59 119 -82 36 -23 68 -43 69 -44 2 -2 -1 -18 -6 -36 -19 -61 -23 -88
-13 -88 10 0 35 72 47 136 4 22 2 34 -5 34 -6 0 -11 -7 -11 -15 0 -8 -6 -15
-14 -15 -18 0 -226 149 -233 166 -3 8 -10 14 -17 14 -14 0 -50 40 -42 47 2 3
22 -9 43 -26 114 -93 176 -142 205 -162 l33 -22 -30 32 c-16 18 -74 67 -127
108 -100 78 -122 109 -70 97 15 -4 38 -12 52 -20 14 -7 35 -18 48 -23 25 -12
31 -37 6 -27 -8 3 -13 2 -10 -3 9 -14 64 -10 78 7 8 10 9 13 1 9 -6 -4 -14 -3
-18 3 -4 6 -10 8 -15 5 -5 -3 -23 7 -41 22 -17 15 -38 28 -48 29 -46 3 -52 5
-45 15 3 6 17 9 30 6 13 -2 21 0 18 4 -3 5 -13 9 -23 9 -9 0 -22 5 -29 12 -9
9 -15 9 -24 -1 -11 -10 -10 -11 5 -6 11 5 17 2 17 -8 0 -8 -12 -18 -27 -22
-23 -5 -33 0 -69 39 -23 25 -45 46 -48 46 -14 0 -3 -18 34 -57 29 -30 36 -42
26 -46 -8 -3 -22 3 -32 14 -9 10 -14 19 -10 19 5 0 -6 16 -23 35 -17 20 -31
40 -31 46 0 5 -25 42 -56 80 -31 39 -57 76 -58 82 -14 72 -28 92 -76 101 -13
3 -30 18 -30 28 0 6 7 5 17 -3 24 -19 -17 39 -46 65 -20 18 -20 18 -16 -3 2
-11 1 -21 -2 -21 -3 0 -36 24 -72 54 -54 44 -162 116 -175 116 -1 0 -3 -6 -3
-14 0 -8 5 -12 12 -10 14 6 115 -60 177 -115 26 -23 99 -111 162 -196 64 -84
121 -157 127 -161 6 -3 -21 36 -60 88 -39 52 -71 98 -71 101 0 4 6 7 14 7 8 0
20 -15 26 -34 6 -19 33 -63 59 -98 26 -35 46 -68 44 -73 -2 -6 19 -33 47 -60
27 -27 50 -55 50 -62 0 -23 -22 -25 -36 -4 -9 12 -20 19 -25 16 -5 -4 -9 -2
-9 3 0 5 -30 45 -68 88 -37 44 -86 111 -109 149 -36 62 -85 131 -68 98 3 -7 1
-13 -5 -13 -7 0 -9 7 -6 16 8 22 -25 74 -66 103 -28 20 -27 17 12 -23 27 -28
38 -46 29 -46 -8 0 -35 20 -59 46 -25 25 -65 55 -89 67 -24 12 -52 36 -63 52
-10 17 -18 24 -18 16 0 -15 86 -101 101 -101 5 0 9 -8 9 -17 0 -12 3 -14 8 -6
5 8 12 8 26 -3 16 -11 17 -16 6 -29 -7 -8 -17 -12 -22 -9 -6 4 -8 -2 -3 -15 4
-12 2 -21 -4 -21 -6 0 -11 12 -11 28 0 20 -3 23 -10 12 -7 -11 -11 -8 -20 15
-13 38 -33 77 -26 53 3 -10 1 -18 -4 -18 -6 0 -10 4 -10 9 0 4 -11 24 -24 43
-20 30 -42 99 -38 119 2 9 -99 52 -105 45 -3 -3 6 -8 21 -12 14 -3 26 -10 26
-15 0 -5 5 -8 12 -6 19 4 39 -43 25 -59 -10 -10 -14 -10 -24 4 -7 8 -13 12
-13 7 0 -5 -15 4 -32 21 -24 20 -22 17 7 -14 22 -23 45 -40 52 -38 12 5 69
-71 61 -80 -2 -2 -26 14 -52 36 -69 57 -176 127 -237 154 -102 45 -104 38 -4
-12z m536 -412 c18 -27 34 -50 36 -50 2 0 1 5 -3 12 -4 6 -8 22 -10 35 -2 24
-2 24 17 7 10 -9 19 -27 19 -39 0 -28 56 -100 153 -199 45 -46 76 -85 73 -93
-3 -7 -1 -24 4 -38 11 -29 -1 -33 -25 -9 -15 16 -142 182 -228 299 -20 28 -46
62 -57 77 -18 24 -26 48 -16 48 3 0 19 -22 37 -50z"/>
<path d="M3605 4668 c-17 -111 -14 -105 -53 -112 -69 -11 -67 -14 -44 54 2 8
-8 -4 -24 -27 -15 -23 -32 -39 -38 -35 -6 3 -19 5 -28 4 -10 -2 -18 3 -18 10
0 8 -5 6 -11 -5 -12 -21 -30 -13 -23 11 2 9 -1 7 -7 -5 -12 -23 -33 -27 -172
-39 -43 -4 -76 -8 -74 -11 4 -4 67 -11 110 -12 15 -1 27 -5 27 -9 0 -5 -12
-13 -27 -19 l-28 -11 33 -1 c45 -1 165 30 177 46 6 7 27 16 49 20 30 5 41 2
48 -10 5 -10 22 -17 41 -18 29 0 28 -2 -17 -15 -85 -27 -43 -25 75 2 90 21
134 26 209 24 153 -5 169 -5 181 7 7 7 -2 10 -33 10 -24 0 -69 4 -101 8 -54 7
-58 10 -53 31 5 18 2 22 -14 21 -14 -1 -18 -6 -15 -18 7 -20 -13 -29 -40 -18
-11 4 -32 8 -47 8 -24 1 -28 5 -28 32 0 27 -2 30 -15 19 -8 -7 -15 -21 -15
-31 0 -11 -4 -19 -10 -19 -5 0 -10 9 -10 19 0 11 5 23 10 26 6 3 10 14 10 23
0 15 -2 15 -11 2 -7 -11 -8 -1 -3 33 3 26 4 47 1 47 -3 0 -8 -19 -12 -42z"/>
<path d="M4370 4091 c-19 -4 30 -5 110 -3 213 6 390 -29 390 -77 0 -16 -13
-24 -66 -41 -79 -24 -157 -34 -148 -18 5 8 -1 9 -17 5 -13 -4 -32 -7 -42 -7
-10 0 -15 -4 -12 -10 4 -6 -11 -10 -36 -10 -43 0 -45 13 -4 23 19 5 -111 12
-149 8 -11 -1 -23 4 -28 11 -6 10 -8 10 -8 1 0 -9 -7 -10 -22 -4 -13 5 -25 8
-28 8 -3 0 -15 3 -28 7 -22 7 -26 31 -6 31 5 0 25 8 44 17 45 21 150 32 150
16 0 -9 3 -9 12 0 19 19 32 14 17 -5 -11 -15 -11 -16 1 -5 15 12 50 17 50 6 0
-4 -8 -13 -17 -21 -17 -13 -17 -14 1 -5 10 5 28 7 39 4 20 -5 20 -6 1 -13 -14
-6 -8 -8 21 -8 22 -1 51 5 65 12 35 18 88 28 94 18 3 -5 18 -11 33 -13 16 -3
36 -9 46 -13 12 -5 17 -3 17 10 0 11 -5 15 -16 11 -8 -3 -12 -2 -9 3 12 20
-231 51 -345 44 -69 -4 -236 -38 -259 -52 -7 -5 -10 -14 -7 -20 4 -6 12 -9 17
-6 5 4 9 1 9 -4 0 -14 -13 -14 -28 1 -32 32 -7 55 83 78 l40 10 -42 -5 c-97
-12 -139 -53 -179 -180 -56 -175 -66 -366 -28 -495 49 -165 164 -304 288 -346
24 -9 51 -25 59 -37 25 -38 42 -193 41 -377 0 -209 -5 -225 -67 -234 -60 -9
-175 -66 -211 -105 -53 -56 -40 -129 32 -176 101 -66 304 -94 446 -61 145 34
236 107 236 189 0 33 -7 46 -49 87 -51 51 -89 67 -176 76 -47 4 -46 4 22 -15
110 -30 152 -57 167 -108 5 -16 3 -23 -6 -23 -7 0 -22 -17 -33 -37 -11 -21
-36 -46 -55 -56 -19 -10 -27 -16 -17 -13 9 3 17 1 17 -4 0 -5 -33 -20 -72 -32
-126 -39 -355 -27 -390 20 -16 22 -64 43 -81 36 -19 -7 -49 31 -49 61 0 29 32
71 42 55 4 -6 15 -4 29 6 18 13 20 18 10 25 -10 6 3 16 41 33 63 28 130 43
130 28 0 -18 -43 -64 -74 -79 l-31 -14 30 7 c17 4 38 7 47 8 38 1 77 147 79
296 l1 75 10 -50 c15 -78 -6 -202 -53 -310 -31 -71 -34 -84 -16 -62 12 15 28
27 35 27 7 0 12 7 12 16 0 13 3 14 14 5 10 -9 20 -9 40 0 23 11 29 9 49 -9 13
-12 29 -22 36 -22 7 0 26 -8 42 -17 15 -9 32 -13 36 -9 4 5 4 10 -2 12 -51 19
-126 98 -108 114 3 3 8 -2 11 -10 9 -26 69 -80 89 -80 16 1 15 2 -4 13 -12 7
-21 15 -20 18 1 3 -4 14 -12 25 -8 10 -2 7 13 -8 32 -33 36 -34 36 -7 0 11 -4
18 -9 14 -5 -3 -21 9 -36 27 -16 19 -24 25 -21 14 11 -32 -25 4 -41 41 -19 47
-18 378 2 475 23 110 32 126 75 138 92 25 204 126 268 240 101 182 91 443 -25
687 -40 86 -56 96 -178 118 -88 15 -298 18 -365 6z m569 -243 c12 -41 20 -85
20 -99 -1 -18 -3 -19 -6 -6 -3 10 -15 22 -28 27 -17 6 -23 16 -21 33 l3 24
-38 -16 -38 -16 26 -14 c14 -7 33 -14 41 -15 37 -6 41 -66 5 -66 -14 0 -15 2
-4 9 9 6 10 11 2 15 -6 4 -14 0 -17 -9 -20 -51 -101 -30 -91 24 3 16 1 33 -5
39 -8 8 -5 9 12 5 16 -4 21 -2 18 8 -2 7 -15 16 -29 19 -13 3 -25 14 -27 23
-2 12 1 15 12 11 10 -4 16 -1 16 9 0 9 -9 14 -24 13 -21 -1 -24 -5 -19 -26 4
-24 3 -25 -41 -22 -43 4 -46 6 -45 31 1 16 3 20 6 9 6 -24 23 -23 23 1 0 20
50 37 61 20 8 -13 41 0 57 23 14 19 42 25 42 8 0 -23 -25 -60 -37 -56 -8 3
-11 1 -8 -5 4 -5 15 -7 25 -4 15 5 18 2 15 -14 -3 -14 1 -18 12 -14 12 5 12 7
1 15 -9 7 -7 8 7 4 11 -3 27 -1 35 4 12 8 12 10 -3 16 -9 3 -14 11 -11 16 4 6
-2 5 -14 -1 -30 -16 -33 -14 -20 14 6 13 14 22 19 20 9 -6 6 22 -4 31 -3 4 -2
16 4 26 10 19 12 19 29 -10 10 -16 28 -63 39 -104z m-657 82 c36 -8 55 -17 51
-24 -4 -8 -3 -8 6 0 8 7 33 8 79 2 94 -13 285 0 352 22 30 10 56 17 58 15 11
-11 -90 -48 -147 -55 -36 -4 -58 -8 -48 -9 9 0 17 -8 17 -17 0 -8 -4 -13 -9
-10 -5 4 -7 -3 -4 -14 5 -18 0 -20 -57 -20 -53 0 -63 -3 -67 -20 -3 -13 -14
-20 -28 -20 -13 0 -31 -3 -41 -7 -12 -4 -15 -3 -10 5 4 7 22 12 39 13 18 0 26
3 19 6 -6 2 -9 9 -6 15 4 6 -22 9 -75 6 -81 -3 -97 2 -63 21 16 9 16 11 -3 28
-21 19 -141 31 -130 12 4 -5 1 -9 -5 -9 -21 0 14 -26 45 -35 17 -4 24 -10 17
-12 -7 -3 -26 0 -42 6 -38 13 -39 6 -2 -13 l27 -15 -25 -1 c-14 -1 -19 -4 -12
-7 6 -2 10 -8 7 -12 -2 -5 6 -6 19 -4 l24 5 -14 -68 c-8 -37 -16 -69 -17 -70
-1 -2 -22 6 -46 17 -42 19 -43 20 -38 57 9 60 17 94 32 149 18 60 19 76 5 68
-5 -3 -10 -2 -10 4 0 11 23 9 102 -9z m689 -232 c6 -95 6 -229 -1 -233 -4 -3
-6 -14 -3 -25 3 -11 1 -20 -3 -20 -5 0 -10 -15 -11 -33 -3 -43 -60 -153 -92
-179 -14 -11 -26 -23 -26 -27 0 -13 -57 -57 -102 -81 -84 -44 -243 -66 -291
-41 -9 5 -41 19 -70 30 -66 26 -141 80 -182 131 -17 21 -42 71 -55 111 -14 40
-31 82 -39 94 -18 27 -33 180 -18 189 6 3 13 -21 17 -62 20 -185 118 -352 245
-417 108 -55 205 -67 301 -39 59 18 169 72 169 83 0 4 10 18 21 30 68 73 123
183 120 239 -2 25 -1 39 4 107 6 86 6 82 -1 128 -4 24 -2 37 5 37 6 0 12 -10
12 -22z m-62 -55 c7 -114 -3 -202 -31 -273 -5 -14 -9 -26 -9 -28 1 -1 -5 -15
-13 -30 -9 -18 -28 -32 -52 -40 -53 -16 -54 -7 -4 16 26 12 37 21 29 24 -8 3
-23 1 -33 -4 -18 -10 -19 -7 -11 58 5 38 9 113 11 168 l2 99 54 22 c29 13 53
23 54 24 0 0 2 -16 3 -36z m-675 -14 c2 -2 0 -42 -5 -89 -5 -54 -5 -99 2 -123
9 -34 11 -36 25 -22 9 8 19 15 24 15 4 0 10 9 13 20 6 25 36 27 35 3 0 -10 3
-34 7 -53 5 -26 4 -31 -4 -20 -10 13 -11 13 -11 0 0 -13 -1 -13 -11 0 -8 11
-9 9 -4 -10 13 -48 68 -132 97 -150 16 -10 36 -27 44 -39 14 -19 13 -21 -4
-21 -10 0 -27 9 -37 20 -10 11 -26 18 -35 15 -11 -3 -28 11 -54 46 -21 29 -33
48 -25 44 9 -6 11 -3 5 10 -7 18 -6 18 14 0 21 -19 21 -18 -2 26 -13 25 -26
41 -30 35 -4 -5 -4 -14 -2 -18 3 -4 1 -8 -4 -8 -5 0 -20 20 -33 45 -22 42 -39
44 -39 5 0 -13 1 -13 10 0 5 8 10 11 11 5 0 -5 2 -20 3 -33 5 -43 -16 -16 -46
58 -21 55 -31 99 -35 162 -8 116 -5 122 47 99 22 -10 42 -20 44 -22z m542 -24
c-1 -21 -3 -23 -12 -10 -18 24 -24 18 -24 -22 1 -37 1 -37 17 -18 l16 20 -7
-20 c-4 -11 -10 -45 -13 -75 -4 -53 -4 -54 13 -35 l17 20 -8 -20 c-5 -11 -10
-47 -11 -80 -1 -33 -3 -66 -3 -73 -1 -7 -11 -17 -23 -22 -19 -7 -20 -9 -5 -9
18 -1 18 -3 -2 -37 -12 -19 -19 -39 -16 -44 3 -4 -3 -7 -12 -6 -10 2 -24 -3
-31 -11 -15 -15 -62 -18 -62 -3 0 5 -6 7 -14 4 -8 -3 -17 -1 -21 5 -3 7 3 11
17 12 19 1 20 2 4 6 -15 4 -16 7 -5 14 10 6 6 9 -16 10 -16 1 -38 0 -49 -1
-10 -1 -16 2 -13 8 4 5 -4 24 -17 43 -13 19 -34 67 -45 107 -12 40 -26 72 -31
72 -5 0 -1 -24 10 -52 20 -52 20 -53 1 -28 -26 33 -46 113 -42 173 1 32 -2 46
-10 45 -6 -2 -13 2 -16 8 -2 6 8 14 22 16 23 5 25 2 27 -36 1 -38 2 -38 5 -8
4 32 6 33 36 26 18 -3 33 -8 35 -9 2 -2 -1 -23 -6 -47 l-10 -43 -2 40 -3 40
-7 -45 c-4 -25 -4 -49 1 -54 6 -6 9 -5 9 3 0 7 5 9 10 6 6 -4 10 8 11 27 0 18
4 42 9 53 6 14 9 2 9 -42 1 -51 -2 -62 -16 -66 -10 -3 -2 -5 17 -5 19 0 29 2
23 5 -7 2 -13 17 -13 33 0 27 2 28 78 38 l77 10 -60 0 c-87 -1 -97 1 -90 12 4
6 15 8 26 5 11 -4 50 -3 87 2 l67 8 -55 6 -55 6 47 1 c49 2 78 10 78 21 0 3
-19 6 -42 5 -24 -1 -30 1 -13 3 17 2 39 8 50 13 11 5 29 11 40 13 11 3 21 5
21 6 1 0 1 -10 0 -24z m-228 -858 c4 -194 13 -331 26 -382 4 -14 2 -25 -4 -25
-5 0 -13 12 -16 26 -6 25 -7 24 -26 -18 -12 -25 -22 -37 -25 -30 -3 8 0 19 6
25 16 16 15 90 -1 81 -9 -5 -8 -2 1 9 11 14 14 62 14 230 0 179 5 237 21 237
0 0 2 -69 4 -153z"/>
<path d="M3247 4046 c-6 -14 -77 -28 -77 -15 0 4 17 10 38 12 l37 4 -38 1
c-42 2 -81 -14 -72 -29 4 -5 1 -8 -6 -7 -8 2 -26 -29 -45 -77 -67 -165 -99
-343 -92 -504 4 -83 8 -104 35 -156 36 -69 62 -96 158 -162 42 -30 75 -61 86
-83 22 -45 39 -286 38 -535 -1 -221 -7 -245 -70 -262 -24 -6 -39 -12 -34 -13
6 0 -1 -7 -15 -15 -34 -19 -8 -19 38 1 20 9 54 16 75 15 33 -1 37 1 28 16 -6
12 -5 26 5 45 8 15 16 49 19 75 4 38 3 43 -5 23 -7 -19 -9 -6 -5 48 2 41 0 72
-6 72 -5 0 -8 26 -8 58 1 47 3 52 9 27 6 -23 8 -14 8 35 0 50 -2 58 -8 35 -4
-16 -5 20 -3 80 3 61 9 114 14 120 5 5 9 40 9 78 0 57 -3 68 -15 63 -8 -3 -15
-1 -15 4 0 6 11 10 25 10 17 0 25 -5 25 -17 0 -21 -18 -185 -25 -225 -2 -15 0
-27 5 -25 5 1 11 -60 12 -146 2 -82 0 -138 -3 -125 -6 19 -7 17 -8 -12 0 -19
6 -53 14 -75 8 -22 15 -55 15 -73 0 -18 5 -43 11 -54 11 -20 5 -30 -26 -41
-13 -5 24 -47 40 -47 7 0 18 7 25 15 12 15 4 20 -22 16 -5 0 -8 4 -8 10 0 8
12 9 38 3 20 -4 52 -7 70 -6 18 1 32 -3 32 -9 0 -6 6 -9 13 -6 19 7 57 -11 57
-28 0 -13 -4 -16 -25 -15 -3 0 -18 -6 -33 -13 -45 -23 -328 -28 -437 -8 -43 8
-62 8 -72 0 -7 -7 -17 -9 -20 -5 -4 4 -2 10 4 14 7 5 7 11 -3 20 -12 11 -14 9
-14 -11 0 -13 9 -32 19 -41 25 -23 100 -34 111 -16 4 7 15 10 25 7 9 -4 14
-11 11 -16 -7 -11 204 -25 265 -17 135 17 146 19 114 25 -16 4 -59 3 -94 -2
-66 -8 -78 -6 -66 13 4 7 36 10 88 9 52 -2 91 2 106 10 17 10 21 10 16 1 -5
-9 -1 -10 14 -5 30 9 26 -4 -5 -16 -15 -5 -24 -12 -22 -15 12 -12 77 30 83 53
9 36 -7 49 -83 68 -37 9 -85 22 -107 28 -22 7 -44 11 -48 9 -5 -1 -16 7 -26
19 -42 52 -29 694 16 771 10 18 49 53 86 78 87 60 119 91 150 148 53 100 58
213 17 426 -19 99 -63 246 -81 276 -11 17 -12 21 32 -134 16 -55 29 -107 29
-114 0 -25 -17 -3 -24 30 -5 26 -9 30 -16 18 -5 -8 -7 -24 -4 -34 5 -16 3 -18
-17 -12 -13 4 -69 12 -124 18 -111 11 -366 -10 -373 -31 -8 -23 -19 -10 -15
17 l5 27 -16 -28 c-30 -55 -48 -178 -43 -304 2 -65 9 -128 16 -140 6 -13 9
-23 6 -23 -3 0 -17 24 -31 54 -32 70 -46 220 -22 239 13 10 29 77 55 222 3 17
19 56 35 87 23 43 37 58 58 63 15 3 30 14 33 24 3 13 13 17 43 15 33 -3 30 -1
-16 10 -54 13 -55 13 -20 18 25 4 21 5 -13 3 -26 -1 -50 1 -52 5 -8 13 54 30
107 30 34 0 50 5 54 15 4 9 18 15 33 14 l26 -1 -25 -8 c-17 -5 2 -8 55 -7 75
0 76 1 25 6 -41 5 -49 8 -30 12 14 4 -9 7 -51 8 -57 1 -78 -3 -82 -13z m58
-347 c-21 -9 3 -7 76 7 19 4 29 2 26 -3 -4 -5 7 -10 23 -10 17 0 30 4 30 9 0
9 84 11 118 2 l23 -7 -28 -19 -28 -20 30 5 c17 3 38 9 48 12 29 12 19 -9 -14
-28 -18 -10 -65 -20 -108 -24 -70 -6 -73 -8 -36 -14 37 -7 124 3 146 16 5 4 9
1 9 -4 0 -6 -5 -11 -11 -11 -8 0 -8 -4 1 -15 15 -18 4 -71 -16 -79 -8 -3 -14
-16 -14 -30 0 -17 -8 -27 -27 -34 -27 -10 -26 -10 15 -11 54 -1 47 -14 -19
-36 -28 -9 -48 -19 -45 -22 2 -3 -5 -14 -16 -25 -16 -16 -18 -22 -7 -29 11 -6
9 -12 -5 -28 -11 -12 -14 -21 -7 -21 7 0 9 -9 5 -24 -6 -24 -5 -25 33 -15 21
6 57 29 82 52 25 25 39 33 33 21 -19 -36 -78 -81 -117 -88 -20 -4 -34 -10 -31
-14 4 -3 -4 -12 -16 -19 l-23 -14 25 7 c14 3 35 12 47 20 18 11 22 11 27 -1 3
-9 -1 -15 -10 -15 -8 0 -13 -4 -9 -9 3 -5 0 -13 -6 -17 -8 -4 -9 -3 -5 4 4 7
6 12 4 12 -14 -1 -120 -39 -109 -39 8 -1 11 -4 8 -8 -4 -4 -33 -6 -65 -4 -49
1 -61 6 -84 31 -15 16 -30 25 -33 20 -3 -6 -1 -10 6 -10 10 0 10 -3 1 -12 -15
-15 -35 9 -56 67 -12 33 -15 36 -15 15 l-1 -25 -20 25 c-39 50 -72 218 -48
247 12 15 14 13 19 -13 6 -25 6 -24 3 6 -1 19 -6 46 -10 60 -4 14 -3 22 1 18
5 -4 14 -3 22 3 9 8 13 8 13 1 0 -6 9 -10 20 -9 11 1 20 5 20 9 0 4 12 9 28 9
20 1 22 2 7 6 -50 12 -34 23 25 17 47 -4 70 -12 83 -26 17 -20 17 -20 17 1 0
12 -6 21 -12 21 -10 0 -10 2 0 9 8 5 -25 11 -82 15 -52 3 -102 9 -111 12 -11
5 -15 0 -15 -17 0 -19 -2 -21 -9 -9 -6 8 -7 18 -5 22 3 5 -2 11 -10 14 -25 10
-19 18 30 38 41 17 122 32 179 34 l20 1 -20 -10z"/>
<path d="M804 3699 c-280 -47 -493 -284 -575 -639 -26 -109 -36 -356 -20 -460
7 -41 30 -128 52 -192 37 -106 40 -121 29 -153 -13 -39 -6 -90 11 -79 7 4 8
20 4 41 -6 34 -5 35 19 31 14 -3 26 -2 26 1 0 13 89 41 150 47 39 4 70 12 77
21 13 17 33 9 33 -12 0 -18 26 -9 34 12 4 9 1 22 -5 30 -7 7 -10 15 -8 16 48
37 67 45 78 34 10 -9 11 -6 5 18 -8 35 -14 45 -14 22 0 -12 -7 -15 -35 -10
-20 3 -35 1 -35 -4 0 -5 -12 -15 -27 -22 l-28 -11 24 20 c13 11 19 20 14 20
-12 0 -38 -29 -46 -51 -3 -11 0 -16 10 -15 9 0 18 -4 20 -10 2 -6 -15 -11 -39
-12 -24 -2 -55 -5 -69 -7 -26 -5 -28 -1 -79 141 -43 120 -54 163 -60 242 -13
164 16 335 80 480 31 69 57 97 45 50 -14 -57 -23 -134 -16 -141 11 -11 33 95
31 146 -3 65 2 68 10 7 l7 -55 1 66 c2 60 5 69 38 107 37 44 100 81 145 88 23
3 26 0 21 -18 -3 -14 -1 -19 6 -14 7 4 12 15 12 25 0 10 8 25 17 32 15 13 16
12 10 -8 -16 -52 -16 -66 -2 -33 33 75 42 85 87 92 24 4 44 4 46 0 3 -11 65
-2 73 10 8 12 91 -20 149 -57 25 -16 48 -28 52 -27 5 1 7 -2 5 -7 -1 -4 9 -18
23 -31 17 -15 20 -20 8 -16 -10 3 -18 2 -18 -3 0 -15 13 -21 26 -10 19 15 28
7 80 -78 71 -114 142 -311 103 -287 -8 5 -10 0 -6 -17 3 -13 9 -53 13 -89 7
-55 9 -60 15 -35 l7 30 1 -35 c1 -19 2 -120 3 -225 1 -169 -1 -197 -19 -250
-12 -33 -22 -51 -23 -40 0 11 -14 -13 -31 -54 -16 -40 -27 -76 -25 -79 3 -3
13 12 21 33 9 20 19 35 22 32 7 -8 -41 -110 -79 -170 -19 -30 -36 -46 -44 -43
-9 3 -14 -2 -14 -14 0 -11 -4 -20 -9 -20 -5 0 -9 21 -9 46 -2 57 -12 73 -12
18 0 -21 -4 -50 -8 -64 -6 -21 -8 -17 -13 25 l-7 50 1 -59 1 -59 -53 -30 c-43
-24 -69 -31 -130 -35 l-76 -4 3 61 c2 34 1 70 -3 79 -4 9 -8 27 -9 40 -1 12
-15 35 -30 50 l-29 27 20 -35 c29 -49 37 -96 23 -129 -11 -28 -12 -28 -128
-35 -64 -4 -135 -11 -157 -16 -41 -9 120 -4 178 5 20 3 27 1 25 -8 -3 -8 -63
-15 -204 -23 -109 -7 -210 -16 -224 -22 -24 -10 -23 -11 11 -11 20 -1 81 3
135 8 55 5 142 12 194 15 86 5 93 5 76 -9 -12 -9 -29 -12 -40 -9 -15 4 -18 3
-11 -4 6 -6 48 -16 94 -22 257 -35 450 93 546 362 56 158 69 246 70 470 0 114
3 185 8 168 4 -17 10 -30 12 -30 9 0 -9 66 -27 96 -10 18 -28 65 -39 105 -26
93 -73 196 -134 290 -56 87 -74 107 -140 163 -47 38 -49 39 -31 11 l19 -30
-24 21 c-41 37 -106 64 -182 76 -63 9 -84 9 -139 -5 -101 -25 -146 -49 -233
-120 -127 -103 -197 -199 -234 -321 -12 -38 -26 -75 -31 -81 -20 -24 -32 -171
-26 -315 6 -160 30 -293 69 -390 14 -35 24 -67 21 -72 -34 -54 -113 198 -129
412 -8 102 7 261 35 371 26 100 92 255 108 251 7 -1 12 2 12 8 0 5 12 20 26
33 14 13 26 31 28 39 3 24 30 60 88 119 93 93 226 150 355 151 58 0 79 -5 132
-31 35 -18 60 -27 56 -21 -18 30 107 -50 164 -104 35 -33 61 -54 57 -46 -4 8
4 2 18 -13 15 -16 24 -32 21 -37 -3 -4 11 -32 30 -61 19 -30 38 -62 41 -72 3
-9 10 -15 15 -12 5 4 12 -2 16 -12 4 -10 10 -20 13 -23 4 -3 17 -23 29 -45 21
-38 22 -35 5 10 -5 14 -4 17 4 10 13 -13 79 -213 87 -263 l5 -37 -15 30 -15
30 5 -45 c4 -25 11 -57 17 -73 6 -15 8 -43 5 -62 -3 -19 -2 -35 2 -35 14 0
-16 -219 -45 -328 -2 -9 4 0 14 20 9 21 20 38 24 38 6 0 -18 -121 -42 -212
-33 -121 -122 -264 -217 -348 -103 -91 -264 -147 -388 -135 -84 8 -243 59
-266 85 -16 18 -19 17 -75 -43 -81 -86 -108 -121 -51 -67 26 24 47 38 47 31 0
-7 5 -9 12 -5 7 4 8 3 4 -4 -16 -26 9 -10 39 26 18 20 36 34 40 30 4 -4 -6
-23 -24 -43 -17 -20 -31 -39 -31 -42 0 -3 15 11 34 33 27 31 37 36 47 27 10
-10 9 -17 -6 -33 -10 -11 -14 -20 -9 -20 5 0 15 9 22 20 12 19 14 19 37 4 14
-9 31 -14 40 -11 20 8 110 -23 95 -33 -13 -8 31 -19 84 -21 29 -2 28 -2 -9 -9
-23 -4 -30 -8 -17 -9 13 0 21 -5 18 -9 -3 -5 19 -8 49 -8 30 1 55 4 55 8 0 4
17 9 38 11 22 2 10 4 -31 5 -40 1 -66 6 -62 11 3 6 36 10 74 9 38 0 84 5 102
11 35 11 79 11 79 0 0 -8 -40 -25 -90 -39 -23 -6 -52 -20 -63 -31 -22 -20 -17
-25 12 -10 10 6 48 21 84 35 70 26 90 22 35 -8 -38 -19 -21 -15 35 8 47 21 49
5 1 -17 -24 -12 -48 -16 -72 -12 l-37 6 25 -20 c16 -13 20 -21 11 -21 -8 0
-12 -2 -9 -5 3 -3 26 6 51 21 26 14 47 21 47 15 0 -6 -10 -15 -22 -20 -13 -5
-32 -19 -43 -32 -16 -19 -9 -16 45 14 37 20 64 42 62 49 -2 7 0 10 4 5 4 -4
15 0 25 9 10 9 25 14 34 10 10 -4 14 -2 9 5 -4 7 -1 10 7 7 8 -3 13 -10 12
-16 -2 -6 6 -13 15 -16 25 -8 65 -64 56 -78 -4 -7 -3 -8 4 -4 15 9 46 -39 36
-56 -4 -7 -4 -10 1 -6 4 4 14 3 22 -3 15 -13 17 -29 4 -29 -14 0 -123 -65
-147 -87 -11 -10 -15 -15 -10 -10 15 11 28 9 21 -4 -7 -10 -55 -33 -66 -31 -3
0 -6 -5 -6 -12 0 -9 10 -8 38 6 21 10 41 22 44 28 7 11 99 60 112 60 4 0 -20
-18 -54 -40 -35 -22 -63 -42 -63 -45 0 -2 25 11 55 30 30 19 57 35 60 35 13 0
3 -19 -12 -24 -10 -4 -29 -16 -43 -27 -21 -17 -22 -19 -3 -10 34 17 40 12 13
-10 -19 -15 -14 -14 21 5 25 14 50 26 55 26 5 0 1 -5 -8 -11 -22 -12 -24 -33
-3 -25 8 3 15 1 15 -5 0 -5 -12 -8 -27 -7 -19 2 -27 -1 -25 -10 1 -8 -2 -11
-8 -7 -13 8 -40 -12 -40 -29 0 -6 5 -4 10 4 7 11 12 12 21 3 6 -6 17 -9 24 -7
7 3 16 0 21 -7 4 -7 3 -10 -4 -5 -6 3 -14 1 -18 -5 -4 -8 -3 -9 4 -5 7 4 12 2
12 -5 0 -8 4 -8 15 1 8 7 12 17 8 23 -3 6 -1 7 5 3 6 -4 26 7 43 24 34 32 49
37 50 18 0 -7 2 -23 3 -36 2 -13 -1 -25 -6 -28 -4 -3 -8 3 -8 12 0 16 -1 16
-14 -2 -19 -26 0 -37 31 -17 22 15 23 14 24 -13 2 -27 2 -27 8 6 l7 35 8 -48
c4 -27 6 -50 4 -52 -2 -2 -79 15 -171 38 -129 32 -166 45 -162 56 4 11 2 11
-8 3 -10 -8 -24 -8 -53 -1 -51 14 -51 15 -23 42 14 12 29 31 33 42 5 14 -4 10
-31 -15 -21 -19 -40 -39 -44 -43 -5 -7 -152 29 -298 74 -35 10 -66 17 -68 15
-2 -2 27 -13 64 -24 74 -22 620 -173 693 -192 25 -6 53 -13 63 -16 11 -4 17 0
17 10 0 9 8 16 18 16 9 0 23 9 30 21 8 12 9 18 3 14 -16 -9 -14 8 3 31 14 18
14 16 12 -18 -2 -21 -9 -44 -16 -53 -16 -20 1 -19 26 1 10 8 13 13 6 9 -9 -5
-11 0 -7 17 6 26 13 158 9 158 -2 0 -11 -14 -20 -31 -8 -17 -11 -28 -5 -25 18
12 12 -12 -17 -64 -28 -52 -48 -68 -32 -26 5 13 7 32 4 42 -3 11 12 45 36 81
l42 63 -93 117 c-51 65 -108 137 -127 161 l-34 42 36 15 c20 9 41 13 45 10 5
-2 29 6 53 20 24 13 93 36 153 50 l109 26 70 -32 c100 -44 208 -83 332 -119
121 -36 152 -35 39 0 -70 22 -92 41 -62 53 10 4 10 6 0 6 -7 1 -13 10 -13 21
0 26 -16 26 -23 0 -3 -11 -1 -18 4 -14 5 3 9 -4 9 -15 0 -25 3 -25 -51 -6 -80
28 -76 25 -55 41 25 18 14 29 -13 14 -13 -6 -21 -7 -21 -1 0 5 8 12 18 15 19
6 27 36 10 36 -5 0 -6 4 -3 10 3 6 -1 7 -10 3 -12 -4 -13 -8 -5 -13 8 -5 2
-14 -18 -29 -37 -26 -64 -28 -55 -4 4 10 2 14 -4 10 -6 -4 -19 0 -27 9 -9 8
-16 13 -16 9 0 -3 -14 2 -31 11 -24 12 -33 13 -39 4 -4 -7 -13 -9 -19 -6 -6 4
-9 11 -6 16 3 5 -7 3 -22 -5 -38 -20 -67 -20 -59 1 3 9 6 18 6 20 0 2 7 4 17
4 9 0 14 3 10 6 -7 7 -148 -27 -162 -39 -6 -6 0 -7 15 -2 19 5 21 4 10 -4 -8
-6 -23 -8 -32 -5 -10 3 -18 0 -18 -6 0 -6 -4 -8 -10 -5 -5 3 -19 1 -31 -5 -29
-16 -34 -6 -13 29 13 21 35 37 69 50 27 11 75 31 105 45 72 34 82 33 104 -9
10 -19 27 -42 37 -51 16 -15 17 -14 12 8 -4 12 -17 37 -30 55 l-24 32 28 14
c15 8 39 18 53 21 24 7 24 6 -5 -18 l-30 -26 33 9 c18 6 48 19 66 31 21 12 41
18 52 13 12 -4 15 -3 10 6 -4 6 -4 11 1 10 20 -4 34 2 28 11 -8 13 14 42 26
34 5 -3 6 1 3 9 -3 8 2 17 11 21 59 22 211 148 200 165 -2 5 3 15 13 22 15 13
16 12 3 -3 -7 -10 -9 -18 -3 -18 5 0 27 24 48 53 121 168 152 479 72 737 -13
43 -77 144 -85 136 -4 -3 -14 1 -23 9 -11 10 -7 -5 11 -42 16 -32 29 -65 29
-74 0 -27 30 -33 30 -6 1 34 39 -57 45 -107 l5 -41 -17 47 c-10 26 -21 49 -24
53 -9 8 1 -83 13 -123 5 -18 10 -94 10 -170 1 -153 -20 -258 -65 -329 -32 -50
-111 -134 -102 -108 70 197 88 296 89 485 0 128 -3 170 -21 241 -25 99 -81
231 -95 223 -9 -6 -110 97 -103 105 8 7 85 -49 85 -61 0 -6 3 -8 6 -5 9 9 39
-8 87 -51 41 -36 42 -36 12 -3 -42 46 -176 134 -276 180 -190 89 -374 135
-649 165 -80 9 -165 19 -190 22 -33 4 -41 2 -29 -5 9 -6 74 -15 144 -21 130
-10 170 -19 99 -21 -23 -1 -30 -4 -16 -6 12 -2 22 -8 22 -13 0 -13 -34 -22
-38 -11 -2 6 -8 11 -14 11 -6 0 -3 -9 6 -19 11 -12 14 -21 7 -26 -6 -3 -16 5
-23 20 -8 18 -17 24 -30 19 -10 -3 -18 -2 -18 3 0 12 -54 34 -93 36 -18 1 -46
10 -61 20 -14 10 -32 15 -38 11 -7 -4 -8 -3 -4 4 4 7 6 12 4 12 -2 0 -58 7
-123 15 -130 16 -241 18 -321 4z m1105 -138 c67 -12 194 -60 227 -86 15 -12
11 -12 -21 1 -24 10 -41 12 -43 6 -2 -6 -30 -3 -73 10 -134 38 -78 11 84 -40
89 -28 155 -45 145 -39 -9 7 -25 17 -35 24 -13 8 -14 12 -4 12 44 2 164 -186
197 -307 20 -74 31 -326 15 -336 -6 -4 -10 -32 -10 -69 l2 -62 8 62 c11 90 30
117 23 33 -14 -152 -79 -392 -117 -433 -7 -6 -13 -25 -14 -40 -1 -35 -10 -44
-25 -29 -9 9 -9 18 0 37 7 15 8 24 2 20 -5 -3 -16 -27 -23 -53 -13 -43 -19
-49 -83 -84 -70 -38 -89 -41 -61 -11 18 20 60 123 53 130 -2 3 -14 -17 -26
-44 -50 -114 -55 -122 -84 -132 -25 -9 -27 -9 -21 7 5 9 8 24 9 33 0 9 6 16
13 16 8 0 9 -6 2 -19 -7 -12 -6 -18 1 -18 11 0 75 129 67 136 -2 2 -16 -17
-31 -44 -15 -26 -25 -39 -22 -29 16 47 16 49 -3 17 -11 -19 -20 -32 -21 -28 0
3 -3 14 -7 24 -4 12 -3 15 5 10 8 -5 10 -1 5 10 -5 13 -13 3 -35 -40 -16 -31
-26 -62 -22 -68 5 -7 2 -8 -6 -3 -10 6 -12 4 -7 -8 4 -11 -1 -21 -14 -28 -43
-22 -8 -19 52 5 35 14 65 23 68 21 5 -5 -96 -51 -134 -61 -13 -3 -23 -9 -20
-14 4 -6 -36 -30 -51 -30 -3 0 -3 10 1 23 4 17 2 16 -10 -6 -9 -16 -19 -27
-22 -24 -2 3 7 23 20 44 30 47 97 179 97 190 0 5 -16 -20 -36 -54 -57 -101
-49 -73 16 55 33 64 70 155 83 201 14 46 27 78 30 70 3 -9 6 -6 6 8 1 12 5 25
11 28 5 3 7 20 4 38 -4 26 -3 29 6 12 8 -16 9 -11 5 20 -3 22 -7 112 -9 200
-2 120 -7 170 -20 199 -9 22 -14 48 -10 58 7 22 -40 126 -87 195 -18 26 -33
54 -34 62 -4 48 -61 155 -76 145 -6 -3 -4 -16 5 -30 19 -27 21 -43 5 -27 -6 6
-19 9 -28 6 -12 -4 -13 -3 -3 4 10 8 9 16 -5 41 -10 18 -23 32 -28 32 -6 0
-27 17 -48 38 l-36 37 67 -6 c37 -4 96 -12 131 -18z m-277 -43 c21 -24 53 -62
69 -86 l30 -42 -47 -61 c-32 -42 -50 -57 -57 -50 -7 7 -2 22 17 48 l27 38 -29
-33 c-25 -28 -30 -31 -36 -16 -7 17 9 48 48 95 11 14 2 5 -22 -20 -35 -38 -44
-43 -52 -31 -13 20 -13 21 10 50 10 14 22 22 26 18 4 -4 1 -16 -7 -25 -12 -17
-12 -17 6 -1 17 16 17 18 1 43 -9 14 -14 30 -10 36 3 6 -3 5 -15 -3 -12 -7
-21 -18 -21 -25 0 -7 -4 -13 -10 -13 -13 0 -13 27 0 35 5 3 15 16 22 28 10 19
9 20 -4 10 -8 -7 -18 -10 -22 -6 -4 4 -4 0 -1 -9 7 -18 -10 -34 -20 -18 -6 9
41 80 53 80 3 0 23 -19 44 -42z m185 -278 c73 -153 96 -256 97 -435 0 -145
-22 -333 -44 -375 -5 -10 -14 -39 -20 -66 -6 -26 -29 -84 -52 -129 l-40 -81
-59 -15 c-33 -9 -59 -12 -59 -7 0 5 12 30 28 56 15 25 37 71 49 102 16 38 21
45 17 23 -10 -55 13 -37 31 24 18 60 20 79 16 128 l-2 30 -14 -25 c-17 -30
-18 -23 -6 33 6 23 13 59 16 80 6 39 20 49 28 20 3 -10 5 18 5 62 0 44 -3 69
-7 56 -6 -22 -7 -20 -24 17 -18 40 -32 112 -22 112 3 0 10 -10 15 -22 7 -19 9
-14 9 25 1 52 -5 59 -19 25 -9 -23 -9 -23 -9 3 -1 14 -8 34 -16 45 -8 10 -15
30 -15 44 0 44 -31 173 -54 231 l-23 56 46 62 45 62 19 -23 c10 -13 39 -66 64
-118z m-193 9 c34 -75 85 -273 91 -354 l5 -60 -14 40 c-12 35 -14 37 -15 14
-1 -19 -6 -26 -18 -25 -10 0 -19 -7 -21 -19 -2 -16 -1 -17 7 -5 6 9 11 10 11
3 0 -6 3 -20 7 -30 7 -17 6 -17 -11 0 -20 20 -33 22 -38 6 -2 -6 -22 63 -45
153 -22 90 -55 197 -73 237 -17 40 -28 77 -23 82 4 4 28 9 53 12 25 2 48 4 51
5 4 1 19 -25 33 -59z m289 -46 c-3 -7 2 -16 11 -19 9 -3 16 -14 17 -23 0 -9
11 -43 25 -76 22 -56 24 -58 21 -22 -2 20 0 37 4 37 12 0 28 -93 38 -215 l9
-110 -31 -40 c-46 -60 -48 -62 -46 -40 4 37 -1 54 -13 50 -9 -4 -13 8 -13 42
0 27 -3 89 -7 138 -7 99 -3 102 12 10 l9 -60 -5 75 c-3 41 -9 80 -13 85 -5 6
-11 26 -15 45 l-6 35 21 -25 21 -25 -7 30 c-4 16 -10 32 -14 35 -4 3 -17 29
-29 58 -18 44 -19 57 -9 73 11 18 12 17 19 -12 3 -18 4 -38 1 -46z m-173
-1073 c0 -5 -8 -10 -17 -10 -13 0 -14 -3 -6 -8 22 -14 -34 -89 -71 -96 -47
-10 -139 -57 -129 -67 10 -10 73 10 73 23 0 8 71 41 76 35 2 -2 -8 -15 -21
-29 -13 -15 -21 -28 -17 -31 4 -2 2 -2 -5 -1 -13 3 -90 -20 -140 -42 -65 -29
-64 -15 7 67 38 45 70 85 70 90 0 5 7 9 16 9 8 0 13 4 10 9 -4 5 2 7 11 5 10
-3 38 2 63 10 l45 15 -40 -4 c-38 -4 -38 -4 15 15 30 10 56 19 58 19 1 1 2 -3
2 -9z m-239 -307 c23 -32 45 -60 48 -63 3 -3 61 -74 129 -158 l123 -152 -32
-48 c-41 -59 -38 -56 -45 -49 -3 3 8 26 25 51 30 45 30 46 8 46 -14 0 -18 -3
-10 -8 8 -5 6 -14 -8 -32 l-21 -25 7 28 c4 21 2 28 -7 25 -7 -3 -13 -10 -13
-17 0 -6 -6 -16 -14 -20 -9 -6 -10 -11 -2 -15 6 -4 10 -19 10 -34 -1 -16 -3
-20 -6 -10 -2 9 -10 15 -17 12 -16 -6 -28 30 -14 44 6 6 6 17 -1 30 -13 24 -3
36 17 19 13 -10 14 -9 7 3 -9 16 -57 82 -65 90 -29 28 -78 120 -76 140 2 14 1
17 -1 8 -5 -19 -23 -25 -23 -9 0 5 -6 16 -12 23 -7 7 -33 40 -57 73 -25 33
-52 66 -60 73 -14 12 -14 13 2 8 9 -3 17 -1 17 4 0 5 10 11 23 13 12 2 23 5
23 6 1 0 21 -25 45 -56z"/>
<path d="M723 2313 c-7 -2 -13 -11 -13 -19 0 -16 -38 -33 -78 -35 -24 -2 -25
-2 -4 -6 21 -4 23 -9 20 -66 -3 -56 -5 -62 -25 -65 -21 -3 -23 1 -25 55 -2 55
-2 56 -5 12 -3 -36 -8 -48 -24 -52 -10 -3 -19 -1 -19 4 0 5 5 9 10 9 12 0 3
20 -24 55 l-15 20 -15 -20 c-18 -23 -21 -13 -6 16 18 33 3 21 -21 -18 -13 -20
-25 -31 -27 -24 -2 6 4 24 14 39 l17 27 -27 -24 c-14 -14 -26 -28 -26 -33 0
-16 72 -88 89 -88 18 -1 -44 -30 -63 -30 -6 0 -26 23 -43 52 l-32 51 30 38
c21 26 39 39 62 42 l32 4 -33 1 c-32 2 -40 -4 -95 -68 -14 -16 -12 -23 19 -69
19 -27 34 -54 34 -58 0 -5 -19 -15 -42 -23 -36 -12 -44 -20 -46 -44 -2 -16 1
-33 6 -38 13 -13 42 2 42 22 0 11 10 20 26 24 15 4 24 9 22 12 -3 2 -17 0 -32
-6 -21 -7 -27 -7 -24 1 5 14 147 70 168 67 8 -2 18 -17 21 -33 6 -26 6 -25 4
7 -3 35 -1 38 39 52 82 29 108 36 118 30 13 -8 88 16 88 28 0 4 -12 9 -27 9
-16 1 -38 3 -50 4 -24 2 -32 -10 -11 -17 7 -3 -7 -9 -30 -15 -38 -10 -42 -9
-42 7 0 11 5 22 11 25 6 4 10 19 9 33 -4 50 3 47 10 -3 l7 -50 1 47 c1 27 11
62 23 82 12 20 19 36 17 35 -1 0 -9 -3 -15 -6z"/>
<path d="M4303 2233 c3 -5 30 -19 59 -32 96 -42 103 -46 115 -57 7 -7 9 -15 5
-19 -4 -5 -1 -5 6 0 8 4 28 9 45 11 138 16 218 40 242 72 10 15 13 22 5 16
-24 -18 -69 -26 -175 -29 -55 -2 -110 -4 -122 -5 -44 -2 -73 3 -73 11 0 5 -11
9 -25 9 -15 0 -40 7 -57 16 -16 9 -28 12 -25 7z"/>
<path d="M5613 1978 c-11 -13 -33 -43 -48 -68 -21 -34 -30 -41 -34 -28 -5 13
-9 12 -26 -10 -10 -15 -12 -22 -4 -15 8 6 20 8 27 4 11 -6 10 -22 -3 -77 -9
-38 -18 -75 -19 -83 -2 -8 -11 -16 -21 -17 -10 -2 -22 -10 -27 -18 -5 -9 -16
-16 -23 -16 -8 0 -15 -3 -15 -7 -1 -5 -16 -26 -36 -48 l-35 -40 7 30 c4 17 11
32 16 33 4 2 8 13 8 25 1 12 7 36 15 52 11 24 14 26 15 10 l1 -20 9 20 c5 11
9 27 9 35 -1 10 -2 11 -6 2 -2 -6 -9 -10 -13 -7 -5 3 -6 13 -3 22 4 10 2 14
-5 9 -6 -3 -16 -31 -22 -61 -11 -52 -30 -84 -30 -50 0 9 -4 14 -9 11 -12 -8
16 135 29 148 12 12 14 66 2 66 -17 0 -22 -13 -10 -27 8 -10 8 -17 0 -25 -9
-9 -12 -7 -12 10 0 12 -5 22 -11 22 -6 0 -8 7 -5 17 4 9 1 20 -6 25 -10 6 -8
8 5 8 9 0 17 5 17 10 0 18 -21 10 -51 -19 -16 -17 -29 -24 -29 -16 0 7 -3 15
-7 18 -5 2 -3 3 3 1 7 -1 11 8 10 23 -1 24 -3 22 -44 -23 -23 -27 -53 -70 -65
-96 -20 -43 -37 -61 -37 -40 0 5 -6 16 -13 26 -13 17 -15 15 -34 -25 -32 -68
-39 -127 -18 -143 16 -12 15 -13 -13 -14 -17 0 -40 -6 -51 -12 -18 -9 -21 -7
-26 13 -3 12 1 36 9 52 24 46 20 63 -8 36 -18 -17 -25 -19 -29 -9 -4 9 -6 9
-6 1 -1 -7 -16 -15 -35 -19 -22 -4 -33 -11 -30 -19 3 -7 -1 -15 -9 -18 -21 -8
-61 37 -54 63 3 11 1 17 -4 14 -12 -7 -41 15 -34 26 3 5 1 11 -5 15 -5 3 -10
22 -10 41 0 21 -4 33 -10 29 -14 -9 -12 27 3 46 46 61 150 49 210 -23 l19 -23
-14 25 c-8 14 -30 35 -48 48 -61 41 -174 22 -203 -35 -17 -31 -15 -109 2 -141
13 -25 14 -32 3 -32 -5 0 -17 20 -27 44 -18 44 -47 66 -85 66 -11 0 -20 -4
-20 -10 0 -5 -7 -10 -16 -10 -27 0 -73 -33 -83 -60 -8 -21 -10 -22 -10 -5 -1
29 9 40 59 70 39 22 41 25 15 19 -46 -10 -62 -21 -82 -54 -20 -34 -26 -36 -43
-15 -7 8 -20 15 -29 14 -13 0 -14 -1 -1 -6 53 -19 66 -78 28 -122 -20 -22 -20
-23 -2 -8 11 9 25 17 30 17 5 -1 -1 -9 -14 -20 -13 -10 -29 -17 -37 -14 -11 4
-16 -5 -21 -35 -7 -45 -9 -47 -30 -27 -18 19 -18 30 0 23 8 -3 16 2 19 12 3
14 -1 16 -22 13 -22 -3 -30 2 -39 23 -9 20 -10 31 -1 41 8 10 7 12 -8 10 -13
-3 -19 1 -18 13 1 23 15 42 28 40 7 -1 23 3 37 9 15 6 19 11 10 12 -10 1 -9 4
5 10 12 5 14 9 6 9 -31 2 -100 -42 -126 -79 -34 -49 -43 -117 -20 -145 10 -12
15 -14 12 -5 -7 25 21 70 45 70 21 0 21 -1 -5 -28 -15 -15 -27 -31 -27 -36 0
-4 21 -6 48 -4 32 2 46 -1 45 -9 -2 -6 6 -15 17 -18 11 -4 20 -12 20 -20 0
-18 -37 -7 -45 13 -6 15 -8 15 -21 -2 -8 -11 -14 -15 -14 -9 0 18 -38 23 -44
6 -5 -13 -9 -13 -22 -2 -18 14 -108 13 -167 -2 -21 -6 -55 -25 -74 -43 -30
-27 -36 -41 -41 -85 -4 -48 -8 -54 -37 -67 -32 -13 -95 -76 -95 -95 0 -6 -5
-7 -11 -4 -6 4 -31 -1 -56 -10 -37 -14 -49 -25 -65 -61 -17 -39 -17 -47 -5
-65 13 -17 15 -18 21 -4 9 24 7 37 -4 30 -16 -10 -11 21 5 35 13 11 15 10 9
-6 -4 -15 -4 -16 4 -5 6 8 8 20 5 28 -7 19 26 42 61 43 27 0 28 -1 22 -42 -3
-24 -6 -51 -7 -61 0 -9 -4 -15 -8 -12 -5 2 -8 -3 -7 -13 1 -13 -6 -16 -27 -14
-47 5 -104 -17 -132 -50 -23 -27 -26 -39 -23 -82 3 -28 8 -60 13 -70 7 -17 6
-18 -11 -10 -10 5 -45 9 -76 9 -45 0 -61 -4 -73 -20 -9 -11 -13 -14 -9 -6 5 9
3 12 -4 7 -7 -4 -12 -13 -12 -21 0 -8 -12 -1 -29 16 -22 21 -39 29 -66 29 -53
0 -102 -24 -125 -62 -30 -50 -26 -70 22 -101 33 -21 37 -27 21 -27 -12 0 -29
10 -37 22 -9 12 -16 17 -16 11 0 -6 17 -26 38 -44 33 -29 52 -79 30 -79 -17 0
-7 -68 14 -95 22 -29 75 -56 105 -54 13 1 11 4 -7 10 -19 7 -15 7 18 4 32 -4
42 -2 36 6 -4 8 -3 9 4 5 13 -8 47 8 78 35 19 18 23 18 50 4 62 -32 164 -10
228 49 27 26 29 26 42 9 13 -16 13 -15 3 8 -8 20 -16 25 -32 21 -14 -4 -18 -2
-12 7 4 7 -11 1 -33 -14 -24 -16 -39 -32 -36 -40 6 -15 -25 -35 -53 -35 -14 0
-15 2 -4 9 9 6 -4 10 -40 13 -62 5 -75 2 -33 -7 16 -4 36 -9 44 -12 13 -5 12
-7 -2 -10 -19 -5 -94 25 -85 33 4 4 -14 31 -40 60 -25 30 -41 54 -35 54 6 0
14 16 18 35 7 41 29 64 38 40 7 -19 26 -20 26 0 0 8 6 15 14 15 7 0 20 8 27
18 11 14 11 15 -1 5 -17 -15 -30 -17 -30 -4 0 12 56 31 98 34 16 1 28 6 24 11
-3 5 4 7 16 4 12 -3 23 -1 25 6 3 8 18 6 53 -7 27 -9 64 -18 81 -20 24 -1 29
-5 21 -14 -6 -7 -8 -14 -4 -14 24 -5 33 -4 47 9 24 19 76 18 98 -2 10 -10 22
-13 25 -8 6 10 -46 52 -65 52 -8 0 -8 4 1 15 7 8 18 15 24 15 7 0 18 16 25 35
14 40 58 75 95 75 l27 0 -20 -38 c-11 -20 -28 -58 -38 -84 -17 -46 -18 -46
-45 -32 -16 8 -28 12 -28 10 0 -3 13 -12 30 -21 16 -8 36 -29 45 -45 21 -41
19 -47 -7 -15 l-21 27 -13 -24 c-9 -17 -10 -34 -4 -54 6 -22 8 -24 9 -8 1 25
29 28 36 3 5 -15 2 -41 -11 -90 -3 -9 -22 -28 -42 -43 -38 -26 -58 -33 -48
-18 3 5 -15 13 -38 20 -24 6 -46 18 -50 27 -3 9 -2 14 2 11 10 -6 42 29 42 45
0 6 -7 9 -15 5 -9 -3 -15 0 -15 10 0 8 -4 13 -9 10 -16 -10 -33 23 -27 51 5
22 4 25 -5 13 -8 -12 -9 -10 -5 11 9 39 -18 58 -37 27 -20 -31 -30 -68 -19
-68 5 0 9 -18 10 -39 1 -22 6 -50 11 -64 5 -14 7 -27 4 -30 -12 -12 39 -66 81
-87 61 -29 111 -16 160 42 51 59 45 71 -7 16 -49 -50 -88 -63 -127 -42 l-25
14 30 -1 c65 0 88 10 126 53 21 24 38 39 39 33 1 -20 20 21 20 44 0 18 4 22
18 16 36 -16 80 -16 117 -1 21 9 39 15 40 14 1 -2 8 -14 14 -26 15 -28 67 -52
113 -52 43 0 111 34 146 74 l28 32 27 -19 c15 -12 48 -22 79 -25 64 -5 105 19
153 87 27 38 30 50 29 114 l-1 72 47 -2 c42 -1 50 2 70 29 12 16 24 27 27 24
9 -9 -59 -95 -71 -90 -7 3 -18 -7 -25 -22 -11 -25 -11 -26 5 -13 16 13 17 12
11 -11 -26 -92 -29 -120 -14 -135 19 -18 33 -19 43 -3 5 8 2 9 -9 5 -10 -3
-17 -2 -17 3 0 12 32 28 45 24 14 -5 14 39 1 48 -5 4 -16 -1 -23 -10 -10 -14
-12 -9 -8 33 6 53 45 125 70 125 8 0 20 9 27 20 7 11 17 20 22 20 5 0 1 -9 -9
-20 -10 -11 -13 -20 -7 -20 6 0 14 5 17 10 4 7 12 7 25 0 15 -8 19 -6 22 8 4
20 -33 43 -61 37 -14 -3 -19 2 -18 16 1 10 6 19 12 19 5 0 4 4 -4 9 -12 8 -12
13 2 35 11 16 23 23 32 20 8 -4 15 -1 15 5 0 6 10 11 23 11 26 0 87 52 87 73
0 8 7 20 15 27 28 23 17 -15 -15 -51 -42 -48 -37 -55 14 -17 24 18 42 36 40
40 -5 8 95 78 110 78 5 0 17 7 26 15 10 9 30 18 46 21 16 3 33 12 37 20 5 9
21 14 40 13 21 -1 54 11 95 34 34 20 62 32 62 27 0 -5 -19 -19 -42 -31 -25
-13 -37 -24 -30 -27 8 -2 19 1 25 7 6 6 16 11 22 11 5 0 -1 -9 -15 -20 l-25
-19 30 3 c28 3 41 24 22 37 -4 3 -1 12 8 19 12 10 15 10 15 -1 0 -8 6 -5 15 7
20 26 19 39 -2 23 -17 -13 -17 -12 -2 6 8 11 24 39 34 63 16 37 17 45 4 53
-10 6 -23 -1 -46 -26 -38 -41 -52 -46 -28 -9 9 15 12 23 6 20 -6 -4 -11 -2
-11 4 0 7 6 10 14 7 8 -3 21 4 30 18 23 34 19 45 -4 15 -12 -15 -18 -18 -14
-7 3 9 1 17 -5 17 -6 0 -11 -5 -11 -12 0 -21 -13 1 -15 27 -3 21 4 29 36 45
46 24 53 13 9 -13 -16 -10 -30 -23 -30 -28 0 -6 18 4 40 23 23 18 54 41 71 50
29 16 30 17 11 27 -12 6 -43 11 -71 11 -56 0 -64 11 -26 36 14 9 25 21 25 28
0 6 -5 4 -10 -4 -5 -8 -10 -12 -11 -7 -5 25 -4 33 3 43 5 7 1 13 -12 17 -11 3
-20 11 -20 19 0 10 2 11 9 0 6 -10 10 -10 21 3 10 12 10 15 -4 15 -24 0 -20
25 7 38 18 9 13 10 -25 5 -53 -6 -58 0 -26 34 25 27 19 28 -42 9 -25 -8 -36
-15 -25 -16 16 -1 14 -4 -10 -15 -33 -15 -41 -13 -29 7 4 7 7 26 6 43 -2 17 8
51 21 78 13 26 23 47 22 47 -1 0 -11 -10 -22 -22z m-964 -207 c19 -12 22 -68
4 -75 -8 -3 -11 -11 -8 -16 4 -6 3 -9 -2 -8 -16 5 -55 -30 -48 -44 3 -7 1 -6
-7 2 -24 28 -70 60 -79 54 -5 -3 -9 6 -9 19 0 25 33 63 47 54 5 -3 19 1 33 9
29 16 50 17 69 5z m37 -80 c-3 -5 19 -12 49 -16 42 -5 62 -13 85 -36 36 -36
37 -50 8 -98 -17 -28 -18 -33 -5 -22 15 12 17 12 11 -3 -8 -22 -25 -20 -31 3
-3 12 -11 17 -19 14 -8 -3 -14 0 -14 7 0 6 -4 9 -8 6 -4 -3 -24 -1 -43 3 -25
6 -38 4 -47 -6 -20 -20 -28 -16 -31 17 -4 74 -4 73 -18 54 -7 -10 -16 -15 -19
-11 -8 8 50 67 66 67 6 0 8 -4 5 -10 -4 -6 1 -7 11 -3 14 5 13 8 -6 18 -17 9
-19 14 -9 18 20 8 21 8 15 -2z m-146 -66 c37 -19 39 -29 5 -23 -14 3 -25 1
-25 -3 0 -5 18 -12 39 -15 28 -4 42 -13 50 -31 15 -32 14 -54 -1 -52 -36 4
-48 -2 -48 -25 0 -35 -10 -56 -26 -56 -8 0 -14 -6 -14 -14 0 -8 -4 -17 -10
-21 -5 -3 -5 7 1 25 6 16 15 30 20 30 5 0 9 8 9 17 0 14 -3 13 -16 -5 -8 -12
-20 -20 -25 -17 -5 4 -9 -4 -9 -16 l0 -22 -21 24 c-15 17 -19 34 -17 57 4 30
3 32 -9 16 -21 -28 -27 -8 -13 41 8 27 24 55 41 70 25 20 26 24 11 28 -12 3
-11 5 6 6 13 0 36 -6 52 -14z m582 -40 c40 -16 68 -64 68 -114 0 -17 5 -31 10
-31 6 0 10 9 10 19 0 32 20 35 21 4 2 -27 2 -27 6 -3 7 39 23 48 23 13 0 -18
6 -33 15 -37 8 -3 15 0 15 7 0 8 4 7 11 -3 7 -11 8 -6 4 20 -6 38 11 81 35 87
9 3 11 1 5 -4 -16 -13 -34 -71 -28 -91 2 -11 -2 -26 -10 -34 -13 -13 -13 -16
4 -26 15 -10 17 -9 13 3 -5 13 6 20 28 16 4 0 10 8 13 19 8 26 25 26 25 0 0
-23 19 -26 39 -7 11 10 13 10 7 0 -9 -16 17 -17 44 -3 14 8 19 5 23 -12 5 -18
11 -20 52 -16 25 3 48 1 51 -4 3 -5 13 -6 23 -3 9 2 32 1 50 -5 24 -7 39 -6
48 1 8 7 13 8 13 1 0 -14 -63 -68 -103 -88 -20 -10 -27 -12 -19 -3 24 26 11
27 -34 2 -53 -30 -72 -22 -29 13 17 13 31 33 31 44 2 30 -13 24 -31 -11 -19
-35 -33 -33 -15 3 11 22 10 22 -4 4 -9 -11 -16 -26 -16 -32 0 -33 -28 -68 -72
-90 -26 -13 -49 -24 -52 -24 -2 0 0 17 5 37 12 55 3 52 -18 -6 -10 -28 -25
-53 -34 -56 -8 -3 -25 -14 -37 -26 -18 -16 -22 -17 -22 -4 0 20 -6 19 -47 -6
-51 -32 -51 -16 0 23 34 26 43 38 36 49 -5 8 -9 10 -9 4 0 -5 -27 -32 -59 -59
-33 -27 -57 -54 -55 -61 3 -7 -9 -23 -25 -35 -36 -25 -36 -26 -16 31 9 24 13
49 11 56 -3 7 -1 15 4 18 6 4 10 14 10 23 -1 16 -1 16 -13 0 -15 -19 -32 -12
-40 17 -3 13 -5 8 -7 -15 -1 -19 -4 -27 -7 -17 -4 15 -15 21 -35 18 -4 0 -12
17 -18 39 -6 22 -15 40 -20 40 -5 0 -11 6 -13 13 -2 6 -3 -1 -1 -18 5 -38 -11
-22 -25 25 l-11 35 5 -32 c7 -47 -6 -40 -35 18 -14 28 -28 53 -31 55 -4 2 -10
-16 -13 -41 -8 -50 5 -85 33 -85 21 0 33 -9 26 -21 -3 -4 -18 -2 -33 6 -15 8
-39 17 -55 20 -27 5 -27 6 -10 31 26 40 16 138 -13 127 -12 -4 -14 0 -9 23 4
21 3 24 -3 9 -11 -25 -3 -117 9 -109 18 10 9 -16 -12 -37 -17 -17 -23 -18 -29
-8 -11 16 -40 21 -40 6 0 -8 -3 -7 -9 1 -6 10 -10 9 -14 -7 -4 -18 -1 -21 31
-21 49 0 33 -12 -22 -15 -35 -3 -44 0 -39 11 3 8 0 14 -6 14 -6 0 -11 -4 -11
-10 0 -5 -4 -10 -10 -10 -6 0 -5 10 2 25 6 13 15 22 19 19 5 -3 9 0 9 5 0 6
-9 11 -20 11 -11 0 -23 7 -26 15 -4 8 -13 15 -21 15 -17 0 -13 44 8 81 7 13
13 28 14 34 1 33 114 46 154 18 24 -16 25 -16 50 14 14 17 33 33 41 36 12 4
11 6 -2 6 -10 1 -18 6 -18 11 0 13 16 13 41 0 16 -9 18 -18 13 -50 -8 -52 3
-110 21 -110 17 0 20 16 5 25 -5 3 -10 11 -10 18 0 8 3 8 12 -1 20 -20 28 -14
18 14 -7 17 -6 32 2 47 6 12 11 23 10 25 -16 23 45 92 81 92 13 0 40 -7 59
-15z m-893 -134 c11 -7 32 -34 46 -61 27 -53 30 -64 16 -55 -5 3 -12 -4 -16
-15 -4 -11 -10 -18 -15 -15 -5 3 -7 12 -4 20 11 28 -7 35 -36 13 -31 -22 -140
-39 -140 -21 0 5 -7 18 -16 29 -8 10 -13 12 -9 4 4 -8 -1 -6 -9 4 -9 11 -16
24 -16 30 0 5 -3 7 -6 3 -10 -9 19 -77 33 -77 7 0 13 -4 13 -10 0 -5 7 -7 15
-4 9 4 15 0 15 -10 0 -9 -3 -16 -8 -16 -10 0 -55 31 -64 44 -5 7 -8 7 -8 1 0
-24 -30 50 -30 75 0 39 30 61 102 74 63 12 96 9 137 -13z m321 -85 c-5 -15 -5
-27 3 -35 8 -8 8 -11 0 -11 -6 0 -14 6 -16 13 -3 7 -6 4 -6 -6 -1 -10 -5 -16
-10 -13 -4 3 -6 -5 -4 -18 3 -13 0 -34 -7 -46 -10 -19 -8 -26 11 -46 l23 -24
10 26 11 26 22 -30 22 -30 -40 -6 c-41 -7 -63 -1 -54 14 10 15 -51 30 -112 27
-54 -3 -62 -2 -70 17 -15 35 -4 65 29 82 23 12 27 18 17 24 -9 6 -6 10 14 15
15 4 27 10 27 14 0 3 13 6 30 7 16 1 27 -2 25 -6 -7 -11 25 -21 45 -15 10 3
20 15 23 25 3 11 8 20 11 20 3 0 1 -11 -4 -24z m-565 -116 c8 -16 24 -34 35
-40 26 -14 25 -26 0 -33 -11 -3 -27 -21 -35 -41 -17 -41 -21 -42 -47 -19 -17
15 -18 15 -18 -3 0 -16 -2 -17 -10 -4 -8 13 -10 12 -10 -4 0 -17 -2 -17 -20 4
-13 15 -20 37 -20 62 0 31 4 41 20 45 11 3 20 9 20 14 0 5 5 9 11 9 5 0 7 -5
3 -12 -4 -7 -3 -8 5 -4 6 4 9 12 6 17 -4 5 0 9 7 10 10 0 10 2 0 6 -17 7 -5
23 18 23 11 0 26 -12 35 -30z m891 -35 c24 -18 38 -19 28 -2 -5 9 -4 9 6 0 7
-6 14 -37 16 -68 4 -59 23 -113 24 -67 0 13 6 22 15 22 22 0 64 -44 76 -79 7
-21 16 -28 27 -25 9 3 6 -3 -8 -13 -44 -32 -60 -53 -67 -83 -6 -32 -23 -41
-23 -12 -1 9 -7 28 -16 42 -13 22 -14 22 -9 3 3 -12 2 -24 -3 -26 -4 -3 -8 5
-7 19 0 22 18 43 38 44 4 0 7 -8 7 -17 0 -15 -2 -16 -10 -3 -5 8 -10 11 -10 5
0 -5 4 -17 9 -24 8 -12 11 -9 16 12 4 15 3 33 -3 40 -7 8 -7 18 -2 27 6 8 10
22 10 30 0 8 -9 1 -19 -16 -25 -40 -59 -64 -91 -64 -22 1 -19 4 17 21 23 11
44 28 48 37 4 12 -1 10 -18 -6 -28 -26 -36 -27 -73 -6 l-29 16 28 -5 c15 -2
27 -1 28 2 0 3 2 15 4 25 3 17 -19 51 -34 51 -19 1 -61 40 -61 57 0 22 39 78
55 78 6 0 20 -7 31 -15z m-660 -56 c13 -12 24 -30 24 -38 0 -10 -6 -6 -17 11
-19 30 -53 48 -86 47 -15 -1 -11 -4 13 -11 36 -10 70 -34 70 -50 0 -5 -4 -6
-10 -3 -13 8 -13 -1 1 -27 9 -17 9 -20 -4 -15 -16 6 -33 -35 -21 -54 8 -14
-25 -43 -55 -47 -25 -4 -61 27 -61 53 0 8 -4 15 -10 15 -20 0 -10 -40 16 -63
22 -21 24 -25 9 -31 -23 -9 -35 1 -35 30 0 13 -4 24 -9 24 -5 0 -9 20 -9 44
-1 24 -2 48 -3 52 -4 21 3 31 32 48 23 14 28 21 18 27 -14 8 -12 10 31 22 26
7 81 -11 106 -34z m290 -4 c24 -24 29 -25 55 -15 15 7 34 10 41 7 7 -3 -1 -8
-19 -12 -28 -6 -31 -10 -23 -31 6 -15 6 -26 -1 -30 -6 -3 -7 -23 -4 -48 5 -31
3 -45 -8 -54 -12 -10 -13 -8 -9 15 4 27 4 27 -29 -10 -26 -29 -43 -40 -69 -42
-51 -4 -61 2 -49 31 6 17 6 23 -1 19 -6 -3 -10 -13 -10 -21 0 -18 -8 -18 -26
1 -9 8 -12 20 -8 26 4 8 3 9 -5 5 -17 -11 -25 22 -12 51 16 36 6 41 -12 6 -13
-24 -13 -33 -2 -58 28 -67 101 -91 168 -57 26 14 37 16 37 7 0 -6 -21 -19 -47
-27 -54 -17 -90 -11 -137 24 -23 17 -28 18 -23 5 4 -10 5 -17 3 -17 -3 0 -13
-3 -23 -7 -15 -6 -16 -4 -6 9 7 8 10 18 6 21 -3 4 -1 7 4 7 8 0 8 8 0 29 -8
22 -8 39 0 66 9 28 9 34 -1 26 -8 -7 -12 -5 -12 9 0 11 2 17 4 15 3 -2 13 7
24 20 10 13 27 27 38 30 11 4 18 10 16 13 -2 4 22 9 55 10 52 3 62 0 85 -23z
m174 -20 c41 -21 80 -76 79 -111 l-1 -29 -9 33 c-13 42 -16 40 -16 -9 0 -32
-7 -47 -34 -75 -18 -19 -28 -34 -23 -34 12 0 59 49 67 70 4 10 6 7 6 -7 1 -13
6 -23 11 -23 13 0 -21 -49 -34 -50 -5 0 -2 8 7 18 28 30 19 38 -10 10 -61 -58
-125 -66 -165 -21 -17 18 -16 21 3 61 20 41 34 57 23 27 -4 -8 -1 -15 6 -15 8
0 10 -11 6 -32 l-6 -33 12 30 c6 17 14 32 18 35 4 3 10 16 14 30 3 14 3 19 0
12 -3 -6 -10 -10 -15 -7 -5 4 -6 -1 -3 -9 3 -9 2 -16 -4 -16 -14 0 -8 40 12
80 9 19 13 31 10 27 -3 -3 -12 -1 -19 6 -9 9 -9 16 -1 29 13 22 28 23 66 3z
m-726 -109 c19 -8 45 -31 59 -52 24 -35 25 -39 11 -66 -9 -17 -18 -27 -21 -24
-9 8 -34 -15 -28 -25 3 -4 -3 -13 -14 -18 -15 -8 -23 -7 -35 5 -13 12 -23 13
-49 5 -56 -18 -85 -10 -92 24 -4 24 -8 27 -15 15 -8 -12 -10 -10 -10 10 0 20
-2 22 -11 10 -8 -12 -9 -11 -6 5 2 11 7 19 13 19 5 -1 20 15 33 35 l23 36 -26
-24 c-14 -14 -26 -20 -26 -14 0 14 41 50 70 62 36 14 86 13 124 -3z m469 -136
l42 -8 -37 -1 c-22 -1 -38 -6 -38 -13 0 -6 -7 -3 -16 8 -15 18 -15 18 -5 -3 6
-12 11 -34 11 -50 0 -29 -39 -113 -53 -113 -5 0 -5 6 -1 13 4 6 -1 5 -12 -4
-10 -9 -28 -19 -39 -23 -20 -6 -20 -6 -1 9 11 8 14 15 8 15 -7 0 -11 6 -9 13
1 7 -7 11 -21 10 -13 -2 -21 1 -17 6 3 5 0 13 -6 17 -8 5 -9 3 -4 -6 6 -9 2
-10 -15 -5 -20 6 -22 5 -16 -11 5 -14 4 -16 -4 -8 -9 9 -9 18 1 35 11 21 11
23 -3 11 -32 -26 -28 16 6 65 28 40 39 48 69 51 19 2 41 9 47 17 10 13 16 12
42 -1 16 -8 48 -19 71 -24z m441 -52 c15 -56 -3 -156 -25 -142 -5 3 -9 -2 -9
-10 0 -23 -16 -28 -58 -16 -53 14 -89 44 -89 74 0 21 3 23 22 16 19 -7 23 -4
34 26 7 19 16 34 21 34 5 0 7 -6 4 -14 -10 -26 36 -6 59 25 25 35 33 36 41 7z
m-1476 -34 c14 -9 21 -22 18 -31 -3 -8 -1 -11 5 -8 13 9 -1 -47 -15 -58 -8 -6
-7 -10 2 -14 6 -2 12 -11 12 -19 0 -8 7 -29 16 -47 l17 -32 -22 19 c-11 11
-21 30 -21 43 0 13 -6 26 -13 29 -9 3 -12 16 -10 37 3 24 2 28 -6 17 -5 -8 -7
-18 -4 -24 3 -5 2 -6 -4 -3 -5 3 -25 -9 -43 -28 -44 -45 -61 -33 -18 14 23 25
25 29 6 12 -25 -22 -39 -19 -20 5 4 5 -3 -2 -15 -15 -31 -35 -42 -18 -13 22
l23 32 -24 -22 -25 -23 1 23 c3 47 24 66 90 80 35 8 40 7 63 -9z m1107 -4 c10
9 15 6 20 -10 6 -20 7 -21 20 -3 13 17 14 16 24 -10 16 -40 14 -63 -9 -107
-22 -43 -46 -63 -99 -81 -29 -10 -35 -9 -53 8 -10 11 -26 37 -33 59 l-14 39
-1 -41 c0 -28 7 -50 22 -69 l21 -28 -22 12 c-25 14 -41 49 -41 90 0 15 -6 33
-12 41 -11 12 -10 12 3 2 13 -9 20 -8 38 9 13 12 27 35 33 50 5 16 14 29 19
29 11 0 11 -3 -1 -34 -5 -15 -6 -26 0 -26 4 0 11 -8 13 -17 3 -10 5 5 6 34 0
28 6 55 11 58 6 3 10 -2 11 -12 0 -14 3 -12 11 7 9 21 12 22 15 7 4 -14 8 -15
18 -7z m-1119 -215 c-5 -14 56 -42 80 -37 16 3 59 -47 48 -57 -14 -14 -58 -25
-50 -13 3 6 -9 12 -29 14 -21 2 -36 -1 -39 -9 -3 -7 1 -10 11 -6 13 5 14 3 3
-16 -12 -23 -47 -25 -42 -2 1 7 -2 10 -8 6 -19 -11 -32 6 -18 23 11 15 11 15
-4 4 -20 -16 -35 2 -19 22 6 7 9 20 5 29 -3 8 -1 18 5 22 6 3 11 1 11 -5 0 -6
5 -8 10 -5 6 4 8 11 4 16 -8 13 16 40 28 33 5 -3 7 -12 4 -19z"/>
<path d="M3500 1906 c0 -4 11 -19 25 -34 14 -15 28 -43 31 -62 3 -19 15 -50
26 -69 13 -23 16 -37 9 -44 -12 -12 -41 8 -37 26 1 7 1 9 -1 5 -3 -5 -12 -8
-21 -8 -13 0 -12 -3 4 -15 18 -14 18 -14 -8 -15 -15 0 -30 5 -33 10 -4 6 -11
7 -17 4 -7 -4 -8 -2 -4 5 9 14 -30 71 -50 71 -8 0 -32 16 -54 36 -22 20 -40
32 -40 28 0 -5 9 -15 20 -22 12 -7 18 -17 15 -21 -3 -5 18 -30 46 -54 l52 -45
-54 -6 c-30 -3 -72 -8 -94 -9 -26 -3 -19 -4 20 -5 33 0 81 3 108 7 26 4 47 4
47 -1 0 -4 19 -8 43 -8 l42 0 -32 -31 c-18 -16 -33 -38 -34 -47 0 -9 -2 -27
-3 -39 -1 -12 1 -20 6 -17 4 3 8 19 8 35 0 30 20 55 64 80 17 10 18 7 12 -43
l-5 -53 12 43 c7 24 16 40 20 36 11 -11 38 -14 32 -4 -3 5 -1 10 5 12 5 1 -3
9 -17 16 -20 9 -24 9 -15 0 17 -17 15 -33 -3 -18 -20 17 -19 23 10 66 14 20
25 42 25 48 0 6 -5 4 -10 -4 -7 -11 -10 -1 -11 35 l-2 50 -7 -58 c-4 -32 -11
-61 -15 -65 -10 -11 -34 27 -41 67 -4 20 -12 47 -19 61 -13 26 -55 69 -55 56z"/>
<path d="M2135 1601 c2 -5 43 -23 90 -42 47 -18 81 -35 76 -38 -10 -7 18 -8
294 -14 l200 -5 -2 -23 c-1 -13 -7 -44 -14 -67 -12 -38 -12 -45 2 -55 9 -7 20
-30 24 -52 5 -25 10 -33 13 -22 7 32 42 -48 42 -97 0 -62 11 -136 20 -131 4 3
10 -12 14 -33 8 -52 7 -72 -4 -47 -7 16 -9 17 -9 3 -1 -9 -7 -19 -13 -21 -8
-3 -6 -6 5 -6 12 -1 17 -10 18 -33 l1 -33 7 30 c7 27 8 25 16 -25 4 -30 10
-50 12 -44 2 6 -14 117 -36 246 -22 128 -45 267 -51 308 -18 124 -7 118 -232
117 -205 -1 -280 10 -377 54 -58 26 -103 40 -96 30z"/>
<path d="M2737 1308 c-9 -35 -41 -135 -71 -223 -45 -131 -52 -161 -40 -168 8
-4 14 -13 14 -18 0 -6 -4 -7 -10 -4 -6 4 -10 -14 -10 -47 0 -73 -16 -122 -51
-162 -20 -23 -26 -37 -18 -41 12 -8 44 19 44 38 0 6 5 12 10 12 6 0 9 -4 7 -8
-5 -16 18 4 29 25 6 11 7 18 1 15 -5 -4 -9 6 -8 22 1 16 4 27 9 24 8 -5 9 7 9
80 0 27 -5 54 -11 60 -19 19 -13 36 12 30 12 -3 19 -3 15 2 -4 4 -1 14 7 22
11 10 12 20 5 39 -15 39 -12 54 14 64 14 5 30 18 36 29 18 34 29 115 18 128
-5 7 -7 17 -3 22 7 12 17 121 11 121 -2 0 -11 -28 -19 -62z"/>
<path d="M1997 1194 c-2 -3 0 -20 6 -39 12 -42 -4 -87 -38 -105 -27 -15 -28
-17 -96 -235 -27 -88 -61 -193 -75 -233 -34 -102 -34 -162 0 -207 17 -22 35
-35 50 -35 13 0 63 -24 112 -53 85 -51 108 -64 199 -110 124 -62 242 -43 502
83 238 115 319 164 328 198 4 16 -5 98 -21 198 -26 154 -30 168 -41 146 -16
-30 -18 -106 -2 -97 6 5 8 23 4 49 -4 22 -4 38 -1 35 6 -6 46 -211 46 -237 0
-7 -5 -10 -11 -6 -6 3 -10 -1 -9 -12 3 -30 1 -48 -6 -41 -6 6 -54 -56 -54 -70
0 -3 11 2 25 11 14 9 25 12 25 7 0 -14 -68 -53 -80 -46 -6 4 -48 -8 -95 -27
-77 -30 -100 -50 -96 -80 1 -9 -130 -70 -136 -64 -5 5 82 56 95 56 5 0 17 12
27 26 9 15 13 24 9 21 -5 -3 -39 -25 -76 -50 -39 -27 -84 -48 -110 -52 -24 -4
-45 -11 -48 -15 -8 -12 -58 -21 -64 -11 -3 5 10 21 29 37 23 18 35 36 35 52 0
33 20 103 35 122 58 72 94 201 60 214 -21 8 -34 -23 -90 -198 -39 -124 -53
-156 -81 -184 -27 -27 -32 -37 -23 -48 9 -11 8 -14 -4 -14 -9 0 -18 4 -22 9
-3 5 -20 7 -39 4 -29 -5 -38 0 -80 43 -26 26 -58 49 -72 50 -13 1 -34 5 -46 9
-13 3 -2 -6 25 -20 26 -14 47 -30 47 -35 0 -16 -8 -13 -124 49 -158 83 -168
88 -199 100 -27 11 -28 13 -22 62 6 51 33 119 35 89 2 -21 19 20 19 45 0 17
-2 16 -11 -5 -18 -44 -21 -2 -3 46 9 24 14 52 10 63 -3 11 0 23 6 27 8 5 11 2
7 -7 -3 -8 -2 -23 3 -34 6 -17 8 -17 8 -2 1 9 6 17 12 17 6 0 9 9 6 20 -3 11
-2 18 3 15 4 -2 10 9 14 26 8 43 8 51 -4 44 -16 -10 0 73 21 117 11 21 19 51
19 67 0 40 44 83 77 75 19 -5 23 -2 23 19 0 14 -5 27 -12 29 -7 3 -8 9 -3 19
5 8 8 23 6 33 -3 21 -26 48 -34 40z"/>
<path d="M2445 948 c-59 -46 -84 -170 -49 -244 15 -32 19 -34 66 -34 41 0 54
5 79 29 16 16 32 43 35 60 4 17 13 36 20 42 18 15 17 33 -2 89 -15 45 -40 80
-55 80 -4 0 3 -11 16 -25 21 -20 25 -34 25 -80 0 -100 -54 -185 -117 -185 -18
0 -33 5 -33 10 0 6 4 10 9 10 13 0 -6 55 -25 71 -17 14 -8 86 13 107 9 9 13
10 13 2 0 -13 41 34 59 68 10 19 9 22 -7 22 -11 0 -32 -10 -47 -22z"/>
<path d="M506 914 c-3 -9 -6 -26 -6 -39 0 -14 -7 -39 -14 -57 -8 -18 -18 -59
-21 -90 -4 -32 -7 -58 -8 -58 -1 0 -27 7 -57 15 -30 8 -66 14 -80 14 -14 0 7
-10 45 -20 82 -24 193 -31 267 -19 34 5 68 4 96 -3 36 -9 45 -9 58 5 16 15 14
17 -19 23 -19 4 -52 5 -72 2 -32 -4 -36 -3 -32 14 3 10 1 17 -4 13 -5 -3 -9
-12 -9 -20 0 -11 -16 -14 -74 -14 -41 0 -81 -3 -90 -6 -11 -4 -16 -1 -16 11 0
9 4 14 9 11 4 -3 13 6 20 20 8 18 8 23 0 18 -8 -4 -9 1 -3 17 4 13 8 35 9 47
1 13 8 28 16 33 12 8 12 10 0 18 -10 6 -12 20 -8 45 6 38 3 47 -7 20z"/>
<path d="M1585 816 c-22 -68 -54 -112 -90 -118 -28 -6 -32 1 -12 21 38 41 -86
-48 -138 -98 -12 -12 -42 -23 -75 -27 l-54 -7 38 -14 c38 -13 60 -10 121 12
19 7 19 7 1 -7 -17 -13 -17 -16 -2 -31 19 -19 46 -12 46 12 0 9 5 22 12 29 9
9 9 12 -1 12 -6 0 0 11 14 24 15 14 33 22 40 19 18 -6 41 7 26 16 -6 4 10 27
39 55 28 27 50 45 50 40 -1 -14 -37 -54 -49 -54 -12 0 -33 -35 -26 -42 3 -3
-2 -24 -10 -48 -15 -43 -17 -132 -2 -123 4 2 7 -5 7 -16 0 -11 -8 -22 -17 -25
-10 -3 -40 -28 -68 -56 -46 -45 -84 -70 -56 -36 7 8 8 17 3 20 -9 5 -40 -23
-34 -31 1 -1 -1 -4 -5 -4 -5 -1 -21 -12 -36 -25 -15 -13 -43 -26 -62 -30 -20
-3 -38 -10 -41 -15 -7 -12 -148 -11 -219 2 -58 11 -105 33 -105 51 0 5 9 4 20
-2 20 -11 40 -6 40 10 0 11 -51 27 -72 22 -20 -4 -24 -18 -8 -25 6 -3 5 -4 -2
-3 -8 2 -14 21 -16 49 -3 40 -6 47 -23 47 -19 0 -20 -5 -17 -57 5 -70 8 -72
158 -103 80 -17 128 -21 202 -18 90 5 104 8 190 50 108 52 218 141 251 201 20
39 22 54 20 187 -1 80 -6 156 -11 170 -8 22 -11 19 -27 -34z"/>
<path d="M253 668 c-34 -38 -43 -64 -42 -120 1 -29 4 -41 6 -25 2 15 8 25 13
22 5 -3 12 11 15 32 4 21 7 41 8 45 1 4 17 0 34 -9 28 -13 35 -13 50 -2 15 12
16 12 11 -8 -4 -14 -1 -24 9 -27 12 -5 13 -9 4 -20 -9 -11 -9 -16 0 -22 9 -5
7 -10 -5 -20 -16 -11 -16 -13 4 -19 15 -5 19 -12 15 -26 -5 -13 -2 -19 10 -19
9 0 14 -3 12 -7 -3 -7 24 -40 39 -45 4 -2 7 -36 8 -76 2 -57 0 -72 -11 -68 -7
3 -13 1 -13 -5 0 -6 -4 -8 -9 -4 -5 3 -12 1 -16 -5 -11 -17 -32 -11 -38 11 -4
15 -11 20 -23 15 -12 -5 -15 -2 -10 10 8 20 -18 70 -55 107 l-29 29 10 -26 c5
-14 6 -26 1 -26 -16 0 -39 35 -44 65 l-4 30 -2 -32 c-1 -24 8 -43 33 -70 18
-21 45 -56 59 -79 27 -44 92 -82 156 -91 33 -5 34 -4 17 9 -15 12 -16 19 -8
34 8 15 8 33 0 63 -10 37 -8 50 17 112 22 54 32 68 44 64 13 -5 13 -4 4 6 -10
10 -15 9 -28 -1 -8 -7 -15 -9 -15 -4 0 4 -7 -1 -15 -12 -17 -22 -20 -12 -4 17
5 11 14 17 19 14 6 -3 7 1 3 11 -5 13 -3 15 13 6 22 -11 52 -8 67 7 6 6 -7 11
-39 15 -89 11 -118 21 -129 41 -16 33 -48 70 -76 88 -23 16 -28 16 -39 2 -7
-8 -17 -15 -23 -15 -6 0 0 11 13 25 13 14 19 25 13 25 -5 0 -19 -10 -30 -22z"/>
</g>
</svg>
